<ttFont>
    <TTGlyph name=".notdef" xMin="32" yMin="0" xMax="440" yMax="780">
      <contour>
        <pt x="32" y="0" on="1"/>
        <pt x="32" y="780" on="1"/>
        <pt x="440" y="780" on="1"/>
        <pt x="440" y="0" on="1"/>
      </contour>
      <contour>
        <pt x="132" y="100" on="1"/>
        <pt x="340" y="100" on="1"/>
        <pt x="340" y="680" on="1"/>
        <pt x="132" y="680" on="1"/>
      </contour>
    </TTGlyph>
    <TTGlyph name="A" xMin="20" yMin="0" xMax="665" yMax="698">
      <contour>
        <pt x="507" y="0" on="1"/>
        <pt x="457" y="166" on="1"/>
        <pt x="224" y="166" on="1"/>
        <pt x="174" y="0" on="1"/>
        <pt x="20" y="0" on="1"/>
        <pt x="250" y="698" on="1"/>
        <pt x="438" y="698" on="1"/>
        <pt x="665" y="0" on="1"/>
      </contour>
      <contour>
        <pt x="342" y="560" on="1"/>
        <pt x="337" y="560" on="1"/>
        <pt x="260" y="295" on="1"/>
        <pt x="420" y="295" on="1"/>
      </contour>
    </TTGlyph>
    <TTGlyph name="AE" xMin="-1" yMin="0" xMax="913" yMax="698">
      <contour>
        <pt x="438" y="166" on="1"/>
        <pt x="229" y="166" on="1"/>
        <pt x="151" y="0" on="1"/>
        <pt x="-1" y="0" on="1"/>
        <pt x="340" y="698" on="1"/>
        <pt x="913" y="698" on="1"/>
        <pt x="913" y="563" on="1"/>
        <pt x="589" y="563" on="1"/>
        <pt x="589" y="420" on="1"/>
        <pt x="867" y="420" on="1"/>
        <pt x="867" y="286" on="1"/>
        <pt x="589" y="286" on="1"/>
        <pt x="589" y="135" on="1"/>
        <pt x="913" y="135" on="1"/>
        <pt x="913" y="0" on="1"/>
        <pt x="438" y="0" on="1"/>
      </contour>
      <contour>
        <pt x="415" y="563" on="1"/>
        <pt x="290" y="295" on="1"/>
        <pt x="438" y="295" on="1"/>
        <pt x="438" y="563" on="1"/>
      </contour>
    </TTGlyph>
    <TTGlyph name="AEacute" xMin="-1" yMin="0" xMax="913" yMax="977">
      <component glyphName="AE" x="0" y="0" flags="0x204"/>
      <component glyphName="acute.case" x="345" y="0" flags="0x4"/>
    </TTGlyph>
    <TTGlyph name="Aacute" xMin="20" yMin="0" xMax="665" yMax="977">
      <component glyphName="A" x="0" y="0" flags="0x204"/>
      <component glyphName="acute.case" x="39" y="0" flags="0x4"/>
    </TTGlyph>
    <TTGlyph name="Abreve" xMin="20" yMin="0" xMax="665" yMax="952">
      <component glyphName="A" x="0" y="0" flags="0x204"/>
      <component glyphName="breve.case" x="39" y="0" flags="0x4"/>
    </TTGlyph>
    <TTGlyph name="Acircumflex" xMin="20" yMin="0" xMax="665" yMax="956">
      <component glyphName="A" x="0" y="0" flags="0x204"/>
      <component glyphName="circumflex.case" x="39" y="0" flags="0x4"/>
    </TTGlyph>
    <TTGlyph name="Adieresis" xMin="20" yMin="0" xMax="665" yMax="912">
      <component glyphName="A" x="0" y="0" flags="0x204"/>
      <component glyphName="dieresis.case" x="39" y="0" flags="0x4"/>
    </TTGlyph>
    <TTGlyph name="Agrave" xMin="20" yMin="0" xMax="665" yMax="977">
      <component glyphName="A" x="0" y="0" flags="0x204"/>
      <component glyphName="grave.case" x="39" y="0" flags="0x4"/>
    </TTGlyph>
    <TTGlyph name="Alpha" xMin="20" yMin="0" xMax="665" yMax="698">
      <component glyphName="A" x="0" y="0" flags="0x204"/>
    </TTGlyph>
    <TTGlyph name="Alphatonos" xMin="20" yMin="0" xMax="665" yMax="816">
      <component glyphName="A" x="0" y="0" flags="0x204"/>
      <component glyphName="tonos.case" x="-215" y="0" flags="0x4"/>
    </TTGlyph>
    <TTGlyph name="Amacron" xMin="20" yMin="0" xMax="665" yMax="888">
      <component glyphName="A" x="0" y="0" flags="0x204"/>
      <component glyphName="macron.case" x="39" y="0" flags="0x4"/>
    </TTGlyph>
    <TTGlyph name="Aogonek" xMin="20" yMin="-212" xMax="697" yMax="698">
      <contour>
        <pt x="250" y="698" on="1"/>
        <pt x="438" y="698" on="1"/>
        <pt x="665" y="0" on="1"/>
        <pt x="628" y="-23" on="0"/>
        <pt x="583" y="-54" on="0"/>
        <pt x="559" y="-78" on="0"/>
        <pt x="551" y="-96" on="0"/>
        <pt x="551" y="-105" on="1"/>
        <pt x="551" y="-124" on="0"/>
        <pt x="574" y="-138" on="0"/>
        <pt x="589" y="-138" on="1"/>
        <pt x="607" y="-138" on="0"/>
        <pt x="633" y="-122" on="0"/>
        <pt x="644" y="-110" on="1"/>
        <pt x="697" y="-161" on="1"/>
        <pt x="684" y="-185" on="0"/>
        <pt x="623" y="-212" on="0"/>
        <pt x="575" y="-212" on="1"/>
        <pt x="550" y="-212" on="0"/>
        <pt x="505" y="-203" on="0"/>
        <pt x="471" y="-184" on="0"/>
        <pt x="451" y="-151" on="0"/>
        <pt x="451" y="-127" on="1"/>
        <pt x="451" y="-85" on="0"/>
        <pt x="514" y="-30" on="0"/>
        <pt x="570" y="-4" on="1"/>
        <pt x="569" y="0" on="1"/>
        <pt x="507" y="0" on="1"/>
        <pt x="457" y="166" on="1"/>
        <pt x="224" y="166" on="1"/>
        <pt x="174" y="0" on="1"/>
        <pt x="20" y="0" on="1"/>
      </contour>
      <contour>
        <pt x="342" y="560" on="1"/>
        <pt x="337" y="560" on="1"/>
        <pt x="260" y="295" on="1"/>
        <pt x="420" y="295" on="1"/>
      </contour>
    </TTGlyph>
    <TTGlyph name="Aring" xMin="20" yMin="0" xMax="665" yMax="1005">
      <component glyphName="A" x="0" y="0" flags="0x204"/>
      <component glyphName="ring.case" x="39" y="0" flags="0x4"/>
    </TTGlyph>
    <TTGlyph name="Aringacute" xMin="20" yMin="0" xMax="665" yMax="1150">
      <component glyphName="A" x="0" y="0" flags="0x204"/>
      <component glyphName="ringacute.case" x="39" y="0" flags="0x4"/>
    </TTGlyph>
    <TTGlyph name="Atilde" xMin="20" yMin="0" xMax="665" yMax="911">
      <component glyphName="A" x="0" y="0" flags="0x204"/>
      <component glyphName="tilde.case" x="39" y="0" flags="0x4"/>
    </TTGlyph>
    <TTGlyph name="B" xMin="77" yMin="0" xMax="627" yMax="698">
      <contour>
        <pt x="77" y="698" on="1"/>
        <pt x="416" y="698" on="1"/>
        <pt x="503" y="698" on="0"/>
        <pt x="600" y="600" on="0"/>
        <pt x="600" y="519" on="1"/>
        <pt x="600" y="479" on="0"/>
        <pt x="579" y="423" on="0"/>
        <pt x="544" y="387" on="0"/>
        <pt x="497" y="370" on="0"/>
        <pt x="470" y="369" on="1"/>
        <pt x="470" y="363" on="1"/>
        <pt x="495" y="363" on="0"/>
        <pt x="550" y="345" on="0"/>
        <pt x="596" y="306" on="0"/>
        <pt x="627" y="244" on="0"/>
        <pt x="627" y="199" on="1"/>
        <pt x="627" y="158" on="0"/>
        <pt x="600" y="85" on="0"/>
        <pt x="552" y="31" on="0"/>
        <pt x="486" y="0" on="0"/>
        <pt x="447" y="0" on="1"/>
        <pt x="77" y="0" on="1"/>
      </contour>
      <contour>
        <pt x="229" y="128" on="1"/>
        <pt x="404" y="128" on="1"/>
        <pt x="434" y="128" on="0"/>
        <pt x="469" y="161" on="0"/>
        <pt x="469" y="191" on="1"/>
        <pt x="469" y="225" on="1"/>
        <pt x="469" y="255" on="0"/>
        <pt x="434" y="288" on="0"/>
        <pt x="404" y="288" on="1"/>
        <pt x="229" y="288" on="1"/>
      </contour>
      <contour>
        <pt x="229" y="412" on="1"/>
        <pt x="380" y="412" on="1"/>
        <pt x="410" y="412" on="0"/>
        <pt x="444" y="446" on="0"/>
        <pt x="444" y="476" on="1"/>
        <pt x="444" y="506" on="1"/>
        <pt x="444" y="536" on="0"/>
        <pt x="410" y="570" on="0"/>
        <pt x="380" y="570" on="1"/>
        <pt x="229" y="570" on="1"/>
      </contour>
    </TTGlyph>
    <TTGlyph name="Beta" xMin="77" yMin="0" xMax="627" yMax="698">
      <component glyphName="B" x="0" y="0" flags="0x204"/>
    </TTGlyph>
    <TTGlyph name="C" xMin="50" yMin="-12" xMax="622" yMax="710">
      <contour>
        <pt x="359" y="-12" on="1"/>
        <pt x="288" y="-12" on="0"/>
        <pt x="174" y="33" on="0"/>
        <pt x="94" y="122" on="0"/>
        <pt x="50" y="255" on="0"/>
        <pt x="50" y="344" on="1"/>
        <pt x="50" y="432" on="0"/>
        <pt x="94" y="569" on="0"/>
        <pt x="174" y="662" on="0"/>
        <pt x="288" y="710" on="0"/>
        <pt x="359" y="710" on="1"/>
        <pt x="456" y="710" on="0"/>
        <pt x="582" y="631" on="0"/>
        <pt x="620" y="546" on="1"/>
        <pt x="489" y="478" on="1"/>
        <pt x="475" y="522" on="0"/>
        <pt x="416" y="575" on="0"/>
        <pt x="359" y="575" on="1"/>
        <pt x="292" y="575" on="0"/>
        <pt x="211" y="488" on="0"/>
        <pt x="211" y="405" on="1"/>
        <pt x="211" y="293" on="1"/>
        <pt x="211" y="210" on="0"/>
        <pt x="292" y="123" on="0"/>
        <pt x="359" y="123" on="1"/>
        <pt x="415" y="123" on="0"/>
        <pt x="482" y="184" on="0"/>
        <pt x="498" y="227" on="1"/>
        <pt x="622" y="155" on="1"/>
        <pt x="583" y="75" on="0"/>
        <pt x="456" y="-12" on="0"/>
      </contour>
    </TTGlyph>
    <TTGlyph name="Cacute" xMin="50" yMin="-12" xMax="622" yMax="977">
      <component glyphName="C" x="0" y="0" flags="0x204"/>
      <component glyphName="acute.case" x="55" y="0" flags="0x4"/>
    </TTGlyph>
    <TTGlyph name="Ccaron" xMin="50" yMin="-12" xMax="622" yMax="965">
      <component glyphName="C" x="0" y="0" flags="0x204"/>
      <component glyphName="caron.case" x="55" y="0" flags="0x4"/>
    </TTGlyph>
    <TTGlyph name="Ccedilla" xMin="50" yMin="-212" xMax="622" yMax="710">
      <contour>
        <pt x="359" y="575" on="1"/>
        <pt x="292" y="575" on="0"/>
        <pt x="211" y="488" on="0"/>
        <pt x="211" y="405" on="1"/>
        <pt x="211" y="293" on="1"/>
        <pt x="211" y="210" on="0"/>
        <pt x="292" y="123" on="0"/>
        <pt x="359" y="123" on="1"/>
        <pt x="415" y="123" on="0"/>
        <pt x="482" y="184" on="0"/>
        <pt x="498" y="227" on="1"/>
        <pt x="622" y="155" on="1"/>
        <pt x="583" y="75" on="0"/>
        <pt x="457" y="-12" on="0"/>
        <pt x="364" y="-12" on="1"/>
        <pt x="355" y="-55" on="1"/>
        <pt x="359" y="-59" on="1"/>
        <pt x="371" y="-56" on="0"/>
        <pt x="395" y="-52" on="0"/>
        <pt x="407" y="-52" on="1"/>
        <pt x="437" y="-52" on="0"/>
        <pt x="480" y="-84" on="0"/>
        <pt x="480" y="-121" on="1"/>
        <pt x="480" y="-147" on="0"/>
        <pt x="458" y="-181" on="0"/>
        <pt x="421" y="-203" on="0"/>
        <pt x="373" y="-212" on="0"/>
        <pt x="348" y="-212" on="1"/>
        <pt x="296" y="-212" on="0"/>
        <pt x="237" y="-183" on="0"/>
        <pt x="224" y="-168" on="1"/>
        <pt x="270" y="-112" on="1"/>
        <pt x="280" y="-124" on="0"/>
        <pt x="313" y="-141" on="0"/>
        <pt x="336" y="-141" on="1"/>
        <pt x="355" y="-141" on="0"/>
        <pt x="380" y="-129" on="0"/>
        <pt x="380" y="-116" on="1"/>
        <pt x="380" y="-110" on="0"/>
        <pt x="374" y="-98" on="0"/>
        <pt x="357" y="-87" on="0"/>
        <pt x="328" y="-78" on="0"/>
        <pt x="305" y="-76" on="1"/>
        <pt x="284" y="-74" on="1"/>
        <pt x="298" y="-7" on="1"/>
        <pt x="183" y="10" on="0"/>
        <pt x="50" y="187" on="0"/>
        <pt x="50" y="344" on="1"/>
        <pt x="50" y="432" on="0"/>
        <pt x="94" y="569" on="0"/>
        <pt x="174" y="662" on="0"/>
        <pt x="288" y="710" on="0"/>
        <pt x="359" y="710" on="1"/>
        <pt x="456" y="710" on="0"/>
        <pt x="582" y="631" on="0"/>
        <pt x="620" y="546" on="1"/>
        <pt x="489" y="478" on="1"/>
        <pt x="475" y="522" on="0"/>
        <pt x="416" y="575" on="0"/>
      </contour>
    </TTGlyph>
    <TTGlyph name="Ccircumflex" xMin="50" yMin="-12" xMax="622" yMax="956">
      <component glyphName="C" x="0" y="0" flags="0x204"/>
      <component glyphName="circumflex.case" x="55" y="0" flags="0x4"/>
    </TTGlyph>
    <TTGlyph name="Cdotaccent" xMin="50" yMin="-12" xMax="622" yMax="921">
      <component glyphName="C" x="0" y="0" flags="0x204"/>
      <component glyphName="dotaccent.case" x="55" y="0" flags="0x4"/>
    </TTGlyph>
    <TTGlyph name="Chi" xMin="16" yMin="0" xMax="657" yMax="698">
      <component glyphName="X" x="0" y="0" flags="0x204"/>
    </TTGlyph>
    <TTGlyph name="D" xMin="77" yMin="0" xMax="647" yMax="698">
      <contour>
        <pt x="77" y="698" on="1"/>
        <pt x="340" y="698" on="1"/>
        <pt x="409" y="698" on="0"/>
        <pt x="523" y="654" on="0"/>
        <pt x="603" y="567" on="0"/>
        <pt x="647" y="436" on="0"/>
        <pt x="647" y="349" on="1"/>
        <pt x="647" y="262" on="0"/>
        <pt x="603" y="131" on="0"/>
        <pt x="523" y="44" on="0"/>
        <pt x="409" y="0" on="0"/>
        <pt x="340" y="0" on="1"/>
        <pt x="77" y="0" on="1"/>
      </contour>
      <contour>
        <pt x="340" y="135" on="1"/>
        <pt x="408" y="135" on="0"/>
        <pt x="486" y="211" on="0"/>
        <pt x="486" y="295" on="1"/>
        <pt x="486" y="403" on="1"/>
        <pt x="486" y="487" on="0"/>
        <pt x="408" y="563" on="0"/>
        <pt x="340" y="563" on="1"/>
        <pt x="229" y="563" on="1"/>
        <pt x="229" y="135" on="1"/>
      </contour>
    </TTGlyph>
    <TTGlyph name="Dcaron" xMin="77" yMin="0" xMax="647" yMax="965">
      <component glyphName="D" x="0" y="0" flags="0x204"/>
      <component glyphName="caron.case" x="23" y="0" flags="0x4"/>
    </TTGlyph>
    <TTGlyph name="Dcroat" xMin="7" yMin="0" xMax="652" yMax="698">
      <contour>
        <pt x="82" y="297" on="1"/>
        <pt x="7" y="297" on="1"/>
        <pt x="7" y="411" on="1"/>
        <pt x="82" y="411" on="1"/>
        <pt x="82" y="698" on="1"/>
        <pt x="345" y="698" on="1"/>
        <pt x="414" y="698" on="0"/>
        <pt x="528" y="654" on="0"/>
        <pt x="608" y="567" on="0"/>
        <pt x="652" y="436" on="0"/>
        <pt x="652" y="349" on="1"/>
        <pt x="652" y="262" on="0"/>
        <pt x="608" y="131" on="0"/>
        <pt x="528" y="44" on="0"/>
        <pt x="414" y="0" on="0"/>
        <pt x="345" y="0" on="1"/>
        <pt x="82" y="0" on="1"/>
      </contour>
      <contour>
        <pt x="345" y="135" on="1"/>
        <pt x="413" y="135" on="0"/>
        <pt x="491" y="211" on="0"/>
        <pt x="491" y="295" on="1"/>
        <pt x="491" y="403" on="1"/>
        <pt x="491" y="487" on="0"/>
        <pt x="413" y="563" on="0"/>
        <pt x="345" y="563" on="1"/>
        <pt x="234" y="563" on="1"/>
        <pt x="234" y="411" on="1"/>
        <pt x="353" y="411" on="1"/>
        <pt x="353" y="297" on="1"/>
        <pt x="234" y="297" on="1"/>
        <pt x="234" y="135" on="1"/>
      </contour>
    </TTGlyph>
    <TTGlyph name="Delta" xMin="49" yMin="0" xMax="635" yMax="698">
      <contour>
        <pt x="49" y="121" on="1"/>
        <pt x="248" y="698" on="1"/>
        <pt x="436" y="698" on="1"/>
        <pt x="635" y="121" on="1"/>
        <pt x="635" y="0" on="1"/>
        <pt x="49" y="0" on="1"/>
      </contour>
      <contour>
        <pt x="342" y="560" on="1"/>
        <pt x="337" y="560" on="1"/>
        <pt x="204" y="135" on="1"/>
        <pt x="475" y="135" on="1"/>
      </contour>
    </TTGlyph>
    <TTGlyph name="E" xMin="77" yMin="0" xMax="552" yMax="698">
      <contour>
        <pt x="77" y="0" on="1"/>
        <pt x="77" y="698" on="1"/>
        <pt x="552" y="698" on="1"/>
        <pt x="552" y="563" on="1"/>
        <pt x="229" y="563" on="1"/>
        <pt x="229" y="420" on="1"/>
        <pt x="506" y="420" on="1"/>
        <pt x="506" y="286" on="1"/>
        <pt x="229" y="286" on="1"/>
        <pt x="229" y="135" on="1"/>
        <pt x="552" y="135" on="1"/>
        <pt x="552" y="0" on="1"/>
      </contour>
    </TTGlyph>
    <TTGlyph name="Eacute" xMin="77" yMin="0" xMax="552" yMax="977">
      <component glyphName="E" x="0" y="0" flags="0x204"/>
      <component glyphName="acute.case" x="15" y="0" flags="0x4"/>
    </TTGlyph>
    <TTGlyph name="Ebreve" xMin="77" yMin="0" xMax="552" yMax="952">
      <component glyphName="E" x="0" y="0" flags="0x204"/>
      <component glyphName="breve.case" x="15" y="0" flags="0x4"/>
    </TTGlyph>
    <TTGlyph name="Ecaron" xMin="77" yMin="0" xMax="552" yMax="965">
      <component glyphName="E" x="0" y="0" flags="0x204"/>
      <component glyphName="caron.case" x="15" y="0" flags="0x4"/>
    </TTGlyph>
    <TTGlyph name="Ecircumflex" xMin="77" yMin="0" xMax="552" yMax="956">
      <component glyphName="E" x="0" y="0" flags="0x204"/>
      <component glyphName="circumflex.case" x="15" y="0" flags="0x4"/>
    </TTGlyph>
    <TTGlyph name="Edieresis" xMin="77" yMin="0" xMax="552" yMax="912">
      <component glyphName="E" x="0" y="0" flags="0x204"/>
      <component glyphName="dieresis.case" x="15" y="0" flags="0x4"/>
    </TTGlyph>
    <TTGlyph name="Edotaccent" xMin="77" yMin="0" xMax="552" yMax="921">
      <component glyphName="E" x="0" y="0" flags="0x204"/>
      <component glyphName="dotaccent.case" x="15" y="0" flags="0x4"/>
    </TTGlyph>
    <TTGlyph name="Egrave" xMin="77" yMin="0" xMax="552" yMax="977">
      <component glyphName="E" x="0" y="0" flags="0x204"/>
      <component glyphName="grave.case" x="15" y="0" flags="0x4"/>
    </TTGlyph>
    <TTGlyph name="Emacron" xMin="77" yMin="0" xMax="552" yMax="888">
      <component glyphName="E" x="0" y="0" flags="0x204"/>
      <component glyphName="macron.case" x="15" y="0" flags="0x4"/>
    </TTGlyph>
    <TTGlyph name="Eng" xMin="77" yMin="-200" xMax="647" yMax="698">
      <contour>
        <pt x="77" y="0" on="1"/>
        <pt x="77" y="698" on="1"/>
        <pt x="243" y="698" on="1"/>
        <pt x="434" y="368" on="1"/>
        <pt x="501" y="228" on="1"/>
        <pt x="504" y="228" on="1"/>
        <pt x="504" y="698" on="1"/>
        <pt x="647" y="698" on="1"/>
        <pt x="647" y="-56" on="1"/>
        <pt x="647" y="-126" on="0"/>
        <pt x="576" y="-200" on="0"/>
        <pt x="499" y="-200" on="1"/>
        <pt x="420" y="-200" on="1"/>
        <pt x="420" y="-85" on="1"/>
        <pt x="504" y="-85" on="1"/>
        <pt x="504" y="0" on="1"/>
        <pt x="481" y="0" on="1"/>
        <pt x="290" y="330" on="1"/>
        <pt x="223" y="470" on="1"/>
        <pt x="220" y="470" on="1"/>
        <pt x="220" y="0" on="1"/>
      </contour>
    </TTGlyph>
    <TTGlyph name="Eogonek" xMin="77" yMin="-212" xMax="585" yMax="698">
      <contour>
        <pt x="77" y="698" on="1"/>
        <pt x="552" y="698" on="1"/>
        <pt x="552" y="563" on="1"/>
        <pt x="229" y="563" on="1"/>
        <pt x="229" y="420" on="1"/>
        <pt x="506" y="420" on="1"/>
        <pt x="506" y="286" on="1"/>
        <pt x="229" y="286" on="1"/>
        <pt x="229" y="135" on="1"/>
        <pt x="552" y="135" on="1"/>
        <pt x="552" y="0" on="1"/>
        <pt x="515" y="-23" on="0"/>
        <pt x="471" y="-54" on="0"/>
        <pt x="447" y="-78" on="0"/>
        <pt x="439" y="-96" on="0"/>
        <pt x="439" y="-105" on="1"/>
        <pt x="439" y="-124" on="0"/>
        <pt x="462" y="-138" on="0"/>
        <pt x="477" y="-138" on="1"/>
        <pt x="495" y="-138" on="0"/>
        <pt x="521" y="-122" on="0"/>
        <pt x="532" y="-110" on="1"/>
        <pt x="585" y="-161" on="1"/>
        <pt x="572" y="-185" on="0"/>
        <pt x="511" y="-212" on="0"/>
        <pt x="463" y="-212" on="1"/>
        <pt x="438" y="-212" on="0"/>
        <pt x="393" y="-203" on="0"/>
        <pt x="359" y="-184" on="0"/>
        <pt x="339" y="-151" on="0"/>
        <pt x="339" y="-127" on="1"/>
        <pt x="339" y="-85" on="0"/>
        <pt x="402" y="-30" on="0"/>
        <pt x="458" y="-4" on="1"/>
        <pt x="457" y="0" on="1"/>
        <pt x="77" y="0" on="1"/>
      </contour>
    </TTGlyph>
    <TTGlyph name="Epsilon" xMin="77" yMin="0" xMax="552" yMax="698">
      <component glyphName="E" x="0" y="0" flags="0x204"/>
    </TTGlyph>
    <TTGlyph name="Epsilontonos" xMin="-15" yMin="0" xMax="648" yMax="816">
      <component glyphName="E" x="96" y="0" flags="0x4"/>
      <component glyphName="tonos.case" x="-272" y="0" flags="0x4"/>
    </TTGlyph>
    <TTGlyph name="Eta" xMin="77" yMin="0" xMax="647" yMax="698">
      <component glyphName="H" x="0" y="0" flags="0x204"/>
    </TTGlyph>
    <TTGlyph name="Etatonos" xMin="-15" yMin="0" xMax="743" yMax="816">
      <component glyphName="H" x="96" y="0" flags="0x4"/>
      <component glyphName="tonos.case" x="-272" y="0" flags="0x4"/>
    </TTGlyph>
    <TTGlyph name="Eth" xMin="7" yMin="0" xMax="652" yMax="698">
      <component glyphName="Dcroat" x="0" y="0" flags="0x204"/>
    </TTGlyph>
    <TTGlyph name="Euro" xMin="50" yMin="-12" xMax="598" yMax="710">
      <contour>
        <pt x="356" y="-12" on="1"/>
        <pt x="288" y="-12" on="0"/>
        <pt x="175" y="37" on="0"/>
        <pt x="94" y="129" on="0"/>
        <pt x="50" y="263" on="0"/>
        <pt x="50" y="349" on="1"/>
        <pt x="50" y="434" on="0"/>
        <pt x="94" y="569" on="0"/>
        <pt x="175" y="661" on="0"/>
        <pt x="288" y="710" on="0"/>
        <pt x="356" y="710" on="1"/>
        <pt x="406" y="710" on="0"/>
        <pt x="479" y="689" on="0"/>
        <pt x="533" y="656" on="0"/>
        <pt x="572" y="612" on="0"/>
        <pt x="588" y="590" on="1"/>
        <pt x="479" y="511" on="1"/>
        <pt x="457" y="550" on="0"/>
        <pt x="400" y="589" on="0"/>
        <pt x="356" y="589" on="1"/>
        <pt x="308" y="589" on="0"/>
        <pt x="233" y="527" on="0"/>
        <pt x="218" y="473" on="1"/>
        <pt x="448" y="473" on="1"/>
        <pt x="448" y="383" on="1"/>
        <pt x="210" y="383" on="1"/>
        <pt x="210" y="315" on="1"/>
        <pt x="448" y="315" on="1"/>
        <pt x="448" y="225" on="1"/>
        <pt x="218" y="225" on="1"/>
        <pt x="232" y="168" on="0"/>
        <pt x="306" y="109" on="0"/>
        <pt x="356" y="109" on="1"/>
        <pt x="441" y="109" on="0"/>
        <pt x="489" y="194" on="1"/>
        <pt x="598" y="114" on="1"/>
        <pt x="583" y="91" on="0"/>
        <pt x="542" y="46" on="0"/>
        <pt x="483" y="10" on="0"/>
        <pt x="406" y="-12" on="0"/>
      </contour>
    </TTGlyph>
    <TTGlyph name="F" xMin="77" yMin="0" xMax="540" yMax="698">
      <contour>
        <pt x="77" y="0" on="1"/>
        <pt x="77" y="698" on="1"/>
        <pt x="540" y="698" on="1"/>
        <pt x="540" y="563" on="1"/>
        <pt x="229" y="563" on="1"/>
        <pt x="229" y="420" on="1"/>
        <pt x="494" y="420" on="1"/>
        <pt x="494" y="286" on="1"/>
        <pt x="229" y="286" on="1"/>
        <pt x="229" y="0" on="1"/>
      </contour>
    </TTGlyph>
    <TTGlyph name="G" xMin="50" yMin="-12" xMax="648" yMax="710">
      <contour>
        <pt x="520" y="111" on="1"/>
        <pt x="515" y="111" on="1"/>
        <pt x="507" y="58" on="0"/>
        <pt x="415" y="-12" on="0"/>
        <pt x="336" y="-12" on="1"/>
        <pt x="276" y="-12" on="0"/>
        <pt x="172" y="34" on="0"/>
        <pt x="94" y="124" on="0"/>
        <pt x="50" y="258" on="0"/>
        <pt x="50" y="346" on="1"/>
        <pt x="50" y="434" on="0"/>
        <pt x="96" y="570" on="0"/>
        <pt x="179" y="662" on="0"/>
        <pt x="295" y="710" on="0"/>
        <pt x="366" y="710" on="1"/>
        <pt x="460" y="710" on="0"/>
        <pt x="596" y="629" on="0"/>
        <pt x="635" y="548" on="1"/>
        <pt x="511" y="477" on="1"/>
        <pt x="495" y="518" on="0"/>
        <pt x="427" y="575" on="0"/>
        <pt x="366" y="575" on="1"/>
        <pt x="295" y="575" on="0"/>
        <pt x="211" y="493" on="0"/>
        <pt x="211" y="405" on="1"/>
        <pt x="211" y="293" on="1"/>
        <pt x="211" y="206" on="0"/>
        <pt x="295" y="123" on="0"/>
        <pt x="366" y="123" on="1"/>
        <pt x="394" y="123" on="0"/>
        <pt x="444" y="136" on="0"/>
        <pt x="482" y="163" on="0"/>
        <pt x="503" y="201" on="0"/>
        <pt x="503" y="227" on="1"/>
        <pt x="503" y="262" on="1"/>
        <pt x="373" y="262" on="1"/>
        <pt x="373" y="389" on="1"/>
        <pt x="648" y="389" on="1"/>
        <pt x="648" y="0" on="1"/>
        <pt x="520" y="0" on="1"/>
      </contour>
    </TTGlyph>
    <TTGlyph name="Gamma" xMin="77" yMin="0" xMax="487" yMax="698">
      <component glyphName="uni0413" x="0" y="0" flags="0x204"/>
    </TTGlyph>
    <TTGlyph name="Gbreve" xMin="50" yMin="-12" xMax="648" yMax="952">
      <component glyphName="G" x="0" y="0" flags="0x204"/>
      <component glyphName="breve.case" x="58" y="0" flags="0x4"/>
    </TTGlyph>
    <TTGlyph name="Gcircumflex" xMin="50" yMin="-12" xMax="648" yMax="956">
      <component glyphName="G" x="0" y="0" flags="0x204"/>
      <component glyphName="circumflex.case" x="58" y="0" flags="0x4"/>
    </TTGlyph>
    <TTGlyph name="Gcommaaccent" xMin="50" yMin="-275" xMax="648" yMax="710">
      <component glyphName="G" x="0" y="0" flags="0x204"/>
      <component glyphName="uni0326" x="349" y="0" flags="0x4"/>
    </TTGlyph>
    <TTGlyph name="Gdotaccent" xMin="50" yMin="-12" xMax="648" yMax="921">
      <component glyphName="G" x="0" y="0" flags="0x204"/>
      <component glyphName="dotaccent.case" x="58" y="0" flags="0x4"/>
    </TTGlyph>
    <TTGlyph name="H" xMin="77" yMin="0" xMax="647" yMax="698">
      <contour>
        <pt x="495" y="286" on="1"/>
        <pt x="229" y="286" on="1"/>
        <pt x="229" y="0" on="1"/>
        <pt x="77" y="0" on="1"/>
        <pt x="77" y="698" on="1"/>
        <pt x="229" y="698" on="1"/>
        <pt x="229" y="420" on="1"/>
        <pt x="495" y="420" on="1"/>
        <pt x="495" y="698" on="1"/>
        <pt x="647" y="698" on="1"/>
        <pt x="647" y="0" on="1"/>
        <pt x="495" y="0" on="1"/>
      </contour>
    </TTGlyph>
    <TTGlyph name="Hbar" xMin="8" yMin="0" xMax="726" yMax="698">
      <contour>
        <pt x="500" y="286" on="1"/>
        <pt x="234" y="286" on="1"/>
        <pt x="234" y="0" on="1"/>
        <pt x="82" y="0" on="1"/>
        <pt x="82" y="506" on="1"/>
        <pt x="8" y="506" on="1"/>
        <pt x="8" y="620" on="1"/>
        <pt x="82" y="620" on="1"/>
        <pt x="82" y="698" on="1"/>
        <pt x="234" y="698" on="1"/>
        <pt x="234" y="620" on="1"/>
        <pt x="500" y="620" on="1"/>
        <pt x="500" y="698" on="1"/>
        <pt x="652" y="698" on="1"/>
        <pt x="652" y="620" on="1"/>
        <pt x="726" y="620" on="1"/>
        <pt x="726" y="506" on="1"/>
        <pt x="652" y="506" on="1"/>
        <pt x="652" y="0" on="1"/>
        <pt x="500" y="0" on="1"/>
      </contour>
      <contour>
        <pt x="500" y="420" on="1"/>
        <pt x="500" y="506" on="1"/>
        <pt x="234" y="506" on="1"/>
        <pt x="234" y="420" on="1"/>
      </contour>
    </TTGlyph>
    <TTGlyph name="Hcircumflex" xMin="77" yMin="0" xMax="647" yMax="956">
      <component glyphName="H" x="0" y="0" flags="0x204"/>
      <component glyphName="circumflex.case" x="62" y="0" flags="0x4"/>
    </TTGlyph>
    <TTGlyph name="I" xMin="50" yMin="0" xMax="382" yMax="698">
      <contour>
        <pt x="50" y="0" on="1"/>
        <pt x="50" y="121" on="1"/>
        <pt x="140" y="121" on="1"/>
        <pt x="140" y="577" on="1"/>
        <pt x="50" y="577" on="1"/>
        <pt x="50" y="698" on="1"/>
        <pt x="382" y="698" on="1"/>
        <pt x="382" y="577" on="1"/>
        <pt x="292" y="577" on="1"/>
        <pt x="292" y="121" on="1"/>
        <pt x="382" y="121" on="1"/>
        <pt x="382" y="0" on="1"/>
      </contour>
    </TTGlyph>
    <TTGlyph name="IJ" xMin="73" yMin="-11" xMax="583" yMax="698">
      <contour>
        <pt x="583" y="698" on="1"/>
        <pt x="583" y="210" on="1"/>
        <pt x="583" y="159" on="0"/>
        <pt x="547" y="77" on="0"/>
        <pt x="480" y="20" on="0"/>
        <pt x="387" y="-11" on="0"/>
        <pt x="330" y="-11" on="1"/>
        <pt x="219" y="-11" on="0"/>
        <pt x="95" y="97" on="0"/>
        <pt x="80" y="185" on="1"/>
        <pt x="222" y="213" on="1"/>
        <pt x="230" y="168" on="0"/>
        <pt x="286" y="122" on="0"/>
        <pt x="329" y="122" on="1"/>
        <pt x="348" y="122" on="0"/>
        <pt x="385" y="133" on="0"/>
        <pt x="414" y="156" on="0"/>
        <pt x="431" y="193" on="0"/>
        <pt x="431" y="219" on="1"/>
        <pt x="431" y="576" on="1"/>
        <pt x="343" y="576" on="1"/>
        <pt x="343" y="698" on="1"/>
      </contour>
      <contour>
        <pt x="73" y="698" on="1"/>
        <pt x="225" y="698" on="1"/>
        <pt x="225" y="309" on="1"/>
        <pt x="73" y="309" on="1"/>
      </contour>
    </TTGlyph>
    <TTGlyph name="IJacute" xMin="73" yMin="-11" xMax="615" yMax="977">
      <component glyphName="IJ" x="0" y="0" flags="0x204"/>
      <component glyphName="acute.case" x="-148" y="0" flags="0x4"/>
      <component glyphName="acute.case" x="165" y="0" flags="0x4"/>
    </TTGlyph>
    <TTGlyph name="Iacute" xMin="50" yMin="0" xMax="382" yMax="977">
      <component glyphName="I" x="0" y="0" flags="0x204"/>
      <component glyphName="acute.case" x="-83" y="0" flags="0x4"/>
    </TTGlyph>
    <TTGlyph name="Ibreve" xMin="27" yMin="0" xMax="407" yMax="952">
      <component glyphName="I" x="0" y="0" flags="0x204"/>
      <component glyphName="breve.case" x="-83" y="0" flags="0x4"/>
    </TTGlyph>
    <TTGlyph name="Icircumflex" xMin="23" yMin="0" xMax="411" yMax="956">
      <component glyphName="I" x="0" y="0" flags="0x204"/>
      <component glyphName="circumflex.case" x="-83" y="0" flags="0x4"/>
    </TTGlyph>
    <TTGlyph name="Idieresis" xMin="27" yMin="0" xMax="407" yMax="912">
      <component glyphName="I" x="0" y="0" flags="0x204"/>
      <component glyphName="dieresis.case" x="-83" y="0" flags="0x4"/>
    </TTGlyph>
    <TTGlyph name="Idotaccent" xMin="50" yMin="0" xMax="382" yMax="921">
      <component glyphName="I" x="0" y="0" flags="0x204"/>
      <component glyphName="dotaccent.case" x="-83" y="0" flags="0x4"/>
    </TTGlyph>
    <TTGlyph name="Igrave" xMin="50" yMin="0" xMax="382" yMax="977">
      <component glyphName="I" x="0" y="0" flags="0x204"/>
      <component glyphName="grave.case" x="-83" y="0" flags="0x4"/>
    </TTGlyph>
    <TTGlyph name="Imacron" xMin="50" yMin="0" xMax="382" yMax="888">
      <component glyphName="I" x="0" y="0" flags="0x204"/>
      <component glyphName="macron.case" x="-83" y="0" flags="0x4"/>
    </TTGlyph>
    <TTGlyph name="Iogonek" xMin="50" yMin="-212" xMax="415" yMax="698">
      <contour>
        <pt x="50" y="121" on="1"/>
        <pt x="140" y="121" on="1"/>
        <pt x="140" y="577" on="1"/>
        <pt x="50" y="577" on="1"/>
        <pt x="50" y="698" on="1"/>
        <pt x="383" y="698" on="1"/>
        <pt x="383" y="577" on="1"/>
        <pt x="292" y="577" on="1"/>
        <pt x="292" y="121" on="1"/>
        <pt x="383" y="121" on="1"/>
        <pt x="383" y="0" on="1"/>
        <pt x="346" y="-23" on="0"/>
        <pt x="301" y="-54" on="0"/>
        <pt x="277" y="-78" on="0"/>
        <pt x="269" y="-96" on="0"/>
        <pt x="269" y="-105" on="1"/>
        <pt x="269" y="-124" on="0"/>
        <pt x="292" y="-138" on="0"/>
        <pt x="307" y="-138" on="1"/>
        <pt x="325" y="-138" on="0"/>
        <pt x="351" y="-122" on="0"/>
        <pt x="362" y="-110" on="1"/>
        <pt x="415" y="-161" on="1"/>
        <pt x="402" y="-185" on="0"/>
        <pt x="341" y="-212" on="0"/>
        <pt x="293" y="-212" on="1"/>
        <pt x="268" y="-212" on="0"/>
        <pt x="223" y="-203" on="0"/>
        <pt x="189" y="-184" on="0"/>
        <pt x="169" y="-151" on="0"/>
        <pt x="169" y="-127" on="1"/>
        <pt x="169" y="-85" on="0"/>
        <pt x="232" y="-30" on="0"/>
        <pt x="288" y="-4" on="1"/>
        <pt x="287" y="0" on="1"/>
        <pt x="50" y="0" on="1"/>
      </contour>
    </TTGlyph>
    <TTGlyph name="Iota" xMin="50" yMin="0" xMax="382" yMax="698">
      <component glyphName="I" x="0" y="0" flags="0x204"/>
    </TTGlyph>
    <TTGlyph name="Iotadieresis" xMin="27" yMin="0" xMax="407" yMax="912">
      <component glyphName="I" x="0" y="0" flags="0x204"/>
      <component glyphName="dieresis.case" x="-83" y="0" flags="0x4"/>
    </TTGlyph>
    <TTGlyph name="Iotatonos" xMin="-15" yMin="0" xMax="505" yMax="816">
      <component glyphName="I" x="123" y="0" flags="0x4"/>
      <component glyphName="tonos.case" x="-272" y="0" flags="0x4"/>
    </TTGlyph>
    <TTGlyph name="Itilde" xMin="27" yMin="0" xMax="407" yMax="911">
      <component glyphName="I" x="0" y="0" flags="0x204"/>
      <component glyphName="tilde.case" x="-83" y="0" flags="0x4"/>
    </TTGlyph>
    <TTGlyph name="J" xMin="25" yMin="-11" xMax="486" yMax="698">
      <contour>
        <pt x="486" y="698" on="1"/>
        <pt x="486" y="202" on="1"/>
        <pt x="486" y="154" on="0"/>
        <pt x="455" y="75" on="0"/>
        <pt x="395" y="20" on="0"/>
        <pt x="310" y="-11" on="0"/>
        <pt x="256" y="-11" on="1"/>
        <pt x="204" y="-11" on="0"/>
        <pt x="125" y="17" on="0"/>
        <pt x="68" y="69" on="0"/>
        <pt x="32" y="141" on="0"/>
        <pt x="25" y="185" on="1"/>
        <pt x="167" y="213" on="1"/>
        <pt x="184" y="122" on="0"/>
        <pt x="254" y="122" on="1"/>
        <pt x="287" y="122" on="0"/>
        <pt x="334" y="164" on="0"/>
        <pt x="334" y="209" on="1"/>
        <pt x="334" y="576" on="1"/>
        <pt x="122" y="576" on="1"/>
        <pt x="122" y="698" on="1"/>
      </contour>
    </TTGlyph>
    <TTGlyph name="Jacute" xMin="25" yMin="-11" xMax="486" yMax="977">
      <component glyphName="J" x="0" y="0" flags="0x204"/>
      <component glyphName="acute.case" x="3" y="0" flags="0x4"/>
    </TTGlyph>
    <TTGlyph name="Jcircumflex" xMin="25" yMin="-11" xMax="497" yMax="956">
      <component glyphName="J" x="0" y="0" flags="0x204"/>
      <component glyphName="circumflex.case" x="3" y="0" flags="0x4"/>
    </TTGlyph>
    <TTGlyph name="K" xMin="77" yMin="0" xMax="684" yMax="698">
      <contour>
        <pt x="320" y="304" on="1"/>
        <pt x="229" y="194" on="1"/>
        <pt x="229" y="0" on="1"/>
        <pt x="77" y="0" on="1"/>
        <pt x="77" y="698" on="1"/>
        <pt x="229" y="698" on="1"/>
        <pt x="229" y="366" on="1"/>
        <pt x="235" y="366" on="1"/>
        <pt x="334" y="501" on="1"/>
        <pt x="491" y="698" on="1"/>
        <pt x="663" y="698" on="1"/>
        <pt x="428" y="411" on="1"/>
        <pt x="684" y="0" on="1"/>
        <pt x="505" y="0" on="1"/>
      </contour>
    </TTGlyph>
    <TTGlyph name="Kappa" xMin="77" yMin="0" xMax="684" yMax="698">
      <component glyphName="K" x="0" y="0" flags="0x204"/>
    </TTGlyph>
    <TTGlyph name="Kcommaaccent" xMin="77" yMin="-275" xMax="684" yMax="698">
      <component glyphName="K" x="0" y="0" flags="0x204"/>
      <component glyphName="uni0326" x="365" y="0" flags="0x4"/>
    </TTGlyph>
    <TTGlyph name="L" xMin="77" yMin="0" xMax="495" yMax="698">
      <contour>
        <pt x="77" y="0" on="1"/>
        <pt x="77" y="698" on="1"/>
        <pt x="229" y="698" on="1"/>
        <pt x="229" y="135" on="1"/>
        <pt x="495" y="135" on="1"/>
        <pt x="495" y="0" on="1"/>
      </contour>
    </TTGlyph>
    <TTGlyph name="Lacute" xMin="77" yMin="0" xMax="495" yMax="977">
      <component glyphName="L" x="0" y="0" flags="0x204"/>
      <component glyphName="acute.case" x="-146" y="0" flags="0x4"/>
    </TTGlyph>
    <TTGlyph name="Lambda" xMin="20" yMin="0" xMax="651" yMax="698">
      <contour>
        <pt x="426" y="698" on="1"/>
        <pt x="651" y="0" on="1"/>
        <pt x="493" y="0" on="1"/>
        <pt x="389" y="335" on="1"/>
        <pt x="334" y="554" on="1"/>
        <pt x="331" y="554" on="1"/>
        <pt x="278" y="335" on="1"/>
        <pt x="174" y="0" on="1"/>
        <pt x="20" y="0" on="1"/>
        <pt x="247" y="698" on="1"/>
      </contour>
    </TTGlyph>
    <TTGlyph name="Lcaron" xMin="77" yMin="0" xMax="495" yMax="740">
      <component glyphName="L" x="0" y="0" flags="0x204"/>
      <component glyphName="uni02BC" x="164" y="0" flags="0x4"/>
    </TTGlyph>
    <TTGlyph name="Lcommaaccent" xMin="77" yMin="-275" xMax="495" yMax="698">
      <component glyphName="L" x="0" y="0" flags="0x204"/>
      <component glyphName="uni0326" x="286" y="0" flags="0x4"/>
    </TTGlyph>
    <TTGlyph name="Ldot" xMin="77" yMin="0" xMax="503" yMax="698">
      <component glyphName="L" x="0" y="0" flags="0x204"/>
      <component glyphName="dotaccent" x="114" y="-269" flags="0x4"/>
    </TTGlyph>
    <TTGlyph name="Lslash" xMin="-7" yMin="0" xMax="500" yMax="698">
      <contour>
        <pt x="500" y="0" on="1"/>
        <pt x="82" y="0" on="1"/>
        <pt x="82" y="243" on="1"/>
        <pt x="-7" y="214" on="1"/>
        <pt x="-7" y="327" on="1"/>
        <pt x="82" y="356" on="1"/>
        <pt x="82" y="698" on="1"/>
        <pt x="234" y="698" on="1"/>
        <pt x="234" y="404" on="1"/>
        <pt x="392" y="455" on="1"/>
        <pt x="392" y="342" on="1"/>
        <pt x="234" y="291" on="1"/>
        <pt x="234" y="135" on="1"/>
        <pt x="500" y="135" on="1"/>
      </contour>
    </TTGlyph>
    <TTGlyph name="M" xMin="77" yMin="0" xMax="742" yMax="698">
      <contour>
        <pt x="599" y="458" on="1"/>
        <pt x="596" y="458" on="1"/>
        <pt x="545" y="356" on="1"/>
        <pt x="409" y="109" on="1"/>
        <pt x="276" y="355" on="1"/>
        <pt x="223" y="465" on="1"/>
        <pt x="220" y="465" on="1"/>
        <pt x="220" y="0" on="1"/>
        <pt x="77" y="0" on="1"/>
        <pt x="77" y="698" on="1"/>
        <pt x="238" y="698" on="1"/>
        <pt x="409" y="371" on="1"/>
        <pt x="411" y="371" on="1"/>
        <pt x="580" y="698" on="1"/>
        <pt x="742" y="698" on="1"/>
        <pt x="742" y="0" on="1"/>
        <pt x="599" y="0" on="1"/>
      </contour>
    </TTGlyph>
    <TTGlyph name="Mu" xMin="77" yMin="0" xMax="742" yMax="698">
      <component glyphName="M" x="0" y="0" flags="0x204"/>
    </TTGlyph>
    <TTGlyph name="N" xMin="77" yMin="0" xMax="647" yMax="698">
      <contour>
        <pt x="290" y="330" on="1"/>
        <pt x="223" y="470" on="1"/>
        <pt x="220" y="470" on="1"/>
        <pt x="220" y="0" on="1"/>
        <pt x="77" y="0" on="1"/>
        <pt x="77" y="698" on="1"/>
        <pt x="243" y="698" on="1"/>
        <pt x="434" y="368" on="1"/>
        <pt x="501" y="228" on="1"/>
        <pt x="504" y="228" on="1"/>
        <pt x="504" y="698" on="1"/>
        <pt x="647" y="698" on="1"/>
        <pt x="647" y="0" on="1"/>
        <pt x="481" y="0" on="1"/>
      </contour>
    </TTGlyph>
    <TTGlyph name="Nacute" xMin="77" yMin="0" xMax="647" yMax="977">
      <component glyphName="N" x="0" y="0" flags="0x204"/>
      <component glyphName="acute.case" x="61" y="0" flags="0x4"/>
    </TTGlyph>
    <TTGlyph name="Ncaron" xMin="77" yMin="0" xMax="647" yMax="965">
      <component glyphName="N" x="0" y="0" flags="0x204"/>
      <component glyphName="caron.case" x="61" y="0" flags="0x4"/>
    </TTGlyph>
    <TTGlyph name="Ncommaaccent" xMin="77" yMin="-275" xMax="647" yMax="698">
      <component glyphName="N" x="0" y="0" flags="0x204"/>
      <component glyphName="uni0326" x="361" y="0" flags="0x4"/>
    </TTGlyph>
    <TTGlyph name="Ntilde" xMin="77" yMin="0" xMax="647" yMax="911">
      <component glyphName="N" x="0" y="0" flags="0x204"/>
      <component glyphName="tilde.case" x="61" y="0" flags="0x4"/>
    </TTGlyph>
    <TTGlyph name="Nu" xMin="77" yMin="0" xMax="647" yMax="698">
      <component glyphName="N" x="0" y="0" flags="0x204"/>
    </TTGlyph>
    <TTGlyph name="O" xMin="50" yMin="-12" xMax="664" yMax="710">
      <contour>
        <pt x="357" y="-12" on="1"/>
        <pt x="288" y="-12" on="0"/>
        <pt x="174" y="34" on="0"/>
        <pt x="94" y="125" on="0"/>
        <pt x="50" y="260" on="0"/>
        <pt x="50" y="349" on="1"/>
        <pt x="50" y="438" on="0"/>
        <pt x="94" y="573" on="0"/>
        <pt x="174" y="664" on="0"/>
        <pt x="288" y="710" on="0"/>
        <pt x="357" y="710" on="1"/>
        <pt x="426" y="710" on="0"/>
        <pt x="540" y="664" on="0"/>
        <pt x="620" y="573" on="0"/>
        <pt x="664" y="438" on="0"/>
        <pt x="664" y="349" on="1"/>
        <pt x="664" y="260" on="0"/>
        <pt x="620" y="125" on="0"/>
        <pt x="540" y="34" on="0"/>
        <pt x="426" y="-12" on="0"/>
      </contour>
      <contour>
        <pt x="357" y="123" on="1"/>
        <pt x="426" y="123" on="0"/>
        <pt x="503" y="213" on="0"/>
        <pt x="503" y="297" on="1"/>
        <pt x="503" y="401" on="1"/>
        <pt x="503" y="485" on="0"/>
        <pt x="426" y="575" on="0"/>
        <pt x="357" y="575" on="1"/>
        <pt x="288" y="575" on="0"/>
        <pt x="211" y="485" on="0"/>
        <pt x="211" y="401" on="1"/>
        <pt x="211" y="297" on="1"/>
        <pt x="211" y="213" on="0"/>
        <pt x="288" y="123" on="0"/>
      </contour>
    </TTGlyph>
    <TTGlyph name="OE" xMin="50" yMin="-12" xMax="943" yMax="710">
      <contour>
        <pt x="472" y="0" on="1"/>
        <pt x="450" y="-6" on="0"/>
        <pt x="391" y="-12" on="0"/>
        <pt x="357" y="-12" on="1"/>
        <pt x="288" y="-12" on="0"/>
        <pt x="174" y="34" on="0"/>
        <pt x="94" y="125" on="0"/>
        <pt x="50" y="260" on="0"/>
        <pt x="50" y="349" on="1"/>
        <pt x="50" y="438" on="0"/>
        <pt x="94" y="573" on="0"/>
        <pt x="174" y="664" on="0"/>
        <pt x="288" y="710" on="0"/>
        <pt x="357" y="710" on="1"/>
        <pt x="424" y="710" on="0"/>
        <pt x="480" y="698" on="1"/>
        <pt x="943" y="698" on="1"/>
        <pt x="943" y="563" on="1"/>
        <pt x="619" y="563" on="1"/>
        <pt x="619" y="420" on="1"/>
        <pt x="897" y="420" on="1"/>
        <pt x="897" y="286" on="1"/>
        <pt x="619" y="286" on="1"/>
        <pt x="619" y="135" on="1"/>
        <pt x="943" y="135" on="1"/>
        <pt x="943" y="0" on="1"/>
      </contour>
      <contour>
        <pt x="357" y="123" on="1"/>
        <pt x="416" y="123" on="0"/>
        <pt x="467" y="132" on="1"/>
        <pt x="467" y="565" on="1"/>
        <pt x="441" y="570" on="0"/>
        <pt x="386" y="575" on="0"/>
        <pt x="357" y="575" on="1"/>
        <pt x="289" y="575" on="0"/>
        <pt x="211" y="485" on="0"/>
        <pt x="211" y="401" on="1"/>
        <pt x="211" y="297" on="1"/>
        <pt x="211" y="213" on="0"/>
        <pt x="289" y="123" on="0"/>
      </contour>
    </TTGlyph>
    <TTGlyph name="Oacute" xMin="50" yMin="-12" xMax="664" yMax="977">
      <component glyphName="O" x="0" y="0" flags="0x204"/>
      <component glyphName="acute.case" x="57" y="0" flags="0x4"/>
    </TTGlyph>
    <TTGlyph name="Obreve" xMin="50" yMin="-12" xMax="664" yMax="952">
      <component glyphName="O" x="0" y="0" flags="0x204"/>
      <component glyphName="breve.case" x="57" y="0" flags="0x4"/>
    </TTGlyph>
    <TTGlyph name="Ocircumflex" xMin="50" yMin="-12" xMax="664" yMax="956">
      <component glyphName="O" x="0" y="0" flags="0x204"/>
      <component glyphName="circumflex.case" x="57" y="0" flags="0x4"/>
    </TTGlyph>
    <TTGlyph name="Odieresis" xMin="50" yMin="-12" xMax="664" yMax="912">
      <component glyphName="O" x="0" y="0" flags="0x204"/>
      <component glyphName="dieresis.case" x="57" y="0" flags="0x4"/>
    </TTGlyph>
    <TTGlyph name="Ograve" xMin="50" yMin="-12" xMax="664" yMax="977">
      <component glyphName="O" x="0" y="0" flags="0x204"/>
      <component glyphName="grave.case" x="57" y="0" flags="0x4"/>
    </TTGlyph>
    <TTGlyph name="Ohorn" xMin="50" yMin="-12" xMax="685" yMax="804">
      <contour>
        <pt x="685" y="804" on="1"/>
        <pt x="685" y="710" on="1"/>
        <pt x="685" y="661" on="0"/>
        <pt x="645" y="610" on="0"/>
        <pt x="587" y="609" on="1"/>
        <pt x="624" y="564" on="0"/>
        <pt x="664" y="434" on="0"/>
        <pt x="664" y="349" on="1"/>
        <pt x="664" y="260" on="0"/>
        <pt x="620" y="125" on="0"/>
        <pt x="540" y="34" on="0"/>
        <pt x="426" y="-12" on="0"/>
        <pt x="357" y="-12" on="1"/>
        <pt x="288" y="-12" on="0"/>
        <pt x="174" y="34" on="0"/>
        <pt x="94" y="125" on="0"/>
        <pt x="50" y="260" on="0"/>
        <pt x="50" y="349" on="1"/>
        <pt x="50" y="438" on="0"/>
        <pt x="94" y="573" on="0"/>
        <pt x="174" y="664" on="0"/>
        <pt x="288" y="710" on="0"/>
        <pt x="357" y="710" on="1"/>
        <pt x="408" y="710" on="0"/>
        <pt x="450" y="698" on="1"/>
        <pt x="561" y="698" on="1"/>
        <pt x="561" y="804" on="1"/>
      </contour>
      <contour>
        <pt x="357" y="123" on="1"/>
        <pt x="426" y="123" on="0"/>
        <pt x="503" y="213" on="0"/>
        <pt x="503" y="297" on="1"/>
        <pt x="503" y="401" on="1"/>
        <pt x="503" y="485" on="0"/>
        <pt x="426" y="575" on="0"/>
        <pt x="357" y="575" on="1"/>
        <pt x="288" y="575" on="0"/>
        <pt x="211" y="485" on="0"/>
        <pt x="211" y="401" on="1"/>
        <pt x="211" y="297" on="1"/>
        <pt x="211" y="213" on="0"/>
        <pt x="288" y="123" on="0"/>
      </contour>
    </TTGlyph>
    <TTGlyph name="Ohungarumlaut" xMin="50" yMin="-12" xMax="664" yMax="973">
      <component glyphName="O" x="0" y="0" flags="0x204"/>
      <component glyphName="hungarumlaut.case" x="57" y="0" flags="0x4"/>
    </TTGlyph>
    <TTGlyph name="Omacron" xMin="50" yMin="-12" xMax="664" yMax="888">
      <component glyphName="O" x="0" y="0" flags="0x204"/>
      <component glyphName="macron.case" x="57" y="0" flags="0x4"/>
    </TTGlyph>
    <TTGlyph name="Omega" xMin="50" yMin="0" xMax="674" yMax="710">
      <contour>
        <pt x="50" y="134" on="1"/>
        <pt x="209" y="134" on="1"/>
        <pt x="209" y="144" on="1"/>
        <pt x="134" y="178" on="0"/>
        <pt x="55" y="303" on="0"/>
        <pt x="55" y="400" on="1"/>
        <pt x="55" y="465" on="0"/>
        <pt x="96" y="578" on="0"/>
        <pt x="175" y="662" on="0"/>
        <pt x="289" y="710" on="0"/>
        <pt x="362" y="710" on="1"/>
        <pt x="435" y="710" on="0"/>
        <pt x="549" y="662" on="0"/>
        <pt x="628" y="578" on="0"/>
        <pt x="669" y="465" on="0"/>
        <pt x="669" y="400" on="1"/>
        <pt x="669" y="303" on="0"/>
        <pt x="590" y="178" on="0"/>
        <pt x="515" y="144" on="1"/>
        <pt x="515" y="134" on="1"/>
        <pt x="674" y="134" on="1"/>
        <pt x="674" y="0" on="1"/>
        <pt x="405" y="0" on="1"/>
        <pt x="405" y="205" on="1"/>
        <pt x="428" y="212" on="0"/>
        <pt x="467" y="241" on="0"/>
        <pt x="494" y="280" on="0"/>
        <pt x="509" y="326" on="0"/>
        <pt x="509" y="350" on="1"/>
        <pt x="509" y="431" on="1"/>
        <pt x="509" y="459" on="0"/>
        <pt x="489" y="511" on="0"/>
        <pt x="451" y="551" on="0"/>
        <pt x="396" y="575" on="0"/>
        <pt x="362" y="575" on="1"/>
        <pt x="328" y="575" on="0"/>
        <pt x="273" y="551" on="0"/>
        <pt x="235" y="511" on="0"/>
        <pt x="215" y="459" on="0"/>
        <pt x="215" y="431" on="1"/>
        <pt x="215" y="350" on="1"/>
        <pt x="215" y="326" on="0"/>
        <pt x="230" y="280" on="0"/>
        <pt x="257" y="241" on="0"/>
        <pt x="296" y="212" on="0"/>
        <pt x="319" y="205" on="1"/>
        <pt x="319" y="0" on="1"/>
        <pt x="50" y="0" on="1"/>
      </contour>
    </TTGlyph>
    <TTGlyph name="Omegatonos" xMin="-15" yMin="0" xMax="717" yMax="816">
      <component glyphName="Omega" x="43" y="0" flags="0x4"/>
      <component glyphName="tonos.case" x="-272" y="0" flags="0x4"/>
    </TTGlyph>
    <TTGlyph name="Omicron" xMin="50" yMin="-12" xMax="664" yMax="710">
      <component glyphName="O" x="0" y="0" flags="0x204"/>
    </TTGlyph>
    <TTGlyph name="Omicrontonos" xMin="-15" yMin="-12" xMax="706" yMax="816">
      <component glyphName="O" x="42" y="0" flags="0x4"/>
      <component glyphName="tonos.case" x="-272" y="0" flags="0x4"/>
    </TTGlyph>
    <TTGlyph name="Oslash" xMin="50" yMin="-56" xMax="664" yMax="754">
      <contour>
        <pt x="357" y="-12" on="1"/>
        <pt x="273" y="-12" on="0"/>
        <pt x="207" y="22" on="1"/>
        <pt x="154" y="-56" on="1"/>
        <pt x="62" y="3" on="1"/>
        <pt x="123" y="93" on="1"/>
        <pt x="88" y="138" on="0"/>
        <pt x="50" y="266" on="0"/>
        <pt x="50" y="349" on="1"/>
        <pt x="50" y="438" on="0"/>
        <pt x="94" y="573" on="0"/>
        <pt x="174" y="664" on="0"/>
        <pt x="288" y="710" on="0"/>
        <pt x="357" y="710" on="1"/>
        <pt x="441" y="710" on="0"/>
        <pt x="507" y="676" on="1"/>
        <pt x="560" y="754" on="1"/>
        <pt x="652" y="695" on="1"/>
        <pt x="591" y="605" on="1"/>
        <pt x="626" y="560" on="0"/>
        <pt x="664" y="432" on="0"/>
        <pt x="664" y="349" on="1"/>
        <pt x="664" y="260" on="0"/>
        <pt x="620" y="125" on="0"/>
        <pt x="540" y="34" on="0"/>
        <pt x="426" y="-12" on="0"/>
      </contour>
      <contour>
        <pt x="204" y="294" on="1"/>
        <pt x="204" y="247" on="0"/>
        <pt x="216" y="211" on="1"/>
        <pt x="439" y="565" on="1"/>
        <pt x="406" y="586" on="0"/>
        <pt x="357" y="586" on="1"/>
        <pt x="285" y="586" on="0"/>
        <pt x="204" y="492" on="0"/>
        <pt x="204" y="404" on="1"/>
      </contour>
      <contour>
        <pt x="510" y="404" on="1"/>
        <pt x="510" y="451" on="0"/>
        <pt x="498" y="487" on="1"/>
        <pt x="275" y="133" on="1"/>
        <pt x="308" y="112" on="0"/>
        <pt x="357" y="112" on="1"/>
        <pt x="429" y="112" on="0"/>
        <pt x="510" y="206" on="0"/>
        <pt x="510" y="294" on="1"/>
      </contour>
    </TTGlyph>
    <TTGlyph name="Oslashacute" xMin="50" yMin="-56" xMax="664" yMax="977">
      <component glyphName="Oslash" x="0" y="0" flags="0x204"/>
      <component glyphName="acute.case" x="57" y="0" flags="0x4"/>
    </TTGlyph>
    <TTGlyph name="Otilde" xMin="50" yMin="-12" xMax="664" yMax="911">
      <component glyphName="O" x="0" y="0" flags="0x204"/>
      <component glyphName="tilde.case" x="57" y="0" flags="0x4"/>
    </TTGlyph>
    <TTGlyph name="P" xMin="77" yMin="0" xMax="619" yMax="698">
      <contour>
        <pt x="77" y="0" on="1"/>
        <pt x="77" y="698" on="1"/>
        <pt x="407" y="698" on="1"/>
        <pt x="456" y="698" on="0"/>
        <pt x="534" y="665" on="0"/>
        <pt x="589" y="607" on="0"/>
        <pt x="619" y="524" on="0"/>
        <pt x="619" y="475" on="1"/>
        <pt x="619" y="425" on="0"/>
        <pt x="589" y="343" on="0"/>
        <pt x="534" y="285" on="0"/>
        <pt x="456" y="252" on="0"/>
        <pt x="407" y="252" on="1"/>
        <pt x="229" y="252" on="1"/>
        <pt x="229" y="0" on="1"/>
      </contour>
      <contour>
        <pt x="229" y="384" on="1"/>
        <pt x="389" y="384" on="1"/>
        <pt x="423" y="384" on="0"/>
        <pt x="462" y="419" on="0"/>
        <pt x="462" y="453" on="1"/>
        <pt x="462" y="497" on="1"/>
        <pt x="462" y="531" on="0"/>
        <pt x="423" y="566" on="0"/>
        <pt x="389" y="566" on="1"/>
        <pt x="229" y="566" on="1"/>
      </contour>
    </TTGlyph>
    <TTGlyph name="Phi" xMin="40" yMin="-44" xMax="808" yMax="740">
      <contour>
        <pt x="347" y="32" on="1"/>
        <pt x="337" y="32" on="1"/>
        <pt x="269" y="32" on="0"/>
        <pt x="159" y="77" on="0"/>
        <pt x="82" y="161" on="0"/>
        <pt x="40" y="279" on="0"/>
        <pt x="40" y="353" on="1"/>
        <pt x="40" y="427" on="0"/>
        <pt x="82" y="547" on="0"/>
        <pt x="159" y="631" on="0"/>
        <pt x="269" y="676" on="0"/>
        <pt x="337" y="676" on="1"/>
        <pt x="347" y="676" on="1"/>
        <pt x="347" y="740" on="1"/>
        <pt x="501" y="740" on="1"/>
        <pt x="501" y="676" on="1"/>
        <pt x="511" y="676" on="1"/>
        <pt x="579" y="676" on="0"/>
        <pt x="689" y="631" on="0"/>
        <pt x="766" y="547" on="0"/>
        <pt x="808" y="428" on="0"/>
        <pt x="808" y="355" on="1"/>
        <pt x="808" y="281" on="0"/>
        <pt x="766" y="161" on="0"/>
        <pt x="689" y="77" on="0"/>
        <pt x="579" y="32" on="0"/>
        <pt x="511" y="32" on="1"/>
        <pt x="501" y="32" on="1"/>
        <pt x="501" y="-44" on="1"/>
        <pt x="347" y="-44" on="1"/>
      </contour>
      <contour>
        <pt x="350" y="551" on="1"/>
        <pt x="340" y="551" on="1"/>
        <pt x="312" y="551" on="0"/>
        <pt x="260" y="528" on="0"/>
        <pt x="220" y="486" on="0"/>
        <pt x="196" y="424" on="0"/>
        <pt x="196" y="385" on="1"/>
        <pt x="196" y="323" on="1"/>
        <pt x="196" y="284" on="0"/>
        <pt x="220" y="222" on="0"/>
        <pt x="260" y="180" on="0"/>
        <pt x="312" y="157" on="0"/>
        <pt x="340" y="157" on="1"/>
        <pt x="350" y="157" on="1"/>
      </contour>
      <contour>
        <pt x="508" y="157" on="1"/>
        <pt x="536" y="157" on="0"/>
        <pt x="588" y="180" on="0"/>
        <pt x="628" y="222" on="0"/>
        <pt x="652" y="284" on="0"/>
        <pt x="652" y="323" on="1"/>
        <pt x="652" y="385" on="1"/>
        <pt x="652" y="424" on="0"/>
        <pt x="628" y="486" on="0"/>
        <pt x="588" y="528" on="0"/>
        <pt x="536" y="551" on="0"/>
        <pt x="508" y="551" on="1"/>
        <pt x="498" y="551" on="1"/>
        <pt x="498" y="157" on="1"/>
      </contour>
    </TTGlyph>
    <TTGlyph name="Pi" xMin="77" yMin="0" xMax="632" yMax="698">
      <component glyphName="uni041F" x="0" y="0" flags="0x204"/>
    </TTGlyph>
    <TTGlyph name="Psi" xMin="66" yMin="0" xMax="774" yMax="698">
      <contour>
        <pt x="343" y="176" on="1"/>
        <pt x="271" y="176" on="0"/>
        <pt x="167" y="217" on="0"/>
        <pt x="99" y="293" on="0"/>
        <pt x="66" y="401" on="0"/>
        <pt x="66" y="469" on="1"/>
        <pt x="66" y="698" on="1"/>
        <pt x="218" y="698" on="1"/>
        <pt x="218" y="469" on="1"/>
        <pt x="218" y="422" on="0"/>
        <pt x="234" y="357" on="0"/>
        <pt x="265" y="318" on="0"/>
        <pt x="312" y="301" on="0"/>
        <pt x="343" y="301" on="1"/>
        <pt x="343" y="698" on="1"/>
        <pt x="497" y="698" on="1"/>
        <pt x="497" y="301" on="1"/>
        <pt x="528" y="301" on="0"/>
        <pt x="574" y="318" on="0"/>
        <pt x="606" y="357" on="0"/>
        <pt x="622" y="422" on="0"/>
        <pt x="622" y="469" on="1"/>
        <pt x="622" y="698" on="1"/>
        <pt x="774" y="698" on="1"/>
        <pt x="774" y="469" on="1"/>
        <pt x="774" y="401" on="0"/>
        <pt x="741" y="293" on="0"/>
        <pt x="673" y="217" on="0"/>
        <pt x="569" y="176" on="0"/>
        <pt x="497" y="176" on="1"/>
        <pt x="497" y="0" on="1"/>
        <pt x="343" y="0" on="1"/>
      </contour>
    </TTGlyph>
    <TTGlyph name="Q" xMin="50" yMin="-184" xMax="664" yMax="710">
      <contour>
        <pt x="542" y="-184" on="1"/>
        <pt x="448" y="-184" on="1"/>
        <pt x="367" y="-184" on="0"/>
        <pt x="293" y="-108" on="0"/>
        <pt x="293" y="-36" on="1"/>
        <pt x="293" y="-7" on="1"/>
        <pt x="181" y="13" on="0"/>
        <pt x="50" y="192" on="0"/>
        <pt x="50" y="349" on="1"/>
        <pt x="50" y="438" on="0"/>
        <pt x="94" y="573" on="0"/>
        <pt x="174" y="664" on="0"/>
        <pt x="288" y="710" on="0"/>
        <pt x="357" y="710" on="1"/>
        <pt x="426" y="710" on="0"/>
        <pt x="540" y="664" on="0"/>
        <pt x="620" y="573" on="0"/>
        <pt x="664" y="438" on="0"/>
        <pt x="664" y="349" on="1"/>
        <pt x="664" y="197" on="0"/>
        <pt x="541" y="19" on="0"/>
        <pt x="435" y="-4" on="1"/>
        <pt x="435" y="-60" on="1"/>
        <pt x="542" y="-60" on="1"/>
      </contour>
      <contour>
        <pt x="357" y="123" on="1"/>
        <pt x="426" y="123" on="0"/>
        <pt x="503" y="213" on="0"/>
        <pt x="503" y="297" on="1"/>
        <pt x="503" y="401" on="1"/>
        <pt x="503" y="485" on="0"/>
        <pt x="426" y="575" on="0"/>
        <pt x="357" y="575" on="1"/>
        <pt x="288" y="575" on="0"/>
        <pt x="211" y="485" on="0"/>
        <pt x="211" y="401" on="1"/>
        <pt x="211" y="297" on="1"/>
        <pt x="211" y="213" on="0"/>
        <pt x="288" y="123" on="0"/>
      </contour>
    </TTGlyph>
    <TTGlyph name="R" xMin="77" yMin="0" xMax="629" yMax="698">
      <contour>
        <pt x="229" y="0" on="1"/>
        <pt x="77" y="0" on="1"/>
        <pt x="77" y="698" on="1"/>
        <pt x="408" y="698" on="1"/>
        <pt x="456" y="698" on="0"/>
        <pt x="534" y="666" on="0"/>
        <pt x="589" y="607" on="0"/>
        <pt x="619" y="525" on="0"/>
        <pt x="619" y="475" on="1"/>
        <pt x="619" y="404" on="0"/>
        <pt x="556" y="298" on="0"/>
        <pt x="492" y="274" on="1"/>
        <pt x="629" y="0" on="1"/>
        <pt x="460" y="0" on="1"/>
        <pt x="338" y="256" on="1"/>
        <pt x="229" y="256" on="1"/>
      </contour>
      <contour>
        <pt x="389" y="384" on="1"/>
        <pt x="423" y="384" on="0"/>
        <pt x="462" y="419" on="0"/>
        <pt x="462" y="453" on="1"/>
        <pt x="462" y="497" on="1"/>
        <pt x="462" y="531" on="0"/>
        <pt x="423" y="566" on="0"/>
        <pt x="389" y="566" on="1"/>
        <pt x="229" y="566" on="1"/>
        <pt x="229" y="384" on="1"/>
      </contour>
    </TTGlyph>
    <TTGlyph name="Racute" xMin="77" yMin="0" xMax="629" yMax="977">
      <component glyphName="R" x="0" y="0" flags="0x204"/>
      <component glyphName="acute.case" x="24" y="0" flags="0x4"/>
    </TTGlyph>
    <TTGlyph name="Rcaron" xMin="77" yMin="0" xMax="629" yMax="965">
      <component glyphName="R" x="0" y="0" flags="0x204"/>
      <component glyphName="caron.case" x="24" y="0" flags="0x4"/>
    </TTGlyph>
    <TTGlyph name="Rcommaaccent" xMin="77" yMin="-275" xMax="629" yMax="698">
      <component glyphName="R" x="0" y="0" flags="0x204"/>
      <component glyphName="uni0326" x="354" y="0" flags="0x4"/>
    </TTGlyph>
    <TTGlyph name="Rho" xMin="77" yMin="0" xMax="619" yMax="698">
      <component glyphName="P" x="0" y="0" flags="0x204"/>
    </TTGlyph>
    <TTGlyph name="S" xMin="38" yMin="-12" xMax="575" yMax="710">
      <contour>
        <pt x="303" y="-12" on="1"/>
        <pt x="211" y="-12" on="0"/>
        <pt x="83" y="51" on="0"/>
        <pt x="38" y="101" on="1"/>
        <pt x="138" y="202" on="1"/>
        <pt x="209" y="122" on="0"/>
        <pt x="313" y="122" on="1"/>
        <pt x="369" y="122" on="0"/>
        <pt x="423" y="168" on="0"/>
        <pt x="423" y="206" on="1"/>
        <pt x="423" y="235" on="0"/>
        <pt x="391" y="274" on="0"/>
        <pt x="342" y="281" on="1"/>
        <pt x="273" y="290" on="1"/>
        <pt x="162" y="304" on="0"/>
        <pt x="59" y="410" on="0"/>
        <pt x="59" y="498" on="1"/>
        <pt x="59" y="545" on="0"/>
        <pt x="95" y="623" on="0"/>
        <pt x="162" y="679" on="0"/>
        <pt x="259" y="710" on="0"/>
        <pt x="321" y="710" on="1"/>
        <pt x="400" y="710" on="0"/>
        <pt x="520" y="660" on="0"/>
        <pt x="563" y="612" on="1"/>
        <pt x="462" y="510" on="1"/>
        <pt x="437" y="539" on="0"/>
        <pt x="366" y="576" on="0"/>
        <pt x="312" y="576" on="1"/>
        <pt x="261" y="576" on="0"/>
        <pt x="211" y="540" on="0"/>
        <pt x="211" y="508" on="1"/>
        <pt x="211" y="472" on="0"/>
        <pt x="250" y="440" on="0"/>
        <pt x="294" y="433" on="1"/>
        <pt x="363" y="422" on="1"/>
        <pt x="471" y="405" on="0"/>
        <pt x="575" y="306" on="0"/>
        <pt x="575" y="215" on="1"/>
        <pt x="575" y="165" on="0"/>
        <pt x="539" y="81" on="0"/>
        <pt x="470" y="21" on="0"/>
        <pt x="368" y="-12" on="0"/>
      </contour>
    </TTGlyph>
    <TTGlyph name="Sacute" xMin="38" yMin="-12" xMax="575" yMax="977">
      <component glyphName="S" x="0" y="0" flags="0x204"/>
      <component glyphName="acute.case" x="10" y="0" flags="0x4"/>
    </TTGlyph>
    <TTGlyph name="Scaron" xMin="38" yMin="-12" xMax="575" yMax="965">
      <component glyphName="S" x="0" y="0" flags="0x204"/>
      <component glyphName="caron.case" x="10" y="0" flags="0x4"/>
    </TTGlyph>
    <TTGlyph name="Scedilla" xMin="38" yMin="-212" xMax="575" yMax="710">
      <contour>
        <pt x="312" y="576" on="1"/>
        <pt x="261" y="576" on="0"/>
        <pt x="211" y="540" on="0"/>
        <pt x="211" y="508" on="1"/>
        <pt x="211" y="472" on="0"/>
        <pt x="250" y="440" on="0"/>
        <pt x="294" y="433" on="1"/>
        <pt x="363" y="422" on="1"/>
        <pt x="471" y="405" on="0"/>
        <pt x="575" y="306" on="0"/>
        <pt x="575" y="215" on="1"/>
        <pt x="575" y="168" on="0"/>
        <pt x="543" y="89" on="0"/>
        <pt x="482" y="30" on="0"/>
        <pt x="393" y="-7" on="0"/>
        <pt x="335" y="-11" on="1"/>
        <pt x="326" y="-55" on="1"/>
        <pt x="330" y="-59" on="1"/>
        <pt x="342" y="-56" on="0"/>
        <pt x="366" y="-52" on="0"/>
        <pt x="378" y="-52" on="1"/>
        <pt x="408" y="-52" on="0"/>
        <pt x="451" y="-84" on="0"/>
        <pt x="451" y="-121" on="1"/>
        <pt x="451" y="-147" on="0"/>
        <pt x="429" y="-181" on="0"/>
        <pt x="392" y="-203" on="0"/>
        <pt x="344" y="-212" on="0"/>
        <pt x="319" y="-212" on="1"/>
        <pt x="267" y="-212" on="0"/>
        <pt x="208" y="-183" on="0"/>
        <pt x="195" y="-168" on="1"/>
        <pt x="241" y="-112" on="1"/>
        <pt x="251" y="-124" on="0"/>
        <pt x="284" y="-141" on="0"/>
        <pt x="307" y="-141" on="1"/>
        <pt x="326" y="-141" on="0"/>
        <pt x="351" y="-129" on="0"/>
        <pt x="351" y="-116" on="1"/>
        <pt x="351" y="-110" on="0"/>
        <pt x="345" y="-98" on="0"/>
        <pt x="328" y="-87" on="0"/>
        <pt x="299" y="-78" on="0"/>
        <pt x="276" y="-76" on="1"/>
        <pt x="255" y="-74" on="1"/>
        <pt x="268" y="-11" on="1"/>
        <pt x="190" y="-5" on="0"/>
        <pt x="79" y="56" on="0"/>
        <pt x="38" y="101" on="1"/>
        <pt x="138" y="202" on="1"/>
        <pt x="209" y="122" on="0"/>
        <pt x="313" y="122" on="1"/>
        <pt x="369" y="122" on="0"/>
        <pt x="423" y="168" on="0"/>
        <pt x="423" y="206" on="1"/>
        <pt x="423" y="235" on="0"/>
        <pt x="391" y="274" on="0"/>
        <pt x="342" y="281" on="1"/>
        <pt x="273" y="290" on="1"/>
        <pt x="162" y="304" on="0"/>
        <pt x="59" y="410" on="0"/>
        <pt x="59" y="498" on="1"/>
        <pt x="59" y="545" on="0"/>
        <pt x="95" y="623" on="0"/>
        <pt x="162" y="679" on="0"/>
        <pt x="259" y="710" on="0"/>
        <pt x="321" y="710" on="1"/>
        <pt x="400" y="710" on="0"/>
        <pt x="520" y="660" on="0"/>
        <pt x="563" y="612" on="1"/>
        <pt x="462" y="510" on="1"/>
        <pt x="437" y="539" on="0"/>
        <pt x="366" y="576" on="0"/>
      </contour>
    </TTGlyph>
    <TTGlyph name="Scircumflex" xMin="38" yMin="-12" xMax="575" yMax="956">
      <component glyphName="S" x="0" y="0" flags="0x204"/>
      <component glyphName="circumflex.case" x="10" y="0" flags="0x4"/>
    </TTGlyph>
    <TTGlyph name="Scommaaccent" xMin="38" yMin="-275" xMax="575" yMax="710">
      <component glyphName="S" x="0" y="0" flags="0x204"/>
      <component glyphName="uni0326" x="310" y="0" flags="0x4"/>
    </TTGlyph>
    <TTGlyph name="Sigma" xMin="44" yMin="0" xMax="559" yMax="698">
      <contour>
        <pt x="44" y="0" on="1"/>
        <pt x="44" y="135" on="1"/>
        <pt x="266" y="350" on="1"/>
        <pt x="54" y="563" on="1"/>
        <pt x="54" y="698" on="1"/>
        <pt x="559" y="698" on="1"/>
        <pt x="559" y="564" on="1"/>
        <pt x="242" y="564" on="1"/>
        <pt x="450" y="355" on="1"/>
        <pt x="223" y="134" on="1"/>
        <pt x="559" y="134" on="1"/>
        <pt x="559" y="0" on="1"/>
      </contour>
    </TTGlyph>
    <TTGlyph name="T" xMin="27" yMin="0" xMax="557" yMax="698">
      <contour>
        <pt x="368" y="563" on="1"/>
        <pt x="368" y="0" on="1"/>
        <pt x="216" y="0" on="1"/>
        <pt x="216" y="563" on="1"/>
        <pt x="27" y="563" on="1"/>
        <pt x="27" y="698" on="1"/>
        <pt x="557" y="698" on="1"/>
        <pt x="557" y="563" on="1"/>
      </contour>
    </TTGlyph>
    <TTGlyph name="Tau" xMin="27" yMin="0" xMax="557" yMax="698">
      <component glyphName="T" x="0" y="0" flags="0x204"/>
    </TTGlyph>
    <TTGlyph name="Tbar" xMin="32" yMin="0" xMax="562" yMax="698">
      <contour>
        <pt x="373" y="274" on="1"/>
        <pt x="373" y="0" on="1"/>
        <pt x="221" y="0" on="1"/>
        <pt x="221" y="274" on="1"/>
        <pt x="82" y="274" on="1"/>
        <pt x="82" y="388" on="1"/>
        <pt x="221" y="388" on="1"/>
        <pt x="221" y="563" on="1"/>
        <pt x="32" y="563" on="1"/>
        <pt x="32" y="698" on="1"/>
        <pt x="562" y="698" on="1"/>
        <pt x="562" y="563" on="1"/>
        <pt x="373" y="563" on="1"/>
        <pt x="373" y="388" on="1"/>
        <pt x="512" y="388" on="1"/>
        <pt x="512" y="274" on="1"/>
      </contour>
    </TTGlyph>
    <TTGlyph name="Tcaron" xMin="27" yMin="0" xMax="557" yMax="965">
      <component glyphName="T" x="0" y="0" flags="0x204"/>
      <component glyphName="caron.case" x="-7" y="0" flags="0x4"/>
    </TTGlyph>
    <TTGlyph name="Theta" xMin="50" yMin="-12" xMax="674" yMax="710">
      <contour>
        <pt x="362" y="-12" on="1"/>
        <pt x="290" y="-12" on="0"/>
        <pt x="175" y="34" on="0"/>
        <pt x="94" y="125" on="0"/>
        <pt x="50" y="260" on="0"/>
        <pt x="50" y="349" on="1"/>
        <pt x="50" y="438" on="0"/>
        <pt x="94" y="573" on="0"/>
        <pt x="175" y="664" on="0"/>
        <pt x="290" y="710" on="0"/>
        <pt x="362" y="710" on="1"/>
        <pt x="434" y="710" on="0"/>
        <pt x="549" y="664" on="0"/>
        <pt x="630" y="573" on="0"/>
        <pt x="674" y="438" on="0"/>
        <pt x="674" y="349" on="1"/>
        <pt x="674" y="260" on="0"/>
        <pt x="630" y="125" on="0"/>
        <pt x="549" y="34" on="0"/>
        <pt x="434" y="-12" on="0"/>
      </contour>
      <contour>
        <pt x="362" y="123" on="1"/>
        <pt x="435" y="123" on="0"/>
        <pt x="513" y="213" on="0"/>
        <pt x="513" y="297" on="1"/>
        <pt x="513" y="401" on="1"/>
        <pt x="513" y="485" on="0"/>
        <pt x="435" y="575" on="0"/>
        <pt x="362" y="575" on="1"/>
        <pt x="289" y="575" on="0"/>
        <pt x="211" y="485" on="0"/>
        <pt x="211" y="401" on="1"/>
        <pt x="211" y="297" on="1"/>
        <pt x="211" y="213" on="0"/>
        <pt x="289" y="123" on="0"/>
      </contour>
      <contour>
        <pt x="266" y="286" on="1"/>
        <pt x="266" y="420" on="1"/>
        <pt x="458" y="420" on="1"/>
        <pt x="458" y="286" on="1"/>
      </contour>
    </TTGlyph>
    <TTGlyph name="Thorn" xMin="77" yMin="0" xMax="619" yMax="698">
      <contour>
        <pt x="77" y="0" on="1"/>
        <pt x="77" y="698" on="1"/>
        <pt x="229" y="698" on="1"/>
        <pt x="229" y="578" on="1"/>
        <pt x="407" y="578" on="1"/>
        <pt x="456" y="578" on="0"/>
        <pt x="534" y="545" on="0"/>
        <pt x="589" y="486" on="0"/>
        <pt x="619" y="404" on="0"/>
        <pt x="619" y="355" on="1"/>
        <pt x="619" y="306" on="0"/>
        <pt x="589" y="224" on="0"/>
        <pt x="534" y="165" on="0"/>
        <pt x="456" y="132" on="0"/>
        <pt x="407" y="132" on="1"/>
        <pt x="229" y="132" on="1"/>
        <pt x="229" y="0" on="1"/>
      </contour>
      <contour>
        <pt x="229" y="264" on="1"/>
        <pt x="389" y="264" on="1"/>
        <pt x="423" y="264" on="0"/>
        <pt x="462" y="299" on="0"/>
        <pt x="462" y="333" on="1"/>
        <pt x="462" y="377" on="1"/>
        <pt x="462" y="411" on="0"/>
        <pt x="423" y="446" on="0"/>
        <pt x="389" y="446" on="1"/>
        <pt x="229" y="446" on="1"/>
      </contour>
    </TTGlyph>
    <TTGlyph name="U" xMin="73" yMin="-12" xMax="621" yMax="698">
      <contour>
        <pt x="221" y="698" on="1"/>
        <pt x="221" y="270" on="1"/>
        <pt x="221" y="196" on="0"/>
        <pt x="279" y="123" on="0"/>
        <pt x="347" y="123" on="1"/>
        <pt x="415" y="123" on="0"/>
        <pt x="473" y="196" on="0"/>
        <pt x="473" y="270" on="1"/>
        <pt x="473" y="698" on="1"/>
        <pt x="621" y="698" on="1"/>
        <pt x="621" y="286" on="1"/>
        <pt x="621" y="209" on="0"/>
        <pt x="592" y="96" on="0"/>
        <pt x="526" y="23" on="0"/>
        <pt x="422" y="-12" on="0"/>
        <pt x="347" y="-12" on="1"/>
        <pt x="272" y="-12" on="0"/>
        <pt x="168" y="23" on="0"/>
        <pt x="102" y="96" on="0"/>
        <pt x="73" y="209" on="0"/>
        <pt x="73" y="286" on="1"/>
        <pt x="73" y="698" on="1"/>
      </contour>
    </TTGlyph>
    <TTGlyph name="Uacute" xMin="73" yMin="-12" xMax="621" yMax="977">
      <component glyphName="U" x="0" y="0" flags="0x204"/>
      <component glyphName="acute.case" x="47" y="0" flags="0x4"/>
    </TTGlyph>
    <TTGlyph name="Ubreve" xMin="73" yMin="-12" xMax="621" yMax="952">
      <component glyphName="U" x="0" y="0" flags="0x204"/>
      <component glyphName="breve.case" x="47" y="0" flags="0x4"/>
    </TTGlyph>
    <TTGlyph name="Ucircumflex" xMin="73" yMin="-12" xMax="621" yMax="956">
      <component glyphName="U" x="0" y="0" flags="0x204"/>
      <component glyphName="circumflex.case" x="47" y="0" flags="0x4"/>
    </TTGlyph>
    <TTGlyph name="Udieresis" xMin="73" yMin="-12" xMax="621" yMax="912">
      <component glyphName="U" x="0" y="0" flags="0x204"/>
      <component glyphName="dieresis.case" x="47" y="0" flags="0x4"/>
    </TTGlyph>
    <TTGlyph name="Ugrave" xMin="73" yMin="-12" xMax="621" yMax="977">
      <component glyphName="U" x="0" y="0" flags="0x204"/>
      <component glyphName="grave.case" x="47" y="0" flags="0x4"/>
    </TTGlyph>
    <TTGlyph name="Uhorn" xMin="73" yMin="-12" xMax="674" yMax="804">
      <contour>
        <pt x="221" y="698" on="1"/>
        <pt x="221" y="270" on="1"/>
        <pt x="221" y="196" on="0"/>
        <pt x="279" y="123" on="0"/>
        <pt x="347" y="123" on="1"/>
        <pt x="415" y="123" on="0"/>
        <pt x="473" y="196" on="0"/>
        <pt x="473" y="270" on="1"/>
        <pt x="473" y="698" on="1"/>
        <pt x="550" y="698" on="1"/>
        <pt x="550" y="804" on="1"/>
        <pt x="674" y="804" on="1"/>
        <pt x="674" y="710" on="1"/>
        <pt x="674" y="672" on="0"/>
        <pt x="652" y="625" on="0"/>
        <pt x="621" y="616" on="1"/>
        <pt x="621" y="286" on="1"/>
        <pt x="621" y="209" on="0"/>
        <pt x="592" y="96" on="0"/>
        <pt x="526" y="23" on="0"/>
        <pt x="422" y="-12" on="0"/>
        <pt x="347" y="-12" on="1"/>
        <pt x="272" y="-12" on="0"/>
        <pt x="168" y="23" on="0"/>
        <pt x="102" y="96" on="0"/>
        <pt x="73" y="209" on="0"/>
        <pt x="73" y="286" on="1"/>
        <pt x="73" y="698" on="1"/>
      </contour>
    </TTGlyph>
    <TTGlyph name="Uhungarumlaut" xMin="73" yMin="-12" xMax="621" yMax="973">
      <component glyphName="U" x="0" y="0" flags="0x204"/>
      <component glyphName="hungarumlaut.case" x="47" y="0" flags="0x4"/>
    </TTGlyph>
    <TTGlyph name="Umacron" xMin="73" yMin="-12" xMax="621" yMax="888">
      <component glyphName="U" x="0" y="0" flags="0x204"/>
      <component glyphName="macron.case" x="47" y="0" flags="0x4"/>
    </TTGlyph>
    <TTGlyph name="Uogonek" xMin="73" yMin="-212" xMax="621" yMax="698">
      <contour>
        <pt x="221" y="698" on="1"/>
        <pt x="221" y="270" on="1"/>
        <pt x="221" y="196" on="0"/>
        <pt x="279" y="123" on="0"/>
        <pt x="347" y="123" on="1"/>
        <pt x="415" y="123" on="0"/>
        <pt x="473" y="196" on="0"/>
        <pt x="473" y="270" on="1"/>
        <pt x="473" y="698" on="1"/>
        <pt x="621" y="698" on="1"/>
        <pt x="621" y="286" on="1"/>
        <pt x="621" y="234" on="0"/>
        <pt x="610" y="150" on="0"/>
        <pt x="582" y="79" on="0"/>
        <pt x="535" y="21" on="0"/>
        <pt x="499" y="-6" on="1"/>
        <pt x="482" y="-18" on="0"/>
        <pt x="446" y="-41" on="0"/>
        <pt x="416" y="-65" on="0"/>
        <pt x="397" y="-91" on="0"/>
        <pt x="397" y="-106" on="1"/>
        <pt x="397" y="-123" on="0"/>
        <pt x="420" y="-138" on="0"/>
        <pt x="435" y="-138" on="1"/>
        <pt x="453" y="-138" on="0"/>
        <pt x="478" y="-122" on="0"/>
        <pt x="489" y="-110" on="1"/>
        <pt x="542" y="-161" on="1"/>
        <pt x="529" y="-185" on="0"/>
        <pt x="468" y="-212" on="0"/>
        <pt x="421" y="-212" on="1"/>
        <pt x="396" y="-212" on="0"/>
        <pt x="352" y="-203" on="0"/>
        <pt x="318" y="-183" on="0"/>
        <pt x="298" y="-151" on="0"/>
        <pt x="298" y="-128" on="1"/>
        <pt x="298" y="-86" on="0"/>
        <pt x="362" y="-37" on="0"/>
        <pt x="417" y="-14" on="1"/>
        <pt x="415" y="-8" on="1"/>
        <pt x="399" y="-10" on="0"/>
        <pt x="366" y="-12" on="0"/>
        <pt x="347" y="-12" on="1"/>
        <pt x="272" y="-12" on="0"/>
        <pt x="168" y="23" on="0"/>
        <pt x="102" y="96" on="0"/>
        <pt x="73" y="209" on="0"/>
        <pt x="73" y="286" on="1"/>
        <pt x="73" y="698" on="1"/>
      </contour>
    </TTGlyph>
    <TTGlyph name="Upsilon" xMin="9" yMin="0" xMax="640" yMax="698">
      <component glyphName="Y" x="0" y="0" flags="0x204"/>
    </TTGlyph>
    <TTGlyph name="Upsilondieresis" xMin="9" yMin="0" xMax="640" yMax="912">
      <component glyphName="Y" x="0" y="0" flags="0x204"/>
      <component glyphName="dieresis.case" x="25" y="0" flags="0x4"/>
    </TTGlyph>
    <TTGlyph name="Upsilontonos" xMin="-15" yMin="0" xMax="784" yMax="816">
      <component glyphName="Y" x="144" y="0" flags="0x4"/>
      <component glyphName="tonos.case" x="-272" y="0" flags="0x4"/>
    </TTGlyph>
    <TTGlyph name="Uring" xMin="73" yMin="-12" xMax="621" yMax="1005">
      <component glyphName="U" x="0" y="0" flags="0x204"/>
      <component glyphName="ring.case" x="47" y="0" flags="0x4"/>
    </TTGlyph>
    <TTGlyph name="Utilde" xMin="73" yMin="-12" xMax="621" yMax="911">
      <component glyphName="U" x="0" y="0" flags="0x204"/>
      <component glyphName="tilde.case" x="47" y="0" flags="0x4"/>
    </TTGlyph>
    <TTGlyph name="V" xMin="14" yMin="0" xMax="636" yMax="698">
      <contour>
        <pt x="239" y="0" on="1"/>
        <pt x="14" y="698" on="1"/>
        <pt x="168" y="698" on="1"/>
        <pt x="272" y="363" on="1"/>
        <pt x="327" y="144" on="1"/>
        <pt x="330" y="144" on="1"/>
        <pt x="383" y="363" on="1"/>
        <pt x="487" y="698" on="1"/>
        <pt x="636" y="698" on="1"/>
        <pt x="409" y="0" on="1"/>
      </contour>
    </TTGlyph>
    <TTGlyph name="W" xMin="29" yMin="0" xMax="944" yMax="698">
      <contour>
        <pt x="187" y="0" on="1"/>
        <pt x="29" y="698" on="1"/>
        <pt x="179" y="698" on="1"/>
        <pt x="245" y="363" on="1"/>
        <pt x="282" y="169" on="1"/>
        <pt x="285" y="169" on="1"/>
        <pt x="329" y="363" on="1"/>
        <pt x="406" y="698" on="1"/>
        <pt x="572" y="698" on="1"/>
        <pt x="650" y="363" on="1"/>
        <pt x="693" y="169" on="1"/>
        <pt x="696" y="169" on="1"/>
        <pt x="733" y="363" on="1"/>
        <pt x="800" y="698" on="1"/>
        <pt x="944" y="698" on="1"/>
        <pt x="782" y="0" on="1"/>
        <pt x="609" y="0" on="1"/>
        <pt x="521" y="378" on="1"/>
        <pt x="487" y="531" on="1"/>
        <pt x="484" y="531" on="1"/>
        <pt x="449" y="378" on="1"/>
        <pt x="361" y="0" on="1"/>
      </contour>
    </TTGlyph>
    <TTGlyph name="Wacute" xMin="29" yMin="0" xMax="944" yMax="977">
      <component glyphName="W" x="0" y="0" flags="0x204"/>
      <component glyphName="acute.case" x="187" y="0" flags="0x4"/>
    </TTGlyph>
    <TTGlyph name="Wcircumflex" xMin="29" yMin="0" xMax="944" yMax="956">
      <component glyphName="W" x="0" y="0" flags="0x204"/>
      <component glyphName="circumflex.case" x="187" y="0" flags="0x4"/>
    </TTGlyph>
    <TTGlyph name="Wdieresis" xMin="29" yMin="0" xMax="944" yMax="912">
      <component glyphName="W" x="0" y="0" flags="0x204"/>
      <component glyphName="dieresis.case" x="187" y="0" flags="0x4"/>
    </TTGlyph>
    <TTGlyph name="Wgrave" xMin="29" yMin="0" xMax="944" yMax="977">
      <component glyphName="W" x="0" y="0" flags="0x204"/>
      <component glyphName="grave.case" x="187" y="0" flags="0x4"/>
    </TTGlyph>
    <TTGlyph name="X" xMin="16" yMin="0" xMax="657" yMax="698">
      <contour>
        <pt x="657" y="0" on="1"/>
        <pt x="481" y="0" on="1"/>
        <pt x="330" y="257" on="1"/>
        <pt x="327" y="257" on="1"/>
        <pt x="180" y="0" on="1"/>
        <pt x="16" y="0" on="1"/>
        <pt x="240" y="361" on="1"/>
        <pt x="27" y="698" on="1"/>
        <pt x="204" y="698" on="1"/>
        <pt x="340" y="462" on="1"/>
        <pt x="343" y="462" on="1"/>
        <pt x="481" y="698" on="1"/>
        <pt x="645" y="698" on="1"/>
        <pt x="430" y="358" on="1"/>
      </contour>
    </TTGlyph>
    <TTGlyph name="Xi" xMin="55" yMin="0" xMax="550" yMax="698">
      <contour>
        <pt x="55" y="698" on="1"/>
        <pt x="550" y="698" on="1"/>
        <pt x="550" y="563" on="1"/>
        <pt x="55" y="563" on="1"/>
      </contour>
      <contour>
        <pt x="116" y="420" on="1"/>
        <pt x="489" y="420" on="1"/>
        <pt x="489" y="286" on="1"/>
        <pt x="116" y="286" on="1"/>
      </contour>
      <contour>
        <pt x="55" y="135" on="1"/>
        <pt x="550" y="135" on="1"/>
        <pt x="550" y="0" on="1"/>
        <pt x="55" y="0" on="1"/>
      </contour>
    </TTGlyph>
    <TTGlyph name="Y" xMin="9" yMin="0" xMax="640" yMax="698">
      <contour>
        <pt x="248" y="0" on="1"/>
        <pt x="248" y="273" on="1"/>
        <pt x="9" y="698" on="1"/>
        <pt x="179" y="698" on="1"/>
        <pt x="329" y="420" on="1"/>
        <pt x="331" y="420" on="1"/>
        <pt x="475" y="698" on="1"/>
        <pt x="640" y="698" on="1"/>
        <pt x="401" y="274" on="1"/>
        <pt x="401" y="0" on="1"/>
      </contour>
    </TTGlyph>
    <TTGlyph name="Yacute" xMin="9" yMin="0" xMax="640" yMax="977">
      <component glyphName="Y" x="0" y="0" flags="0x204"/>
      <component glyphName="acute.case" x="25" y="0" flags="0x4"/>
    </TTGlyph>
    <TTGlyph name="Ycircumflex" xMin="9" yMin="0" xMax="640" yMax="956">
      <component glyphName="Y" x="0" y="0" flags="0x204"/>
      <component glyphName="circumflex.case" x="25" y="0" flags="0x4"/>
    </TTGlyph>
    <TTGlyph name="Ydieresis" xMin="9" yMin="0" xMax="640" yMax="912">
      <component glyphName="Y" x="0" y="0" flags="0x204"/>
      <component glyphName="dieresis.case" x="25" y="0" flags="0x4"/>
    </TTGlyph>
    <TTGlyph name="Ygrave" xMin="9" yMin="0" xMax="640" yMax="977">
      <component glyphName="Y" x="0" y="0" flags="0x204"/>
      <component glyphName="grave.case" x="25" y="0" flags="0x4"/>
    </TTGlyph>
    <TTGlyph name="Z" xMin="39" yMin="0" xMax="568" yMax="698">
      <contour>
        <pt x="568" y="0" on="1"/>
        <pt x="39" y="0" on="1"/>
        <pt x="39" y="135" on="1"/>
        <pt x="383" y="563" on="1"/>
        <pt x="56" y="563" on="1"/>
        <pt x="56" y="698" on="1"/>
        <pt x="560" y="698" on="1"/>
        <pt x="560" y="563" on="1"/>
        <pt x="215" y="135" on="1"/>
        <pt x="568" y="135" on="1"/>
      </contour>
    </TTGlyph>
    <TTGlyph name="Zacute" xMin="39" yMin="0" xMax="568" yMax="977">
      <component glyphName="Z" x="0" y="0" flags="0x204"/>
      <component glyphName="acute.case" x="3" y="0" flags="0x4"/>
    </TTGlyph>
    <TTGlyph name="Zcaron" xMin="39" yMin="0" xMax="568" yMax="965">
      <component glyphName="Z" x="0" y="0" flags="0x204"/>
      <component glyphName="caron.case" x="3" y="0" flags="0x4"/>
    </TTGlyph>
    <TTGlyph name="Zdotaccent" xMin="39" yMin="0" xMax="568" yMax="921">
      <component glyphName="Z" x="0" y="0" flags="0x204"/>
      <component glyphName="dotaccent.case" x="3" y="0" flags="0x4"/>
    </TTGlyph>
    <TTGlyph name="Zeta" xMin="39" yMin="0" xMax="568" yMax="698">
      <component glyphName="Z" x="0" y="0" flags="0x204"/>
    </TTGlyph>
    <TTGlyph name="a" xMin="34" yMin="-12" xMax="539" yMax="537">
      <contour>
        <pt x="457" y="0" on="1"/>
        <pt x="417" y="0" on="0"/>
        <pt x="364" y="50" on="0"/>
        <pt x="357" y="92" on="1"/>
        <pt x="351" y="92" on="1"/>
        <pt x="339" y="41" on="0"/>
        <pt x="257" y="-12" on="0"/>
        <pt x="197" y="-12" on="1"/>
        <pt x="118" y="-12" on="0"/>
        <pt x="34" y="72" on="0"/>
        <pt x="34" y="141" on="1"/>
        <pt x="34" y="224" on="0"/>
        <pt x="155" y="305" on="0"/>
        <pt x="259" y="305" on="1"/>
        <pt x="342" y="305" on="1"/>
        <pt x="342" y="338" on="1"/>
        <pt x="342" y="376" on="0"/>
        <pt x="302" y="421" on="0"/>
        <pt x="255" y="421" on="1"/>
        <pt x="211" y="421" on="0"/>
        <pt x="159" y="383" on="0"/>
        <pt x="142" y="359" on="1"/>
        <pt x="54" y="437" on="1"/>
        <pt x="86" y="484" on="0"/>
        <pt x="183" y="537" on="0"/>
        <pt x="266" y="537" on="1"/>
        <pt x="378" y="537" on="0"/>
        <pt x="490" y="439" on="0"/>
        <pt x="490" y="345" on="1"/>
        <pt x="490" y="115" on="1"/>
        <pt x="539" y="115" on="1"/>
        <pt x="539" y="0" on="1"/>
      </contour>
      <contour>
        <pt x="252" y="91" on="1"/>
        <pt x="289" y="91" on="0"/>
        <pt x="342" y="123" on="0"/>
        <pt x="342" y="159" on="1"/>
        <pt x="342" y="221" on="1"/>
        <pt x="270" y="221" on="1"/>
        <pt x="183" y="221" on="0"/>
        <pt x="183" y="162" on="1"/>
        <pt x="183" y="147" on="1"/>
        <pt x="183" y="118" on="0"/>
        <pt x="219" y="91" on="0"/>
      </contour>
    </TTGlyph>
    <TTGlyph name="a.alt01" xMin="43" yMin="-12" xMax="539" yMax="537">
      <contour>
        <pt x="391" y="88" on="1"/>
        <pt x="386" y="88" on="1"/>
        <pt x="380" y="67" on="0"/>
        <pt x="354" y="30" on="0"/>
        <pt x="317" y="3" on="0"/>
        <pt x="270" y="-12" on="0"/>
        <pt x="245" y="-12" on="1"/>
        <pt x="145" y="-12" on="0"/>
        <pt x="43" y="129" on="0"/>
        <pt x="43" y="263" on="1"/>
        <pt x="43" y="397" on="0"/>
        <pt x="145" y="537" on="0"/>
        <pt x="245" y="537" on="1"/>
        <pt x="296" y="537" on="0"/>
        <pt x="375" y="481" on="0"/>
        <pt x="386" y="437" on="1"/>
        <pt x="391" y="437" on="1"/>
        <pt x="391" y="525" on="1"/>
        <pt x="539" y="525" on="1"/>
        <pt x="539" y="0" on="1"/>
        <pt x="391" y="0" on="1"/>
      </contour>
      <contour>
        <pt x="294" y="108" on="1"/>
        <pt x="336" y="108" on="0"/>
        <pt x="391" y="149" on="0"/>
        <pt x="391" y="185" on="1"/>
        <pt x="391" y="340" on="1"/>
        <pt x="391" y="376" on="0"/>
        <pt x="336" y="417" on="0"/>
        <pt x="294" y="417" on="1"/>
        <pt x="252" y="417" on="0"/>
        <pt x="197" y="358" on="0"/>
        <pt x="197" y="308" on="1"/>
        <pt x="197" y="217" on="1"/>
        <pt x="197" y="167" on="0"/>
        <pt x="252" y="108" on="0"/>
      </contour>
    </TTGlyph>
    <TTGlyph name="aacute" xMin="34" yMin="-12" xMax="539" yMax="816">
      <component glyphName="a" x="0" y="0" flags="0x204"/>
      <component glyphName="acute" x="-31" y="0" flags="0x4"/>
    </TTGlyph>
    <TTGlyph name="aacute.alt01" xMin="43" yMin="-12" xMax="539" yMax="816">
      <component glyphName="a.alt01" x="0" y="0" flags="0x204"/>
      <component glyphName="acute" x="15" y="0" flags="0x4"/>
    </TTGlyph>
    <TTGlyph name="abreve" xMin="34" yMin="-12" xMax="539" yMax="791">
      <component glyphName="a" x="0" y="0" flags="0x204"/>
      <component glyphName="breve" x="-31" y="0" flags="0x4"/>
    </TTGlyph>
    <TTGlyph name="abreve.alt01" xMin="43" yMin="-12" xMax="539" yMax="791">
      <component glyphName="a.alt01" x="0" y="0" flags="0x204"/>
      <component glyphName="breve" x="15" y="0" flags="0x4"/>
    </TTGlyph>
    <TTGlyph name="acircumflex" xMin="34" yMin="-12" xMax="539" yMax="795">
      <component glyphName="a" x="0" y="0" flags="0x204"/>
      <component glyphName="circumflex" x="-31" y="0" flags="0x4"/>
    </TTGlyph>
    <TTGlyph name="acircumflex.alt01" xMin="43" yMin="-12" xMax="539" yMax="795">
      <component glyphName="a.alt01" x="0" y="0" flags="0x204"/>
      <component glyphName="circumflex" x="15" y="0" flags="0x4"/>
    </TTGlyph>
    <TTGlyph name="acute" xMin="228" yMin="579" xMax="450" yMax="816">
      <contour>
        <pt x="316" y="579" on="1"/>
        <pt x="228" y="622" on="1"/>
        <pt x="327" y="816" on="1"/>
        <pt x="450" y="755" on="1"/>
      </contour>
    </TTGlyph>
    <TTGlyph name="acute.case" xMin="228" yMin="740" xMax="450" yMax="977">
      <contour>
        <pt x="316" y="740" on="1"/>
        <pt x="228" y="783" on="1"/>
        <pt x="327" y="977" on="1"/>
        <pt x="450" y="916" on="1"/>
      </contour>
    </TTGlyph>
    <TTGlyph name="adieresis" xMin="34" yMin="-12" xMax="539" yMax="751">
      <component glyphName="a" x="0" y="0" flags="0x204"/>
      <component glyphName="dieresis" x="-31" y="0" flags="0x4"/>
    </TTGlyph>
    <TTGlyph name="adieresis.alt01" xMin="43" yMin="-12" xMax="539" yMax="751">
      <component glyphName="a.alt01" x="0" y="0" flags="0x204"/>
      <component glyphName="dieresis" x="15" y="0" flags="0x4"/>
    </TTGlyph>
    <TTGlyph name="ae" xMin="34" yMin="-12" xMax="828" yMax="537">
      <contour>
        <pt x="270" y="225" on="1"/>
        <pt x="230" y="225" on="0"/>
        <pt x="183" y="195" on="0"/>
        <pt x="183" y="166" on="1"/>
        <pt x="183" y="152" on="1"/>
        <pt x="183" y="91" on="0"/>
        <pt x="254" y="91" on="1"/>
        <pt x="289" y="91" on="0"/>
        <pt x="342" y="123" on="0"/>
        <pt x="342" y="159" on="1"/>
        <pt x="342" y="225" on="1"/>
      </contour>
      <contour>
        <pt x="675" y="312" on="1"/>
        <pt x="675" y="321" on="1"/>
        <pt x="675" y="369" on="0"/>
        <pt x="632" y="428" on="0"/>
        <pt x="587" y="428" on="1"/>
        <pt x="542" y="428" on="0"/>
        <pt x="491" y="369" on="0"/>
        <pt x="491" y="320" on="1"/>
        <pt x="491" y="312" on="1"/>
      </contour>
      <contour>
        <pt x="610" y="106" on="1"/>
        <pt x="656" y="106" on="0"/>
        <pt x="717" y="144" on="0"/>
        <pt x="739" y="167" on="1"/>
        <pt x="813" y="75" on="1"/>
        <pt x="778" y="34" on="0"/>
        <pt x="665" y="-12" on="0"/>
        <pt x="593" y="-12" on="1"/>
        <pt x="518" y="-12" on="0"/>
        <pt x="410" y="47" on="0"/>
        <pt x="389" y="91" on="1"/>
        <pt x="383" y="91" on="1"/>
        <pt x="375" y="70" on="0"/>
        <pt x="346" y="32" on="0"/>
        <pt x="301" y="4" on="0"/>
        <pt x="239" y="-12" on="0"/>
        <pt x="198" y="-12" on="1"/>
        <pt x="158" y="-12" on="0"/>
        <pt x="97" y="11" on="0"/>
        <pt x="55" y="53" on="0"/>
        <pt x="34" y="110" on="0"/>
        <pt x="34" y="144" on="1"/>
        <pt x="34" y="186" on="0"/>
        <pt x="67" y="249" on="0"/>
        <pt x="127" y="291" on="0"/>
        <pt x="210" y="312" on="0"/>
        <pt x="259" y="312" on="1"/>
        <pt x="342" y="312" on="1"/>
        <pt x="342" y="338" on="1"/>
        <pt x="342" y="376" on="0"/>
        <pt x="302" y="421" on="0"/>
        <pt x="255" y="421" on="1"/>
        <pt x="211" y="421" on="0"/>
        <pt x="159" y="383" on="0"/>
        <pt x="142" y="359" on="1"/>
        <pt x="54" y="437" on="1"/>
        <pt x="86" y="484" on="0"/>
        <pt x="183" y="537" on="0"/>
        <pt x="266" y="537" on="1"/>
        <pt x="314" y="537" on="0"/>
        <pt x="389" y="502" on="0"/>
        <pt x="414" y="463" on="1"/>
        <pt x="420" y="463" on="1"/>
        <pt x="444" y="501" on="0"/>
        <pt x="531" y="537" on="0"/>
        <pt x="588" y="537" on="1"/>
        <pt x="653" y="537" on="0"/>
        <pt x="745" y="493" on="0"/>
        <pt x="802" y="419" on="0"/>
        <pt x="828" y="322" on="0"/>
        <pt x="828" y="269" on="1"/>
        <pt x="828" y="225" on="1"/>
        <pt x="490" y="225" on="1"/>
        <pt x="490" y="217" on="1"/>
        <pt x="490" y="166" on="0"/>
        <pt x="553" y="106" on="0"/>
      </contour>
    </TTGlyph>
    <TTGlyph name="aeacute" xMin="34" yMin="-12" xMax="828" yMax="816">
      <component glyphName="ae" x="0" y="0" flags="0x204"/>
      <component glyphName="acute" x="132" y="0" flags="0x4"/>
    </TTGlyph>
    <TTGlyph name="agrave" xMin="34" yMin="-12" xMax="539" yMax="816">
      <component glyphName="a" x="0" y="0" flags="0x204"/>
      <component glyphName="grave" x="-31" y="0" flags="0x4"/>
    </TTGlyph>
    <TTGlyph name="agrave.alt01" xMin="43" yMin="-12" xMax="539" yMax="816">
      <component glyphName="a.alt01" x="0" y="0" flags="0x204"/>
      <component glyphName="grave" x="15" y="0" flags="0x4"/>
    </TTGlyph>
    <TTGlyph name="alpha" xMin="43" yMin="-12" xMax="633" yMax="537">
      <contour>
        <pt x="633" y="0" on="1"/>
        <pt x="574" y="0" on="1"/>
        <pt x="515" y="0" on="0"/>
        <pt x="458" y="45" on="0"/>
        <pt x="446" y="104" on="1"/>
        <pt x="437" y="148" on="1"/>
        <pt x="434" y="148" on="1"/>
        <pt x="410" y="68" on="0"/>
        <pt x="325" y="-12" on="0"/>
        <pt x="251" y="-12" on="1"/>
        <pt x="154" y="-12" on="0"/>
        <pt x="43" y="128" on="0"/>
        <pt x="43" y="262" on="1"/>
        <pt x="43" y="396" on="0"/>
        <pt x="154" y="537" on="0"/>
        <pt x="251" y="537" on="1"/>
        <pt x="325" y="537" on="0"/>
        <pt x="416" y="460" on="0"/>
        <pt x="440" y="377" on="1"/>
        <pt x="444" y="377" on="1"/>
        <pt x="462" y="448" on="1"/>
        <pt x="485" y="525" on="1"/>
        <pt x="633" y="525" on="1"/>
        <pt x="517" y="266" on="1"/>
        <pt x="577" y="115" on="1"/>
        <pt x="633" y="115" on="1"/>
      </contour>
      <contour>
        <pt x="264" y="108" on="1"/>
        <pt x="288" y="108" on="0"/>
        <pt x="329" y="151" on="0"/>
        <pt x="346" y="199" on="1"/>
        <pt x="368" y="263" on="1"/>
        <pt x="346" y="326" on="1"/>
        <pt x="329" y="374" on="0"/>
        <pt x="288" y="417" on="0"/>
        <pt x="264" y="417" on="1"/>
        <pt x="231" y="417" on="0"/>
        <pt x="197" y="362" on="0"/>
        <pt x="197" y="302" on="1"/>
        <pt x="197" y="223" on="1"/>
        <pt x="197" y="163" on="0"/>
        <pt x="231" y="108" on="0"/>
      </contour>
    </TTGlyph>
    <TTGlyph name="alpha.alt01" xMin="43" yMin="-12" xMax="588" yMax="537">
      <contour>
        <pt x="588" y="0" on="1"/>
        <pt x="538" y="0" on="1"/>
        <pt x="474" y="0" on="0"/>
        <pt x="407" y="51" on="0"/>
        <pt x="396" y="96" on="1"/>
        <pt x="391" y="96" on="1"/>
        <pt x="376" y="46" on="0"/>
        <pt x="298" y="-12" on="0"/>
        <pt x="245" y="-12" on="1"/>
        <pt x="145" y="-12" on="0"/>
        <pt x="43" y="129" on="0"/>
        <pt x="43" y="263" on="1"/>
        <pt x="43" y="397" on="0"/>
        <pt x="145" y="537" on="0"/>
        <pt x="245" y="537" on="1"/>
        <pt x="296" y="537" on="0"/>
        <pt x="375" y="481" on="0"/>
        <pt x="386" y="437" on="1"/>
        <pt x="391" y="437" on="1"/>
        <pt x="391" y="525" on="1"/>
        <pt x="539" y="525" on="1"/>
        <pt x="539" y="115" on="1"/>
        <pt x="588" y="115" on="1"/>
      </contour>
      <contour>
        <pt x="294" y="108" on="1"/>
        <pt x="336" y="108" on="0"/>
        <pt x="391" y="149" on="0"/>
        <pt x="391" y="185" on="1"/>
        <pt x="391" y="340" on="1"/>
        <pt x="391" y="376" on="0"/>
        <pt x="336" y="417" on="0"/>
        <pt x="294" y="417" on="1"/>
        <pt x="252" y="417" on="0"/>
        <pt x="197" y="358" on="0"/>
        <pt x="197" y="308" on="1"/>
        <pt x="197" y="217" on="1"/>
        <pt x="197" y="167" on="0"/>
        <pt x="252" y="108" on="0"/>
      </contour>
    </TTGlyph>
    <TTGlyph name="alphatonos" xMin="43" yMin="-12" xMax="633" yMax="816">
      <component glyphName="alpha" x="0" y="0" flags="0x204"/>
      <component glyphName="tonos" x="-19" y="0" flags="0x4"/>
    </TTGlyph>
    <TTGlyph name="alphatonos.alt01" xMin="43" yMin="-12" xMax="588" yMax="816">
      <component glyphName="alpha.alt01" x="0" y="0" flags="0x204"/>
      <component glyphName="tonos" x="-11" y="0" flags="0x4"/>
    </TTGlyph>
    <TTGlyph name="amacron" xMin="34" yMin="-12" xMax="539" yMax="727">
      <component glyphName="a" x="0" y="0" flags="0x204"/>
      <component glyphName="macron" x="-31" y="0" flags="0x4"/>
    </TTGlyph>
    <TTGlyph name="amacron.alt01" xMin="43" yMin="-12" xMax="539" yMax="727">
      <component glyphName="a.alt01" x="0" y="0" flags="0x204"/>
      <component glyphName="macron" x="15" y="0" flags="0x4"/>
    </TTGlyph>
    <TTGlyph name="ampersand" xMin="50" yMin="-12" xMax="718" yMax="710">
      <contour>
        <pt x="487" y="57" on="1"/>
        <pt x="454" y="30" on="0"/>
        <pt x="360" y="-12" on="0"/>
        <pt x="287" y="-12" on="1"/>
        <pt x="229" y="-12" on="0"/>
        <pt x="141" y="17" on="0"/>
        <pt x="81" y="70" on="0"/>
        <pt x="50" y="141" on="0"/>
        <pt x="50" y="183" on="1"/>
        <pt x="50" y="219" on="0"/>
        <pt x="71" y="275" on="0"/>
        <pt x="108" y="321" on="0"/>
        <pt x="160" y="359" on="0"/>
        <pt x="190" y="377" on="1"/>
        <pt x="175" y="393" on="0"/>
        <pt x="147" y="431" on="0"/>
        <pt x="125" y="473" on="0"/>
        <pt x="112" y="519" on="0"/>
        <pt x="112" y="543" on="1"/>
        <pt x="112" y="577" on="0"/>
        <pt x="141" y="638" on="0"/>
        <pt x="196" y="684" on="0"/>
        <pt x="273" y="710" on="0"/>
        <pt x="321" y="710" on="1"/>
        <pt x="364" y="710" on="0"/>
        <pt x="437" y="689" on="0"/>
        <pt x="491" y="648" on="0"/>
        <pt x="522" y="588" on="0"/>
        <pt x="522" y="550" on="1"/>
        <pt x="522" y="517" on="0"/>
        <pt x="500" y="463" on="0"/>
        <pt x="462" y="418" on="0"/>
        <pt x="411" y="380" on="0"/>
        <pt x="383" y="363" on="1"/>
        <pt x="491" y="246" on="1"/>
        <pt x="504" y="278" on="0"/>
        <pt x="518" y="350" on="0"/>
        <pt x="520" y="385" on="1"/>
        <pt x="687" y="385" on="1"/>
        <pt x="687" y="262" on="1"/>
        <pt x="624" y="262" on="1"/>
        <pt x="607" y="198" on="0"/>
        <pt x="579" y="151" on="1"/>
        <pt x="718" y="0" on="1"/>
        <pt x="539" y="0" on="1"/>
      </contour>
      <contour>
        <pt x="317" y="597" on="1"/>
        <pt x="290" y="597" on="0"/>
        <pt x="253" y="567" on="0"/>
        <pt x="253" y="540" on="1"/>
        <pt x="253" y="536" on="1"/>
        <pt x="253" y="516" on="0"/>
        <pt x="279" y="477" on="0"/>
        <pt x="310" y="442" on="1"/>
        <pt x="345" y="463" on="0"/>
        <pt x="381" y="506" on="0"/>
        <pt x="381" y="536" on="1"/>
        <pt x="381" y="540" on="1"/>
        <pt x="381" y="567" on="0"/>
        <pt x="344" y="597" on="0"/>
      </contour>
      <contour>
        <pt x="309" y="111" on="1"/>
        <pt x="368" y="111" on="0"/>
        <pt x="410" y="139" on="1"/>
        <pt x="263" y="298" on="1"/>
        <pt x="229" y="278" on="0"/>
        <pt x="201" y="236" on="0"/>
        <pt x="201" y="209" on="1"/>
        <pt x="201" y="199" on="1"/>
        <pt x="201" y="161" on="0"/>
        <pt x="255" y="111" on="0"/>
      </contour>
    </TTGlyph>
    <TTGlyph name="anoteleia" xMin="77" yMin="355" xMax="253" yMax="535">
      <component glyphName="period" x="10" y="366" flags="0x4"/>
    </TTGlyph>
    <TTGlyph name="aogonek" xMin="34" yMin="-212" xMax="571" yMax="537">
      <contour>
        <pt x="539" y="0" on="1"/>
        <pt x="502" y="-23" on="0"/>
        <pt x="457" y="-54" on="0"/>
        <pt x="433" y="-78" on="0"/>
        <pt x="425" y="-96" on="0"/>
        <pt x="425" y="-105" on="1"/>
        <pt x="425" y="-124" on="0"/>
        <pt x="448" y="-138" on="0"/>
        <pt x="463" y="-138" on="1"/>
        <pt x="481" y="-138" on="0"/>
        <pt x="507" y="-122" on="0"/>
        <pt x="518" y="-110" on="1"/>
        <pt x="571" y="-161" on="1"/>
        <pt x="558" y="-185" on="0"/>
        <pt x="497" y="-212" on="0"/>
        <pt x="449" y="-212" on="1"/>
        <pt x="424" y="-212" on="0"/>
        <pt x="379" y="-203" on="0"/>
        <pt x="345" y="-184" on="0"/>
        <pt x="325" y="-151" on="0"/>
        <pt x="325" y="-127" on="1"/>
        <pt x="325" y="-85" on="0"/>
        <pt x="388" y="-30" on="0"/>
        <pt x="444" y="-4" on="1"/>
        <pt x="442" y="1" on="1"/>
        <pt x="408" y="6" on="0"/>
        <pt x="363" y="54" on="0"/>
        <pt x="357" y="92" on="1"/>
        <pt x="351" y="92" on="1"/>
        <pt x="339" y="41" on="0"/>
        <pt x="257" y="-12" on="0"/>
        <pt x="197" y="-12" on="1"/>
        <pt x="118" y="-12" on="0"/>
        <pt x="34" y="72" on="0"/>
        <pt x="34" y="141" on="1"/>
        <pt x="34" y="224" on="0"/>
        <pt x="155" y="305" on="0"/>
        <pt x="259" y="305" on="1"/>
        <pt x="342" y="305" on="1"/>
        <pt x="342" y="338" on="1"/>
        <pt x="342" y="376" on="0"/>
        <pt x="302" y="421" on="0"/>
        <pt x="255" y="421" on="1"/>
        <pt x="211" y="421" on="0"/>
        <pt x="159" y="383" on="0"/>
        <pt x="142" y="359" on="1"/>
        <pt x="54" y="437" on="1"/>
        <pt x="86" y="484" on="0"/>
        <pt x="183" y="537" on="0"/>
        <pt x="266" y="537" on="1"/>
        <pt x="378" y="537" on="0"/>
        <pt x="490" y="439" on="0"/>
        <pt x="490" y="345" on="1"/>
        <pt x="490" y="116" on="1"/>
        <pt x="539" y="116" on="1"/>
      </contour>
      <contour>
        <pt x="270" y="221" on="1"/>
        <pt x="183" y="221" on="0"/>
        <pt x="183" y="162" on="1"/>
        <pt x="183" y="147" on="1"/>
        <pt x="183" y="118" on="0"/>
        <pt x="219" y="91" on="0"/>
        <pt x="252" y="91" on="1"/>
        <pt x="289" y="91" on="0"/>
        <pt x="342" y="123" on="0"/>
        <pt x="342" y="159" on="1"/>
        <pt x="342" y="221" on="1"/>
      </contour>
    </TTGlyph>
    <TTGlyph name="aogonek.alt01" xMin="43" yMin="-212" xMax="571" yMax="537">
      <contour>
        <pt x="539" y="0" on="1"/>
        <pt x="502" y="-23" on="0"/>
        <pt x="457" y="-54" on="0"/>
        <pt x="433" y="-78" on="0"/>
        <pt x="425" y="-96" on="0"/>
        <pt x="425" y="-105" on="1"/>
        <pt x="425" y="-124" on="0"/>
        <pt x="448" y="-138" on="0"/>
        <pt x="463" y="-138" on="1"/>
        <pt x="481" y="-138" on="0"/>
        <pt x="507" y="-122" on="0"/>
        <pt x="518" y="-110" on="1"/>
        <pt x="571" y="-161" on="1"/>
        <pt x="558" y="-185" on="0"/>
        <pt x="497" y="-212" on="0"/>
        <pt x="449" y="-212" on="1"/>
        <pt x="424" y="-212" on="0"/>
        <pt x="379" y="-203" on="0"/>
        <pt x="345" y="-184" on="0"/>
        <pt x="325" y="-151" on="0"/>
        <pt x="325" y="-127" on="1"/>
        <pt x="325" y="-85" on="0"/>
        <pt x="388" y="-30" on="0"/>
        <pt x="444" y="-4" on="1"/>
        <pt x="443" y="0" on="1"/>
        <pt x="391" y="0" on="1"/>
        <pt x="391" y="88" on="1"/>
        <pt x="386" y="88" on="1"/>
        <pt x="380" y="67" on="0"/>
        <pt x="354" y="30" on="0"/>
        <pt x="317" y="3" on="0"/>
        <pt x="270" y="-12" on="0"/>
        <pt x="245" y="-12" on="1"/>
        <pt x="145" y="-12" on="0"/>
        <pt x="43" y="129" on="0"/>
        <pt x="43" y="263" on="1"/>
        <pt x="43" y="397" on="0"/>
        <pt x="145" y="537" on="0"/>
        <pt x="245" y="537" on="1"/>
        <pt x="296" y="537" on="0"/>
        <pt x="375" y="481" on="0"/>
        <pt x="386" y="437" on="1"/>
        <pt x="391" y="437" on="1"/>
        <pt x="391" y="525" on="1"/>
        <pt x="539" y="525" on="1"/>
      </contour>
      <contour>
        <pt x="294" y="108" on="1"/>
        <pt x="336" y="108" on="0"/>
        <pt x="391" y="149" on="0"/>
        <pt x="391" y="185" on="1"/>
        <pt x="391" y="340" on="1"/>
        <pt x="391" y="376" on="0"/>
        <pt x="336" y="417" on="0"/>
        <pt x="294" y="417" on="1"/>
        <pt x="252" y="417" on="0"/>
        <pt x="197" y="358" on="0"/>
        <pt x="197" y="308" on="1"/>
        <pt x="197" y="217" on="1"/>
        <pt x="197" y="167" on="0"/>
        <pt x="252" y="108" on="0"/>
      </contour>
    </TTGlyph>
    <TTGlyph name="approxequal" xMin="56" yMin="96" xMax="550" yMax="516">
      <component glyphName="asciitilde" x="3" y="116" flags="0x204"/>
      <component glyphName="asciitilde" x="3" y="-116" flags="0x4"/>
    </TTGlyph>
    <TTGlyph name="aring" xMin="34" yMin="-12" xMax="539" yMax="844">
      <component glyphName="a" x="0" y="0" flags="0x204"/>
      <component glyphName="ring" x="-31" y="0" flags="0x4"/>
    </TTGlyph>
    <TTGlyph name="aring.alt01" xMin="43" yMin="-12" xMax="539" yMax="844">
      <component glyphName="a.alt01" x="0" y="0" flags="0x204"/>
      <component glyphName="ring" x="15" y="0" flags="0x4"/>
    </TTGlyph>
    <TTGlyph name="aringacute" xMin="34" yMin="-12" xMax="539" yMax="989">
      <component glyphName="a" x="0" y="0" flags="0x204"/>
      <component glyphName="ringacute" x="-31" y="0" flags="0x4"/>
    </TTGlyph>
    <TTGlyph name="aringacute.alt01" xMin="43" yMin="-12" xMax="539" yMax="989">
      <component glyphName="a.alt01" x="0" y="0" flags="0x204"/>
      <component glyphName="ringacute" x="15" y="0" flags="0x4"/>
    </TTGlyph>
    <TTGlyph name="asciicircum" xMin="42" yMin="277" xMax="559" yMax="698">
      <contour>
        <pt x="440" y="277" on="1"/>
        <pt x="300" y="537" on="1"/>
        <pt x="294" y="537" on="1"/>
        <pt x="154" y="277" on="1"/>
        <pt x="42" y="334" on="1"/>
        <pt x="242" y="698" on="1"/>
        <pt x="362" y="698" on="1"/>
        <pt x="559" y="334" on="1"/>
      </contour>
    </TTGlyph>
    <TTGlyph name="asciitilde" xMin="53" yMin="212" xMax="547" yMax="400">
      <contour>
        <pt x="416" y="212" on="1"/>
        <pt x="379" y="212" on="0"/>
        <pt x="323" y="231" on="0"/>
        <pt x="290" y="248" on="1"/>
        <pt x="263" y="262" on="0"/>
        <pt x="211" y="281" on="0"/>
        <pt x="180" y="281" on="1"/>
        <pt x="157" y="281" on="0"/>
        <pt x="124" y="268" on="0"/>
        <pt x="102" y="254" on="1"/>
        <pt x="53" y="338" on="1"/>
        <pt x="71" y="364" on="0"/>
        <pt x="135" y="400" on="0"/>
        <pt x="184" y="400" on="1"/>
        <pt x="221" y="400" on="0"/>
        <pt x="277" y="381" on="0"/>
        <pt x="310" y="364" on="1"/>
        <pt x="337" y="350" on="0"/>
        <pt x="389" y="331" on="0"/>
        <pt x="420" y="331" on="1"/>
        <pt x="443" y="331" on="0"/>
        <pt x="476" y="344" on="0"/>
        <pt x="498" y="358" on="1"/>
        <pt x="547" y="274" on="1"/>
        <pt x="529" y="248" on="0"/>
        <pt x="465" y="212" on="0"/>
      </contour>
    </TTGlyph>
    <TTGlyph name="asterisk" xMin="32" yMin="238" xMax="569" yMax="747">
      <contour>
        <pt x="192" y="238" on="1"/>
        <pt x="88" y="308" on="1"/>
        <pt x="215" y="461" on="1"/>
        <pt x="32" y="516" on="1"/>
        <pt x="71" y="630" on="1"/>
        <pt x="245" y="557" on="1"/>
        <pt x="236" y="747" on="1"/>
        <pt x="365" y="747" on="1"/>
        <pt x="356" y="557" on="1"/>
        <pt x="530" y="630" on="1"/>
        <pt x="569" y="516" on="1"/>
        <pt x="386" y="461" on="1"/>
        <pt x="512" y="308" on="1"/>
        <pt x="408" y="239" on="1"/>
        <pt x="300" y="401" on="1"/>
      </contour>
    </TTGlyph>
    <TTGlyph name="at" xMin="61" yMin="-121" xMax="846" yMax="709">
      <contour>
        <pt x="672" y="-121" on="1"/>
        <pt x="462" y="-121" on="1"/>
        <pt x="367" y="-121" on="0"/>
        <pt x="218" y="-61" on="0"/>
        <pt x="115" y="48" on="0"/>
        <pt x="61" y="199" on="0"/>
        <pt x="61" y="291" on="1"/>
        <pt x="61" y="382" on="0"/>
        <pt x="117" y="536" on="0"/>
        <pt x="221" y="647" on="0"/>
        <pt x="369" y="709" on="0"/>
        <pt x="462" y="709" on="1"/>
        <pt x="548" y="709" on="0"/>
        <pt x="690" y="656" on="0"/>
        <pt x="791" y="559" on="0"/>
        <pt x="846" y="420" on="0"/>
        <pt x="846" y="335" on="1"/>
        <pt x="846" y="215" on="0"/>
        <pt x="745" y="82" on="0"/>
        <pt x="659" y="82" on="1"/>
        <pt x="605" y="82" on="0"/>
        <pt x="537" y="134" on="0"/>
        <pt x="534" y="176" on="1"/>
        <pt x="529" y="176" on="1"/>
        <pt x="519" y="134" on="0"/>
        <pt x="464" y="84" on="0"/>
        <pt x="414" y="84" on="1"/>
        <pt x="348" y="84" on="0"/>
        <pt x="260" y="189" on="0"/>
        <pt x="260" y="291" on="1"/>
        <pt x="260" y="393" on="0"/>
        <pt x="348" y="498" on="0"/>
        <pt x="414" y="498" on="1"/>
        <pt x="456" y="498" on="0"/>
        <pt x="508" y="453" on="0"/>
        <pt x="517" y="420" on="1"/>
        <pt x="522" y="420" on="1"/>
        <pt x="522" y="489" on="1"/>
        <pt x="633" y="489" on="1"/>
        <pt x="633" y="220" on="1"/>
        <pt x="633" y="170" on="0"/>
        <pt x="677" y="170" on="1"/>
        <pt x="711" y="170" on="0"/>
        <pt x="753" y="243" on="0"/>
        <pt x="753" y="320" on="1"/>
        <pt x="753" y="348" on="1"/>
        <pt x="753" y="412" on="0"/>
        <pt x="710" y="514" on="0"/>
        <pt x="633" y="584" on="0"/>
        <pt x="526" y="622" on="0"/>
        <pt x="462" y="622" on="1"/>
        <pt x="391" y="622" on="0"/>
        <pt x="278" y="576" on="0"/>
        <pt x="197" y="493" on="0"/>
        <pt x="154" y="378" on="0"/>
        <pt x="154" y="310" on="1"/>
        <pt x="154" y="272" on="1"/>
        <pt x="154" y="204" on="0"/>
        <pt x="197" y="91" on="0"/>
        <pt x="278" y="11" on="0"/>
        <pt x="391" y="-33" on="0"/>
        <pt x="462" y="-33" on="1"/>
        <pt x="672" y="-33" on="1"/>
      </contour>
      <contour>
        <pt x="455" y="175" on="1"/>
        <pt x="481" y="175" on="0"/>
        <pt x="522" y="214" on="0"/>
        <pt x="522" y="237" on="1"/>
        <pt x="522" y="353" on="1"/>
        <pt x="522" y="376" on="0"/>
        <pt x="481" y="407" on="0"/>
        <pt x="455" y="407" on="1"/>
        <pt x="419" y="407" on="0"/>
        <pt x="376" y="361" on="0"/>
        <pt x="376" y="325" on="1"/>
        <pt x="376" y="257" on="1"/>
        <pt x="376" y="221" on="0"/>
        <pt x="419" y="175" on="0"/>
      </contour>
    </TTGlyph>
    <TTGlyph name="atilde" xMin="34" yMin="-12" xMax="539" yMax="750">
      <component glyphName="a" x="0" y="0" flags="0x204"/>
      <component glyphName="tilde" x="-31" y="0" flags="0x4"/>
    </TTGlyph>
    <TTGlyph name="atilde.alt01" xMin="43" yMin="-12" xMax="539" yMax="750">
      <component glyphName="a.alt01" x="0" y="0" flags="0x204"/>
      <component glyphName="tilde" x="15" y="0" flags="0x4"/>
    </TTGlyph>
    <TTGlyph name="b" xMin="69" yMin="-12" xMax="565" yMax="740">
      <contour>
        <pt x="69" y="740" on="1"/>
        <pt x="217" y="740" on="1"/>
        <pt x="217" y="437" on="1"/>
        <pt x="222" y="437" on="1"/>
        <pt x="233" y="481" on="0"/>
        <pt x="312" y="537" on="0"/>
        <pt x="363" y="537" on="1"/>
        <pt x="463" y="537" on="0"/>
        <pt x="565" y="397" on="0"/>
        <pt x="565" y="263" on="1"/>
        <pt x="565" y="129" on="0"/>
        <pt x="463" y="-12" on="0"/>
        <pt x="363" y="-12" on="1"/>
        <pt x="337" y="-12" on="0"/>
        <pt x="291" y="3" on="0"/>
        <pt x="254" y="30" on="0"/>
        <pt x="228" y="67" on="0"/>
        <pt x="222" y="88" on="1"/>
        <pt x="217" y="88" on="1"/>
        <pt x="217" y="0" on="1"/>
        <pt x="69" y="0" on="1"/>
      </contour>
      <contour>
        <pt x="314" y="108" on="1"/>
        <pt x="356" y="108" on="0"/>
        <pt x="411" y="167" on="0"/>
        <pt x="411" y="217" on="1"/>
        <pt x="411" y="308" on="1"/>
        <pt x="411" y="358" on="0"/>
        <pt x="356" y="417" on="0"/>
        <pt x="314" y="417" on="1"/>
        <pt x="272" y="417" on="0"/>
        <pt x="217" y="376" on="0"/>
        <pt x="217" y="340" on="1"/>
        <pt x="217" y="185" on="1"/>
        <pt x="217" y="149" on="0"/>
        <pt x="272" y="108" on="0"/>
      </contour>
    </TTGlyph>
    <TTGlyph name="backslash" xMin="36" yMin="-151" xMax="456" yMax="740">
      <contour>
        <pt x="334" y="-151" on="1"/>
        <pt x="36" y="740" on="1"/>
        <pt x="158" y="740" on="1"/>
        <pt x="456" y="-151" on="1"/>
      </contour>
    </TTGlyph>
    <TTGlyph name="bar" xMin="138" yMin="-138" xMax="264" yMax="760">
      <contour>
        <pt x="138" y="-138" on="1"/>
        <pt x="138" y="760" on="1"/>
        <pt x="264" y="760" on="1"/>
        <pt x="264" y="-138" on="1"/>
      </contour>
    </TTGlyph>
    <TTGlyph name="beta" xMin="69" yMin="-200" xMax="565" yMax="752">
      <contour>
        <pt x="69" y="478" on="1"/>
        <pt x="69" y="612" on="0"/>
        <pt x="184" y="752" on="0"/>
        <pt x="301" y="752" on="1"/>
        <pt x="362" y="752" on="0"/>
        <pt x="451" y="722" on="0"/>
        <pt x="507" y="669" on="0"/>
        <pt x="534" y="599" on="0"/>
        <pt x="534" y="560" on="1"/>
        <pt x="534" y="492" on="0"/>
        <pt x="473" y="407" on="0"/>
        <pt x="416" y="389" on="1"/>
        <pt x="416" y="384" on="1"/>
        <pt x="487" y="375" on="0"/>
        <pt x="565" y="290" on="0"/>
        <pt x="565" y="217" on="1"/>
        <pt x="565" y="167" on="0"/>
        <pt x="539" y="83" on="0"/>
        <pt x="489" y="22" on="0"/>
        <pt x="414" y="-12" on="0"/>
        <pt x="365" y="-12" on="1"/>
        <pt x="311" y="-12" on="0"/>
        <pt x="233" y="45" on="0"/>
        <pt x="222" y="88" on="1"/>
        <pt x="217" y="88" on="1"/>
        <pt x="217" y="-200" on="1"/>
        <pt x="69" y="-200" on="1"/>
      </contour>
      <contour>
        <pt x="277" y="435" on="1"/>
        <pt x="310" y="435" on="1"/>
        <pt x="342" y="435" on="0"/>
        <pt x="385" y="479" on="0"/>
        <pt x="385" y="514" on="1"/>
        <pt x="385" y="544" on="1"/>
        <pt x="385" y="585" on="0"/>
        <pt x="345" y="635" on="0"/>
        <pt x="301" y="635" on="1"/>
        <pt x="263" y="635" on="0"/>
        <pt x="217" y="581" on="0"/>
        <pt x="217" y="531" on="1"/>
        <pt x="217" y="185" on="1"/>
        <pt x="217" y="147" on="0"/>
        <pt x="271" y="105" on="0"/>
        <pt x="316" y="105" on="1"/>
        <pt x="363" y="105" on="0"/>
        <pt x="416" y="155" on="0"/>
        <pt x="416" y="200" on="1"/>
        <pt x="416" y="234" on="1"/>
        <pt x="416" y="274" on="0"/>
        <pt x="363" y="320" on="0"/>
        <pt x="316" y="320" on="1"/>
        <pt x="277" y="320" on="1"/>
      </contour>
    </TTGlyph>
    <TTGlyph name="braceleft" xMin="19" yMin="-138" xMax="322" yMax="760">
      <contour>
        <pt x="213" y="-138" on="1"/>
        <pt x="172" y="-138" on="0"/>
        <pt x="116" y="-86" on="0"/>
        <pt x="116" y="-37" on="1"/>
        <pt x="116" y="166" on="1"/>
        <pt x="116" y="210" on="0"/>
        <pt x="61" y="255" on="0"/>
        <pt x="19" y="255" on="1"/>
        <pt x="19" y="368" on="1"/>
        <pt x="61" y="368" on="0"/>
        <pt x="116" y="413" on="0"/>
        <pt x="116" y="457" on="1"/>
        <pt x="116" y="659" on="1"/>
        <pt x="116" y="708" on="0"/>
        <pt x="172" y="760" on="0"/>
        <pt x="213" y="760" on="1"/>
        <pt x="322" y="760" on="1"/>
        <pt x="322" y="656" on="1"/>
        <pt x="253" y="656" on="1"/>
        <pt x="253" y="441" on="1"/>
        <pt x="253" y="417" on="0"/>
        <pt x="236" y="374" on="0"/>
        <pt x="208" y="340" on="0"/>
        <pt x="170" y="317" on="0"/>
        <pt x="149" y="313" on="1"/>
        <pt x="149" y="309" on="1"/>
        <pt x="170" y="305" on="0"/>
        <pt x="208" y="282" on="0"/>
        <pt x="236" y="248" on="0"/>
        <pt x="253" y="205" on="0"/>
        <pt x="253" y="181" on="1"/>
        <pt x="253" y="-34" on="1"/>
        <pt x="322" y="-34" on="1"/>
        <pt x="322" y="-138" on="1"/>
      </contour>
    </TTGlyph>
    <TTGlyph name="braceright" xMin="50" yMin="-138" xMax="353" yMax="760">
      <contour>
        <pt x="159" y="760" on="1"/>
        <pt x="200" y="760" on="0"/>
        <pt x="256" y="708" on="0"/>
        <pt x="256" y="659" on="1"/>
        <pt x="256" y="457" on="1"/>
        <pt x="256" y="413" on="0"/>
        <pt x="311" y="368" on="0"/>
        <pt x="353" y="368" on="1"/>
        <pt x="353" y="255" on="1"/>
        <pt x="311" y="255" on="0"/>
        <pt x="256" y="210" on="0"/>
        <pt x="256" y="166" on="1"/>
        <pt x="256" y="-37" on="1"/>
        <pt x="256" y="-86" on="0"/>
        <pt x="200" y="-138" on="0"/>
        <pt x="159" y="-138" on="1"/>
        <pt x="50" y="-138" on="1"/>
        <pt x="50" y="-34" on="1"/>
        <pt x="119" y="-34" on="1"/>
        <pt x="119" y="182" on="1"/>
        <pt x="119" y="206" on="0"/>
        <pt x="136" y="249" on="0"/>
        <pt x="164" y="283" on="0"/>
        <pt x="202" y="306" on="0"/>
        <pt x="223" y="310" on="1"/>
        <pt x="223" y="314" on="1"/>
        <pt x="202" y="318" on="0"/>
        <pt x="164" y="341" on="0"/>
        <pt x="136" y="375" on="0"/>
        <pt x="119" y="418" on="0"/>
        <pt x="119" y="442" on="1"/>
        <pt x="119" y="656" on="1"/>
        <pt x="50" y="656" on="1"/>
        <pt x="50" y="760" on="1"/>
      </contour>
    </TTGlyph>
    <TTGlyph name="bracketleft" xMin="77" yMin="-138" xMax="284" yMax="760">
      <contour>
        <pt x="77" y="-138" on="1"/>
        <pt x="77" y="760" on="1"/>
        <pt x="284" y="760" on="1"/>
        <pt x="284" y="656" on="1"/>
        <pt x="214" y="656" on="1"/>
        <pt x="214" y="-34" on="1"/>
        <pt x="284" y="-34" on="1"/>
        <pt x="284" y="-138" on="1"/>
      </contour>
    </TTGlyph>
    <TTGlyph name="bracketright" xMin="50" yMin="-138" xMax="257" yMax="760">
      <contour>
        <pt x="257" y="760" on="1"/>
        <pt x="257" y="-138" on="1"/>
        <pt x="50" y="-138" on="1"/>
        <pt x="50" y="-34" on="1"/>
        <pt x="120" y="-34" on="1"/>
        <pt x="120" y="656" on="1"/>
        <pt x="50" y="656" on="1"/>
        <pt x="50" y="760" on="1"/>
      </contour>
    </TTGlyph>
    <TTGlyph name="breve" xMin="110" yMin="579" xMax="490" yMax="791">
      <contour>
        <pt x="300" y="579" on="1"/>
        <pt x="256" y="579" on="0"/>
        <pt x="192" y="612" on="0"/>
        <pt x="148" y="662" on="0"/>
        <pt x="119" y="722" on="0"/>
        <pt x="110" y="749" on="1"/>
        <pt x="191" y="791" on="1"/>
        <pt x="211" y="758" on="1"/>
        <pt x="233" y="722" on="0"/>
        <pt x="274" y="682" on="0"/>
        <pt x="300" y="682" on="1"/>
        <pt x="326" y="682" on="0"/>
        <pt x="368" y="722" on="0"/>
        <pt x="390" y="758" on="1"/>
        <pt x="410" y="791" on="1"/>
        <pt x="490" y="749" on="1"/>
        <pt x="481" y="722" on="0"/>
        <pt x="451" y="662" on="0"/>
        <pt x="405" y="612" on="0"/>
        <pt x="342" y="579" on="0"/>
      </contour>
    </TTGlyph>
    <TTGlyph name="breve.case" xMin="110" yMin="740" xMax="490" yMax="952">
      <contour>
        <pt x="300" y="740" on="1"/>
        <pt x="256" y="740" on="0"/>
        <pt x="192" y="773" on="0"/>
        <pt x="147" y="823" on="0"/>
        <pt x="119" y="883" on="0"/>
        <pt x="110" y="910" on="1"/>
        <pt x="191" y="952" on="1"/>
        <pt x="210" y="920" on="1"/>
        <pt x="232" y="883" on="0"/>
        <pt x="272" y="843" on="0"/>
        <pt x="300" y="843" on="1"/>
        <pt x="328" y="843" on="0"/>
        <pt x="369" y="883" on="0"/>
        <pt x="391" y="920" on="1"/>
        <pt x="410" y="952" on="1"/>
        <pt x="490" y="910" on="1"/>
        <pt x="481" y="883" on="0"/>
        <pt x="451" y="823" on="0"/>
        <pt x="406" y="773" on="0"/>
        <pt x="342" y="740" on="0"/>
      </contour>
    </TTGlyph>
    <TTGlyph name="breve.cyrl" xMin="108" yMin="579" xMax="492" yMax="785">
      <contour>
        <pt x="300" y="579" on="1"/>
        <pt x="234" y="579" on="0"/>
        <pt x="152" y="637" on="0"/>
        <pt x="129" y="691" on="1"/>
        <pt x="108" y="742" on="1"/>
        <pt x="223" y="785" on="1"/>
        <pt x="255" y="684" on="1"/>
        <pt x="261" y="681" on="0"/>
        <pt x="287" y="677" on="0"/>
        <pt x="300" y="677" on="1"/>
        <pt x="313" y="677" on="0"/>
        <pt x="339" y="681" on="0"/>
        <pt x="345" y="684" on="1"/>
        <pt x="377" y="785" on="1"/>
        <pt x="492" y="742" on="1"/>
        <pt x="471" y="691" on="1"/>
        <pt x="448" y="637" on="0"/>
        <pt x="366" y="579" on="0"/>
      </contour>
    </TTGlyph>
    <TTGlyph name="breve.cyrl_case" xMin="108" yMin="740" xMax="492" yMax="946">
      <contour>
        <pt x="300" y="740" on="1"/>
        <pt x="234" y="740" on="0"/>
        <pt x="152" y="798" on="0"/>
        <pt x="129" y="852" on="1"/>
        <pt x="108" y="903" on="1"/>
        <pt x="223" y="946" on="1"/>
        <pt x="255" y="845" on="1"/>
        <pt x="261" y="842" on="0"/>
        <pt x="287" y="838" on="0"/>
        <pt x="300" y="838" on="1"/>
        <pt x="313" y="838" on="0"/>
        <pt x="339" y="842" on="0"/>
        <pt x="345" y="845" on="1"/>
        <pt x="377" y="946" on="1"/>
        <pt x="492" y="903" on="1"/>
        <pt x="471" y="852" on="1"/>
        <pt x="448" y="798" on="0"/>
        <pt x="366" y="740" on="0"/>
      </contour>
    </TTGlyph>
    <TTGlyph name="breveacute" xMin="-198" yMin="572" xMax="198" yMax="966">
      <contour>
        <pt x="0" y="572" on="1"/>
        <pt x="-42" y="572" on="0"/>
        <pt x="-107" y="599" on="0"/>
        <pt x="-155" y="643" on="0"/>
        <pt x="-188" y="695" on="0"/>
        <pt x="-198" y="721" on="1"/>
        <pt x="-123" y="768" on="1"/>
        <pt x="-103" y="738" on="1"/>
        <pt x="-77" y="699" on="0"/>
        <pt x="-23" y="673" on="0"/>
        <pt x="0" y="673" on="1"/>
        <pt x="26" y="673" on="0"/>
        <pt x="77" y="700" on="0"/>
        <pt x="103" y="738" on="1"/>
        <pt x="123" y="768" on="1"/>
        <pt x="198" y="721" on="1"/>
        <pt x="188" y="695" on="0"/>
        <pt x="155" y="643" on="0"/>
        <pt x="107" y="599" on="0"/>
        <pt x="42" y="572" on="0"/>
      </contour>
      <contour>
        <pt x="20" y="733" on="1"/>
        <pt x="-59" y="772" on="1"/>
        <pt x="37" y="966" on="1"/>
        <pt x="150" y="909" on="1"/>
      </contour>
    </TTGlyph>
    <TTGlyph name="breveacute.case" xMin="-198" yMin="733" xMax="198" yMax="1127">
      <contour>
        <pt x="0" y="733" on="1"/>
        <pt x="-42" y="733" on="0"/>
        <pt x="-107" y="760" on="0"/>
        <pt x="-155" y="804" on="0"/>
        <pt x="-188" y="856" on="0"/>
        <pt x="-198" y="882" on="1"/>
        <pt x="-123" y="929" on="1"/>
        <pt x="-103" y="899" on="1"/>
        <pt x="-77" y="860" on="0"/>
        <pt x="-23" y="834" on="0"/>
        <pt x="0" y="834" on="1"/>
        <pt x="26" y="834" on="0"/>
        <pt x="77" y="861" on="0"/>
        <pt x="103" y="899" on="1"/>
        <pt x="123" y="929" on="1"/>
        <pt x="198" y="882" on="1"/>
        <pt x="188" y="856" on="0"/>
        <pt x="155" y="804" on="0"/>
        <pt x="107" y="760" on="0"/>
        <pt x="42" y="733" on="0"/>
      </contour>
      <contour>
        <pt x="20" y="894" on="1"/>
        <pt x="-59" y="933" on="1"/>
        <pt x="37" y="1127" on="1"/>
        <pt x="150" y="1070" on="1"/>
      </contour>
    </TTGlyph>
    <TTGlyph name="brevegrave" xMin="-198" yMin="572" xMax="198" yMax="966">
      <contour>
        <pt x="0" y="572" on="1"/>
        <pt x="-42" y="572" on="0"/>
        <pt x="-107" y="599" on="0"/>
        <pt x="-155" y="643" on="0"/>
        <pt x="-188" y="695" on="0"/>
        <pt x="-198" y="721" on="1"/>
        <pt x="-123" y="768" on="1"/>
        <pt x="-103" y="738" on="1"/>
        <pt x="-77" y="699" on="0"/>
        <pt x="-23" y="673" on="0"/>
        <pt x="0" y="673" on="1"/>
        <pt x="26" y="673" on="0"/>
        <pt x="77" y="700" on="0"/>
        <pt x="103" y="738" on="1"/>
        <pt x="123" y="768" on="1"/>
        <pt x="198" y="721" on="1"/>
        <pt x="188" y="695" on="0"/>
        <pt x="155" y="643" on="0"/>
        <pt x="107" y="599" on="0"/>
        <pt x="42" y="572" on="0"/>
      </contour>
      <contour>
        <pt x="-147" y="909" on="1"/>
        <pt x="-36" y="966" on="1"/>
        <pt x="60" y="774" on="1"/>
        <pt x="-20" y="733" on="1"/>
      </contour>
    </TTGlyph>
    <TTGlyph name="brevegrave.case" xMin="-198" yMin="733" xMax="198" yMax="1127">
      <contour>
        <pt x="0" y="733" on="1"/>
        <pt x="-42" y="733" on="0"/>
        <pt x="-107" y="760" on="0"/>
        <pt x="-155" y="804" on="0"/>
        <pt x="-188" y="856" on="0"/>
        <pt x="-198" y="882" on="1"/>
        <pt x="-123" y="929" on="1"/>
        <pt x="-103" y="899" on="1"/>
        <pt x="-77" y="860" on="0"/>
        <pt x="-23" y="834" on="0"/>
        <pt x="0" y="834" on="1"/>
        <pt x="26" y="834" on="0"/>
        <pt x="77" y="861" on="0"/>
        <pt x="103" y="899" on="1"/>
        <pt x="123" y="929" on="1"/>
        <pt x="198" y="882" on="1"/>
        <pt x="188" y="856" on="0"/>
        <pt x="155" y="804" on="0"/>
        <pt x="107" y="760" on="0"/>
        <pt x="42" y="733" on="0"/>
      </contour>
      <contour>
        <pt x="-147" y="1070" on="1"/>
        <pt x="-36" y="1127" on="1"/>
        <pt x="60" y="935" on="1"/>
        <pt x="-20" y="894" on="1"/>
      </contour>
    </TTGlyph>
    <TTGlyph name="brevehook" xMin="-198" yMin="572" xMax="198" yMax="952">
      <contour>
        <pt x="0" y="572" on="1"/>
        <pt x="-42" y="572" on="0"/>
        <pt x="-107" y="599" on="0"/>
        <pt x="-155" y="643" on="0"/>
        <pt x="-188" y="695" on="0"/>
        <pt x="-198" y="721" on="1"/>
        <pt x="-123" y="768" on="1"/>
        <pt x="-103" y="738" on="1"/>
        <pt x="-77" y="699" on="0"/>
        <pt x="-23" y="673" on="0"/>
        <pt x="0" y="673" on="1"/>
        <pt x="26" y="673" on="0"/>
        <pt x="77" y="700" on="0"/>
        <pt x="103" y="738" on="1"/>
        <pt x="123" y="768" on="1"/>
        <pt x="198" y="721" on="1"/>
        <pt x="188" y="695" on="0"/>
        <pt x="155" y="643" on="0"/>
        <pt x="107" y="599" on="0"/>
        <pt x="42" y="572" on="0"/>
      </contour>
      <contour>
        <pt x="-130" y="952" on="1"/>
        <pt x="6" y="952" on="1"/>
        <pt x="34" y="952" on="0"/>
        <pt x="72" y="940" on="0"/>
        <pt x="94" y="920" on="0"/>
        <pt x="104" y="894" on="0"/>
        <pt x="104" y="880" on="1"/>
        <pt x="104" y="850" on="0"/>
        <pt x="67" y="784" on="0"/>
        <pt x="42" y="753" on="1"/>
        <pt x="15" y="720" on="1"/>
        <pt x="-51" y="752" on="1"/>
        <pt x="-8" y="851" on="1"/>
        <pt x="-130" y="851" on="1"/>
      </contour>
    </TTGlyph>
    <TTGlyph name="brevehook.case" xMin="-198" yMin="733" xMax="198" yMax="1113">
      <contour>
        <pt x="-130" y="1113" on="1"/>
        <pt x="6" y="1113" on="1"/>
        <pt x="34" y="1113" on="0"/>
        <pt x="72" y="1101" on="0"/>
        <pt x="94" y="1081" on="0"/>
        <pt x="104" y="1055" on="0"/>
        <pt x="104" y="1041" on="1"/>
        <pt x="104" y="1011" on="0"/>
        <pt x="67" y="945" on="0"/>
        <pt x="42" y="914" on="1"/>
        <pt x="15" y="881" on="1"/>
        <pt x="-51" y="913" on="1"/>
        <pt x="-8" y="1012" on="1"/>
        <pt x="-130" y="1012" on="1"/>
      </contour>
      <contour>
        <pt x="0" y="733" on="1"/>
        <pt x="-42" y="733" on="0"/>
        <pt x="-107" y="760" on="0"/>
        <pt x="-155" y="804" on="0"/>
        <pt x="-188" y="856" on="0"/>
        <pt x="-198" y="882" on="1"/>
        <pt x="-123" y="929" on="1"/>
        <pt x="-103" y="899" on="1"/>
        <pt x="-77" y="860" on="0"/>
        <pt x="-23" y="834" on="0"/>
        <pt x="0" y="834" on="1"/>
        <pt x="26" y="834" on="0"/>
        <pt x="77" y="861" on="0"/>
        <pt x="103" y="899" on="1"/>
        <pt x="123" y="929" on="1"/>
        <pt x="198" y="882" on="1"/>
        <pt x="188" y="856" on="0"/>
        <pt x="155" y="804" on="0"/>
        <pt x="107" y="760" on="0"/>
        <pt x="42" y="733" on="0"/>
      </contour>
    </TTGlyph>
    <TTGlyph name="brevetilde" xMin="-198" yMin="572" xMax="198" yMax="931">
      <contour>
        <pt x="0" y="572" on="1"/>
        <pt x="-42" y="572" on="0"/>
        <pt x="-107" y="599" on="0"/>
        <pt x="-155" y="643" on="0"/>
        <pt x="-188" y="695" on="0"/>
        <pt x="-198" y="721" on="1"/>
        <pt x="-123" y="768" on="1"/>
        <pt x="-103" y="738" on="1"/>
        <pt x="-77" y="699" on="0"/>
        <pt x="-23" y="673" on="0"/>
        <pt x="0" y="673" on="1"/>
        <pt x="26" y="673" on="0"/>
        <pt x="77" y="700" on="0"/>
        <pt x="103" y="738" on="1"/>
        <pt x="123" y="768" on="1"/>
        <pt x="198" y="721" on="1"/>
        <pt x="188" y="695" on="0"/>
        <pt x="155" y="643" on="0"/>
        <pt x="107" y="599" on="0"/>
        <pt x="42" y="572" on="0"/>
      </contour>
      <contour>
        <pt x="71" y="788" on="1"/>
        <pt x="50" y="788" on="0"/>
        <pt x="16" y="798" on="0"/>
        <pt x="-2" y="806" on="1"/>
        <pt x="-23" y="815" on="0"/>
        <pt x="-58" y="828" on="0"/>
        <pt x="-77" y="828" on="1"/>
        <pt x="-94" y="828" on="0"/>
        <pt x="-120" y="817" on="0"/>
        <pt x="-136" y="804" on="1"/>
        <pt x="-186" y="868" on="1"/>
        <pt x="-168" y="895" on="0"/>
        <pt x="-112" y="931" on="0"/>
        <pt x="-72" y="931" on="1"/>
        <pt x="-50" y="931" on="0"/>
        <pt x="-16" y="919" on="0"/>
        <pt x="2" y="911" on="1"/>
        <pt x="23" y="903" on="0"/>
        <pt x="57" y="891" on="0"/>
        <pt x="76" y="891" on="1"/>
        <pt x="93" y="891" on="0"/>
        <pt x="119" y="903" on="0"/>
        <pt x="135" y="916" on="1"/>
        <pt x="185" y="852" on="1"/>
        <pt x="167" y="825" on="0"/>
        <pt x="111" y="788" on="0"/>
      </contour>
    </TTGlyph>
    <TTGlyph name="brevetilde.case" xMin="-198" yMin="733" xMax="198" yMax="1091">
      <contour>
        <pt x="71" y="948" on="1"/>
        <pt x="50" y="948" on="0"/>
        <pt x="16" y="958" on="0"/>
        <pt x="-2" y="966" on="1"/>
        <pt x="-23" y="975" on="0"/>
        <pt x="-58" y="988" on="0"/>
        <pt x="-77" y="988" on="1"/>
        <pt x="-94" y="988" on="0"/>
        <pt x="-120" y="977" on="0"/>
        <pt x="-136" y="964" on="1"/>
        <pt x="-186" y="1028" on="1"/>
        <pt x="-168" y="1055" on="0"/>
        <pt x="-112" y="1091" on="0"/>
        <pt x="-72" y="1091" on="1"/>
        <pt x="-50" y="1091" on="0"/>
        <pt x="-16" y="1079" on="0"/>
        <pt x="2" y="1071" on="1"/>
        <pt x="23" y="1063" on="0"/>
        <pt x="57" y="1051" on="0"/>
        <pt x="76" y="1051" on="1"/>
        <pt x="93" y="1051" on="0"/>
        <pt x="119" y="1063" on="0"/>
        <pt x="135" y="1076" on="1"/>
        <pt x="185" y="1012" on="1"/>
        <pt x="167" y="985" on="0"/>
        <pt x="111" y="948" on="0"/>
      </contour>
      <contour>
        <pt x="0" y="733" on="1"/>
        <pt x="-42" y="733" on="0"/>
        <pt x="-107" y="760" on="0"/>
        <pt x="-155" y="804" on="0"/>
        <pt x="-188" y="856" on="0"/>
        <pt x="-198" y="882" on="1"/>
        <pt x="-123" y="929" on="1"/>
        <pt x="-103" y="899" on="1"/>
        <pt x="-77" y="860" on="0"/>
        <pt x="-23" y="834" on="0"/>
        <pt x="0" y="834" on="1"/>
        <pt x="26" y="834" on="0"/>
        <pt x="77" y="861" on="0"/>
        <pt x="103" y="899" on="1"/>
        <pt x="123" y="929" on="1"/>
        <pt x="198" y="882" on="1"/>
        <pt x="188" y="856" on="0"/>
        <pt x="155" y="804" on="0"/>
        <pt x="107" y="760" on="0"/>
        <pt x="42" y="733" on="0"/>
      </contour>
    </TTGlyph>
    <TTGlyph name="brokenbar" xMin="138" yMin="-138" xMax="264" yMax="760">
      <contour>
        <pt x="138" y="401" on="1"/>
        <pt x="138" y="760" on="1"/>
        <pt x="264" y="760" on="1"/>
        <pt x="264" y="401" on="1"/>
      </contour>
      <contour>
        <pt x="138" y="-138" on="1"/>
        <pt x="138" y="221" on="1"/>
        <pt x="264" y="221" on="1"/>
        <pt x="264" y="-138" on="1"/>
      </contour>
    </TTGlyph>
    <TTGlyph name="bullet" xMin="62" yMin="150" xMax="368" yMax="448">
      <contour>
        <pt x="215" y="150" on="1"/>
        <pt x="173" y="150" on="0"/>
        <pt x="115" y="170" on="0"/>
        <pt x="79" y="205" on="0"/>
        <pt x="62" y="253" on="0"/>
        <pt x="62" y="281" on="1"/>
        <pt x="62" y="317" on="1"/>
        <pt x="62" y="345" on="0"/>
        <pt x="79" y="393" on="0"/>
        <pt x="115" y="428" on="0"/>
        <pt x="173" y="448" on="0"/>
        <pt x="215" y="448" on="1"/>
        <pt x="257" y="448" on="0"/>
        <pt x="315" y="428" on="0"/>
        <pt x="351" y="393" on="0"/>
        <pt x="368" y="345" on="0"/>
        <pt x="368" y="317" on="1"/>
        <pt x="368" y="281" on="1"/>
        <pt x="368" y="253" on="0"/>
        <pt x="351" y="205" on="0"/>
        <pt x="315" y="170" on="0"/>
        <pt x="257" y="150" on="0"/>
      </contour>
    </TTGlyph>
    <TTGlyph name="c" xMin="36" yMin="-12" xMax="494" yMax="537">
      <contour>
        <pt x="281" y="-12" on="1"/>
        <pt x="222" y="-12" on="0"/>
        <pt x="130" y="27" on="0"/>
        <pt x="68" y="98" on="0"/>
        <pt x="36" y="200" on="0"/>
        <pt x="36" y="263" on="1"/>
        <pt x="36" y="326" on="0"/>
        <pt x="68" y="427" on="0"/>
        <pt x="130" y="499" on="0"/>
        <pt x="222" y="537" on="0"/>
        <pt x="281" y="537" on="1"/>
        <pt x="361" y="537" on="0"/>
        <pt x="468" y="465" on="0"/>
        <pt x="491" y="400" on="1"/>
        <pt x="371" y="348" on="1"/>
        <pt x="364" y="378" on="0"/>
        <pt x="320" y="420" on="0"/>
        <pt x="281" y="420" on="1"/>
        <pt x="236" y="420" on="0"/>
        <pt x="190" y="361" on="0"/>
        <pt x="190" y="311" on="1"/>
        <pt x="190" y="213" on="1"/>
        <pt x="190" y="163" on="0"/>
        <pt x="236" y="105" on="0"/>
        <pt x="281" y="105" on="1"/>
        <pt x="321" y="105" on="0"/>
        <pt x="368" y="148" on="0"/>
        <pt x="379" y="183" on="1"/>
        <pt x="494" y="133" on="1"/>
        <pt x="468" y="58" on="0"/>
        <pt x="359" y="-12" on="0"/>
      </contour>
    </TTGlyph>
    <TTGlyph name="cacute" xMin="36" yMin="-12" xMax="494" yMax="816">
      <component glyphName="c" x="0" y="0" flags="0x204"/>
      <component glyphName="acute" x="-25" y="0" flags="0x4"/>
    </TTGlyph>
    <TTGlyph name="caron" xMin="106" yMin="587" xMax="494" yMax="804">
      <contour>
        <pt x="238" y="587" on="1"/>
        <pt x="106" y="746" on="1"/>
        <pt x="179" y="804" on="1"/>
        <pt x="300" y="689" on="1"/>
        <pt x="421" y="804" on="1"/>
        <pt x="494" y="746" on="1"/>
        <pt x="362" y="587" on="1"/>
      </contour>
    </TTGlyph>
    <TTGlyph name="caron.case" xMin="106" yMin="748" xMax="494" yMax="965">
      <contour>
        <pt x="238" y="748" on="1"/>
        <pt x="106" y="907" on="1"/>
        <pt x="179" y="965" on="1"/>
        <pt x="300" y="850" on="1"/>
        <pt x="421" y="965" on="1"/>
        <pt x="494" y="907" on="1"/>
        <pt x="362" y="748" on="1"/>
      </contour>
    </TTGlyph>
    <TTGlyph name="ccaron" xMin="36" yMin="-12" xMax="494" yMax="804">
      <component glyphName="c" x="0" y="0" flags="0x204"/>
      <component glyphName="caron" x="-25" y="0" flags="0x4"/>
    </TTGlyph>
    <TTGlyph name="ccedilla" xMin="36" yMin="-212" xMax="494" yMax="537">
      <contour>
        <pt x="281" y="537" on="1"/>
        <pt x="361" y="537" on="0"/>
        <pt x="468" y="465" on="0"/>
        <pt x="491" y="400" on="1"/>
        <pt x="371" y="348" on="1"/>
        <pt x="364" y="378" on="0"/>
        <pt x="320" y="420" on="0"/>
        <pt x="281" y="420" on="1"/>
        <pt x="236" y="420" on="0"/>
        <pt x="190" y="361" on="0"/>
        <pt x="190" y="311" on="1"/>
        <pt x="190" y="213" on="1"/>
        <pt x="190" y="163" on="0"/>
        <pt x="236" y="105" on="0"/>
        <pt x="281" y="105" on="1"/>
        <pt x="321" y="105" on="0"/>
        <pt x="368" y="148" on="0"/>
        <pt x="379" y="183" on="1"/>
        <pt x="494" y="133" on="1"/>
        <pt x="468" y="60" on="0"/>
        <pt x="364" y="-10" on="0"/>
        <pt x="291" y="-12" on="1"/>
        <pt x="282" y="-55" on="1"/>
        <pt x="286" y="-59" on="1"/>
        <pt x="298" y="-56" on="0"/>
        <pt x="322" y="-52" on="0"/>
        <pt x="334" y="-52" on="1"/>
        <pt x="364" y="-52" on="0"/>
        <pt x="407" y="-84" on="0"/>
        <pt x="407" y="-121" on="1"/>
        <pt x="407" y="-147" on="0"/>
        <pt x="385" y="-181" on="0"/>
        <pt x="348" y="-203" on="0"/>
        <pt x="300" y="-212" on="0"/>
        <pt x="275" y="-212" on="1"/>
        <pt x="223" y="-212" on="0"/>
        <pt x="164" y="-183" on="0"/>
        <pt x="151" y="-168" on="1"/>
        <pt x="197" y="-112" on="1"/>
        <pt x="207" y="-124" on="0"/>
        <pt x="240" y="-141" on="0"/>
        <pt x="263" y="-141" on="1"/>
        <pt x="282" y="-141" on="0"/>
        <pt x="307" y="-129" on="0"/>
        <pt x="307" y="-116" on="1"/>
        <pt x="307" y="-110" on="0"/>
        <pt x="301" y="-98" on="0"/>
        <pt x="284" y="-87" on="0"/>
        <pt x="255" y="-78" on="0"/>
        <pt x="232" y="-76" on="1"/>
        <pt x="211" y="-74" on="1"/>
        <pt x="225" y="-7" on="1"/>
        <pt x="133" y="10" on="0"/>
        <pt x="36" y="152" on="0"/>
        <pt x="36" y="263" on="1"/>
        <pt x="36" y="326" on="0"/>
        <pt x="68" y="427" on="0"/>
        <pt x="130" y="499" on="0"/>
        <pt x="222" y="537" on="0"/>
      </contour>
    </TTGlyph>
    <TTGlyph name="ccircumflex" xMin="36" yMin="-12" xMax="494" yMax="795">
      <component glyphName="c" x="0" y="0" flags="0x204"/>
      <component glyphName="circumflex" x="-25" y="0" flags="0x4"/>
    </TTGlyph>
    <TTGlyph name="cdotaccent" xMin="36" yMin="-12" xMax="494" yMax="760">
      <component glyphName="c" x="0" y="0" flags="0x204"/>
      <component glyphName="dotaccent" x="-25" y="0" flags="0x4"/>
    </TTGlyph>
    <TTGlyph name="cedilla" xMin="190" yMin="-212" xMax="446" yMax="30">
      <contour>
        <pt x="314" y="-212" on="1"/>
        <pt x="262" y="-212" on="0"/>
        <pt x="203" y="-183" on="0"/>
        <pt x="190" y="-168" on="1"/>
        <pt x="236" y="-112" on="1"/>
        <pt x="246" y="-124" on="0"/>
        <pt x="279" y="-141" on="0"/>
        <pt x="302" y="-141" on="1"/>
        <pt x="321" y="-141" on="0"/>
        <pt x="346" y="-129" on="0"/>
        <pt x="346" y="-116" on="1"/>
        <pt x="346" y="-110" on="0"/>
        <pt x="340" y="-98" on="0"/>
        <pt x="323" y="-87" on="0"/>
        <pt x="294" y="-78" on="0"/>
        <pt x="271" y="-76" on="1"/>
        <pt x="250" y="-74" on="1"/>
        <pt x="272" y="30" on="1"/>
        <pt x="339" y="30" on="1"/>
        <pt x="321" y="-55" on="1"/>
        <pt x="325" y="-59" on="1"/>
        <pt x="337" y="-56" on="0"/>
        <pt x="361" y="-52" on="0"/>
        <pt x="373" y="-52" on="1"/>
        <pt x="403" y="-52" on="0"/>
        <pt x="446" y="-84" on="0"/>
        <pt x="446" y="-121" on="1"/>
        <pt x="446" y="-147" on="0"/>
        <pt x="424" y="-181" on="0"/>
        <pt x="387" y="-203" on="0"/>
        <pt x="339" y="-212" on="0"/>
      </contour>
    </TTGlyph>
    <TTGlyph name="cent" xMin="41" yMin="-114" xMax="516" yMax="630">
      <contour>
        <pt x="237" y="-114" on="1"/>
        <pt x="237" y="-7" on="1"/>
        <pt x="143" y="11" on="0"/>
        <pt x="41" y="149" on="0"/>
        <pt x="41" y="258" on="1"/>
        <pt x="41" y="367" on="0"/>
        <pt x="144" y="506" on="0"/>
        <pt x="237" y="523" on="1"/>
        <pt x="237" y="630" on="1"/>
        <pt x="347" y="630" on="1"/>
        <pt x="347" y="524" on="1"/>
        <pt x="408" y="514" on="0"/>
        <pt x="486" y="450" on="0"/>
        <pt x="508" y="402" on="1"/>
        <pt x="402" y="344" on="1"/>
        <pt x="392" y="366" on="0"/>
        <pt x="361" y="402" on="0"/>
        <pt x="338" y="411" on="1"/>
        <pt x="338" y="104" on="1"/>
        <pt x="364" y="113" on="0"/>
        <pt x="399" y="150" on="0"/>
        <pt x="411" y="173" on="1"/>
        <pt x="516" y="114" on="1"/>
        <pt x="493" y="66" on="0"/>
        <pt x="410" y="1" on="0"/>
        <pt x="347" y="-8" on="1"/>
        <pt x="347" y="-114" on="1"/>
      </contour>
      <contour>
        <pt x="182" y="216" on="1"/>
        <pt x="182" y="176" on="0"/>
        <pt x="215" y="119" on="0"/>
        <pt x="247" y="106" on="1"/>
        <pt x="247" y="410" on="1"/>
        <pt x="215" y="397" on="0"/>
        <pt x="182" y="340" on="0"/>
        <pt x="182" y="300" on="1"/>
      </contour>
    </TTGlyph>
    <TTGlyph name="chi" xMin="12" yMin="-200" xMax="537" yMax="525">
      <contour>
        <pt x="88" y="525" on="1"/>
        <pt x="145" y="525" on="0"/>
        <pt x="202" y="484" on="0"/>
        <pt x="220" y="435" on="1"/>
        <pt x="278" y="279" on="1"/>
        <pt x="282" y="279" on="1"/>
        <pt x="379" y="525" on="1"/>
        <pt x="535" y="525" on="1"/>
        <pt x="365" y="172" on="1"/>
        <pt x="471" y="-85" on="1"/>
        <pt x="537" y="-85" on="1"/>
        <pt x="537" y="-200" on="1"/>
        <pt x="468" y="-200" on="1"/>
        <pt x="411" y="-200" on="0"/>
        <pt x="353" y="-158" on="0"/>
        <pt x="336" y="-110" on="1"/>
        <pt x="275" y="63" on="1"/>
        <pt x="271" y="63" on="1"/>
        <pt x="168" y="-200" on="1"/>
        <pt x="12" y="-200" on="1"/>
        <pt x="189" y="169" on="1"/>
        <pt x="85" y="410" on="1"/>
        <pt x="19" y="410" on="1"/>
        <pt x="19" y="525" on="1"/>
      </contour>
    </TTGlyph>
    <TTGlyph name="circumflex" xMin="106" yMin="578" xMax="494" yMax="795">
      <contour>
        <pt x="362" y="795" on="1"/>
        <pt x="494" y="636" on="1"/>
        <pt x="421" y="578" on="1"/>
        <pt x="300" y="693" on="1"/>
        <pt x="179" y="578" on="1"/>
        <pt x="106" y="636" on="1"/>
        <pt x="238" y="795" on="1"/>
      </contour>
    </TTGlyph>
    <TTGlyph name="circumflex.case" xMin="106" yMin="739" xMax="494" yMax="956">
      <contour>
        <pt x="362" y="956" on="1"/>
        <pt x="494" y="797" on="1"/>
        <pt x="421" y="739" on="1"/>
        <pt x="300" y="854" on="1"/>
        <pt x="179" y="739" on="1"/>
        <pt x="106" y="797" on="1"/>
        <pt x="238" y="956" on="1"/>
      </contour>
    </TTGlyph>
    <TTGlyph name="circumflexacute" xMin="-192" yMin="570" xMax="307" yMax="966">
      <contour>
        <pt x="173" y="733" on="1"/>
        <pt x="94" y="772" on="1"/>
        <pt x="193" y="966" on="1"/>
        <pt x="307" y="909" on="1"/>
      </contour>
      <contour>
        <pt x="47" y="781" on="1"/>
        <pt x="192" y="634" on="1"/>
        <pt x="124" y="570" on="1"/>
        <pt x="0" y="674" on="1"/>
        <pt x="-124" y="570" on="1"/>
        <pt x="-192" y="634" on="1"/>
        <pt x="-47" y="781" on="1"/>
      </contour>
    </TTGlyph>
    <TTGlyph name="circumflexacute.case" xMin="-192" yMin="731" xMax="307" yMax="1127">
      <contour>
        <pt x="173" y="894" on="1"/>
        <pt x="94" y="933" on="1"/>
        <pt x="193" y="1127" on="1"/>
        <pt x="307" y="1070" on="1"/>
      </contour>
      <contour>
        <pt x="47" y="942" on="1"/>
        <pt x="192" y="795" on="1"/>
        <pt x="124" y="731" on="1"/>
        <pt x="0" y="835" on="1"/>
        <pt x="-124" y="731" on="1"/>
        <pt x="-192" y="795" on="1"/>
        <pt x="-47" y="942" on="1"/>
      </contour>
    </TTGlyph>
    <TTGlyph name="circumflexbreve" xMin="-185" yMin="573" xMax="185" yMax="956">
      <contour>
        <pt x="48" y="754" on="1"/>
        <pt x="185" y="638" on="1"/>
        <pt x="125" y="573" on="1"/>
        <pt x="0" y="657" on="1"/>
        <pt x="-125" y="573" on="1"/>
        <pt x="-185" y="638" on="1"/>
        <pt x="-48" y="754" on="1"/>
      </contour>
      <contour>
        <pt x="0" y="778" on="1"/>
        <pt x="-38" y="778" on="0"/>
        <pt x="-99" y="803" on="0"/>
        <pt x="-144" y="842" on="0"/>
        <pt x="-175" y="889" on="0"/>
        <pt x="-184" y="912" on="1"/>
        <pt x="-115" y="956" on="1"/>
        <pt x="-95" y="932" on="1"/>
        <pt x="-68" y="899" on="0"/>
        <pt x="-28" y="871" on="0"/>
        <pt x="0" y="871" on="1"/>
        <pt x="28" y="871" on="0"/>
        <pt x="68" y="899" on="0"/>
        <pt x="95" y="932" on="1"/>
        <pt x="115" y="956" on="1"/>
        <pt x="184" y="912" on="1"/>
        <pt x="175" y="889" on="0"/>
        <pt x="144" y="842" on="0"/>
        <pt x="98" y="803" on="0"/>
        <pt x="38" y="778" on="0"/>
      </contour>
    </TTGlyph>
    <TTGlyph name="circumflexbreve.case" xMin="-187" yMin="734" xMax="187" yMax="1117">
      <contour>
        <pt x="48" y="916" on="1"/>
        <pt x="187" y="799" on="1"/>
        <pt x="127" y="734" on="1"/>
        <pt x="0" y="817" on="1"/>
        <pt x="-127" y="734" on="1"/>
        <pt x="-187" y="799" on="1"/>
        <pt x="-48" y="916" on="1"/>
      </contour>
      <contour>
        <pt x="0" y="939" on="1"/>
        <pt x="-42" y="939" on="0"/>
        <pt x="-105" y="964" on="0"/>
        <pt x="-149" y="1003" on="0"/>
        <pt x="-178" y="1050" on="0"/>
        <pt x="-187" y="1073" on="1"/>
        <pt x="-118" y="1117" on="1"/>
        <pt x="-98" y="1091" on="1"/>
        <pt x="-72" y="1058" on="0"/>
        <pt x="-29" y="1033" on="0"/>
        <pt x="0" y="1033" on="1"/>
        <pt x="29" y="1033" on="0"/>
        <pt x="72" y="1058" on="0"/>
        <pt x="98" y="1091" on="1"/>
        <pt x="118" y="1117" on="1"/>
        <pt x="187" y="1073" on="1"/>
        <pt x="178" y="1050" on="0"/>
        <pt x="149" y="1003" on="0"/>
        <pt x="105" y="964" on="0"/>
        <pt x="42" y="939" on="0"/>
      </contour>
    </TTGlyph>
    <TTGlyph name="circumflexgrave" xMin="-307" yMin="570" xMax="192" yMax="966">
      <contour>
        <pt x="-307" y="909" on="1"/>
        <pt x="-193" y="966" on="1"/>
        <pt x="-94" y="772" on="1"/>
        <pt x="-173" y="733" on="1"/>
      </contour>
      <contour>
        <pt x="47" y="781" on="1"/>
        <pt x="192" y="634" on="1"/>
        <pt x="124" y="570" on="1"/>
        <pt x="0" y="674" on="1"/>
        <pt x="-124" y="570" on="1"/>
        <pt x="-192" y="634" on="1"/>
        <pt x="-47" y="781" on="1"/>
      </contour>
    </TTGlyph>
    <TTGlyph name="circumflexgrave.case" xMin="-307" yMin="731" xMax="192" yMax="1127">
      <contour>
        <pt x="-307" y="1070" on="1"/>
        <pt x="-193" y="1127" on="1"/>
        <pt x="-94" y="933" on="1"/>
        <pt x="-173" y="894" on="1"/>
      </contour>
      <contour>
        <pt x="47" y="942" on="1"/>
        <pt x="192" y="795" on="1"/>
        <pt x="124" y="731" on="1"/>
        <pt x="0" y="835" on="1"/>
        <pt x="-124" y="731" on="1"/>
        <pt x="-192" y="795" on="1"/>
        <pt x="-47" y="942" on="1"/>
      </contour>
    </TTGlyph>
    <TTGlyph name="circumflexhook" xMin="-192" yMin="570" xMax="270" yMax="952">
      <contour>
        <pt x="38" y="952" on="1"/>
        <pt x="172" y="952" on="1"/>
        <pt x="200" y="952" on="0"/>
        <pt x="237" y="940" on="0"/>
        <pt x="260" y="920" on="0"/>
        <pt x="270" y="894" on="0"/>
        <pt x="270" y="880" on="1"/>
        <pt x="270" y="850" on="0"/>
        <pt x="232" y="783" on="0"/>
        <pt x="207" y="753" on="1"/>
        <pt x="180" y="720" on="1"/>
        <pt x="114" y="754" on="1"/>
        <pt x="157" y="851" on="1"/>
        <pt x="38" y="851" on="1"/>
      </contour>
      <contour>
        <pt x="47" y="781" on="1"/>
        <pt x="192" y="634" on="1"/>
        <pt x="124" y="570" on="1"/>
        <pt x="0" y="674" on="1"/>
        <pt x="-124" y="570" on="1"/>
        <pt x="-192" y="634" on="1"/>
        <pt x="-47" y="781" on="1"/>
      </contour>
    </TTGlyph>
    <TTGlyph name="circumflexhook.case" xMin="-192" yMin="731" xMax="270" yMax="1113">
      <contour>
        <pt x="38" y="1113" on="1"/>
        <pt x="172" y="1113" on="1"/>
        <pt x="200" y="1113" on="0"/>
        <pt x="237" y="1101" on="0"/>
        <pt x="260" y="1081" on="0"/>
        <pt x="270" y="1055" on="0"/>
        <pt x="270" y="1041" on="1"/>
        <pt x="270" y="1011" on="0"/>
        <pt x="232" y="944" on="0"/>
        <pt x="207" y="914" on="1"/>
        <pt x="180" y="881" on="1"/>
        <pt x="114" y="915" on="1"/>
        <pt x="157" y="1012" on="1"/>
        <pt x="38" y="1012" on="1"/>
      </contour>
      <contour>
        <pt x="47" y="942" on="1"/>
        <pt x="192" y="795" on="1"/>
        <pt x="124" y="731" on="1"/>
        <pt x="0" y="835" on="1"/>
        <pt x="-124" y="731" on="1"/>
        <pt x="-192" y="795" on="1"/>
        <pt x="-47" y="942" on="1"/>
      </contour>
    </TTGlyph>
    <TTGlyph name="circumflextilde" xMin="-190" yMin="570" xMax="190" yMax="942">
      <contour>
        <pt x="-75" y="942" on="1"/>
        <pt x="-52" y="942" on="0"/>
        <pt x="-17" y="930" on="0"/>
        <pt x="2" y="922" on="1"/>
        <pt x="24" y="913" on="0"/>
        <pt x="60" y="900" on="0"/>
        <pt x="80" y="900" on="1"/>
        <pt x="97" y="900" on="0"/>
        <pt x="123" y="912" on="0"/>
        <pt x="139" y="925" on="1"/>
        <pt x="189" y="861" on="1"/>
        <pt x="171" y="834" on="0"/>
        <pt x="115" y="797" on="0"/>
        <pt x="75" y="797" on="1"/>
        <pt x="52" y="797" on="0"/>
        <pt x="17" y="809" on="0"/>
        <pt x="-2" y="817" on="1"/>
        <pt x="-24" y="826" on="0"/>
        <pt x="-60" y="839" on="0"/>
        <pt x="-80" y="839" on="1"/>
        <pt x="-97" y="839" on="0"/>
        <pt x="-123" y="827" on="0"/>
        <pt x="-139" y="814" on="1"/>
        <pt x="-189" y="878" on="1"/>
        <pt x="-171" y="905" on="0"/>
        <pt x="-115" y="942" on="0"/>
      </contour>
      <contour>
        <pt x="48" y="768" on="1"/>
        <pt x="190" y="634" on="1"/>
        <pt x="124" y="570" on="1"/>
        <pt x="0" y="665" on="1"/>
        <pt x="-124" y="570" on="1"/>
        <pt x="-190" y="634" on="1"/>
        <pt x="-48" y="768" on="1"/>
      </contour>
    </TTGlyph>
    <TTGlyph name="circumflextilde.case" xMin="-190" yMin="731" xMax="190" yMax="1103">
      <contour>
        <pt x="-75" y="1103" on="1"/>
        <pt x="-52" y="1103" on="0"/>
        <pt x="-17" y="1091" on="0"/>
        <pt x="2" y="1083" on="1"/>
        <pt x="24" y="1074" on="0"/>
        <pt x="60" y="1061" on="0"/>
        <pt x="80" y="1061" on="1"/>
        <pt x="97" y="1061" on="0"/>
        <pt x="123" y="1073" on="0"/>
        <pt x="139" y="1086" on="1"/>
        <pt x="189" y="1022" on="1"/>
        <pt x="171" y="995" on="0"/>
        <pt x="115" y="958" on="0"/>
        <pt x="75" y="958" on="1"/>
        <pt x="52" y="958" on="0"/>
        <pt x="17" y="970" on="0"/>
        <pt x="-2" y="978" on="1"/>
        <pt x="-24" y="987" on="0"/>
        <pt x="-60" y="1000" on="0"/>
        <pt x="-80" y="1000" on="1"/>
        <pt x="-97" y="1000" on="0"/>
        <pt x="-123" y="988" on="0"/>
        <pt x="-139" y="975" on="1"/>
        <pt x="-189" y="1039" on="1"/>
        <pt x="-171" y="1066" on="0"/>
        <pt x="-115" y="1103" on="0"/>
      </contour>
      <contour>
        <pt x="48" y="929" on="1"/>
        <pt x="190" y="795" on="1"/>
        <pt x="124" y="731" on="1"/>
        <pt x="0" y="826" on="1"/>
        <pt x="-124" y="731" on="1"/>
        <pt x="-190" y="795" on="1"/>
        <pt x="-48" y="929" on="1"/>
      </contour>
    </TTGlyph>
    <TTGlyph name="colon" xMin="77" yMin="-11" xMax="253" yMax="536">
      <component glyphName="period" x="10" y="0" flags="0x4"/>
      <component glyphName="period" x="10" y="367" flags="0x4"/>
    </TTGlyph>
    <TTGlyph name="comma" xMin="38" yMin="-147" xMax="245" yMax="169">
      <contour>
        <pt x="157" y="169" on="1"/>
        <pt x="202" y="169" on="0"/>
        <pt x="245" y="124" on="0"/>
        <pt x="245" y="89" on="1"/>
        <pt x="245" y="69" on="1"/>
        <pt x="245" y="8" on="0"/>
        <pt x="186" y="-110" on="0"/>
        <pt x="138" y="-147" on="1"/>
        <pt x="38" y="-147" on="1"/>
        <pt x="73" y="-114" on="0"/>
        <pt x="123" y="-49" on="0"/>
        <pt x="136" y="-9" on="1"/>
        <pt x="101" y="-3" on="0"/>
        <pt x="69" y="40" on="0"/>
        <pt x="69" y="69" on="1"/>
        <pt x="69" y="89" on="1"/>
        <pt x="69" y="124" on="0"/>
        <pt x="112" y="169" on="0"/>
      </contour>
    </TTGlyph>
    <TTGlyph name="copyright" xMin="48" yMin="-12" xMax="744" yMax="710">
      <contour>
        <pt x="396" y="-12" on="1"/>
        <pt x="320" y="-12" on="0"/>
        <pt x="192" y="38" on="0"/>
        <pt x="100" y="132" on="0"/>
        <pt x="48" y="265" on="0"/>
        <pt x="48" y="349" on="1"/>
        <pt x="48" y="433" on="0"/>
        <pt x="100" y="566" on="0"/>
        <pt x="192" y="660" on="0"/>
        <pt x="320" y="710" on="0"/>
        <pt x="396" y="710" on="1"/>
        <pt x="472" y="710" on="0"/>
        <pt x="600" y="660" on="0"/>
        <pt x="692" y="566" on="0"/>
        <pt x="744" y="433" on="0"/>
        <pt x="744" y="349" on="1"/>
        <pt x="744" y="265" on="0"/>
        <pt x="692" y="132" on="0"/>
        <pt x="600" y="38" on="0"/>
        <pt x="472" y="-12" on="0"/>
      </contour>
      <contour>
        <pt x="396" y="52" on="1"/>
        <pt x="456" y="52" on="0"/>
        <pt x="556" y="93" on="0"/>
        <pt x="629" y="163" on="0"/>
        <pt x="670" y="259" on="0"/>
        <pt x="670" y="315" on="1"/>
        <pt x="670" y="383" on="1"/>
        <pt x="670" y="438" on="0"/>
        <pt x="629" y="535" on="0"/>
        <pt x="556" y="605" on="0"/>
        <pt x="456" y="646" on="0"/>
        <pt x="396" y="646" on="1"/>
        <pt x="336" y="646" on="0"/>
        <pt x="236" y="605" on="0"/>
        <pt x="163" y="535" on="0"/>
        <pt x="122" y="438" on="0"/>
        <pt x="122" y="383" on="1"/>
        <pt x="122" y="315" on="1"/>
        <pt x="122" y="259" on="0"/>
        <pt x="163" y="163" on="0"/>
        <pt x="236" y="93" on="0"/>
        <pt x="336" y="52" on="0"/>
      </contour>
      <contour>
        <pt x="403" y="134" on="1"/>
        <pt x="354" y="134" on="0"/>
        <pt x="277" y="165" on="0"/>
        <pt x="223" y="221" on="0"/>
        <pt x="195" y="300" on="0"/>
        <pt x="195" y="349" on="1"/>
        <pt x="195" y="398" on="0"/>
        <pt x="223" y="477" on="0"/>
        <pt x="277" y="533" on="0"/>
        <pt x="354" y="564" on="0"/>
        <pt x="403" y="564" on="1"/>
        <pt x="476" y="564" on="0"/>
        <pt x="564" y="502" on="0"/>
        <pt x="584" y="451" on="1"/>
        <pt x="484" y="403" on="1"/>
        <pt x="472" y="429" on="0"/>
        <pt x="436" y="461" on="0"/>
        <pt x="403" y="461" on="1"/>
        <pt x="370" y="461" on="0"/>
        <pt x="332" y="422" on="0"/>
        <pt x="332" y="389" on="1"/>
        <pt x="332" y="309" on="1"/>
        <pt x="332" y="276" on="0"/>
        <pt x="370" y="237" on="0"/>
        <pt x="403" y="237" on="1"/>
        <pt x="436" y="237" on="0"/>
        <pt x="478" y="270" on="0"/>
        <pt x="491" y="295" on="1"/>
        <pt x="592" y="248" on="1"/>
        <pt x="581" y="225" on="0"/>
        <pt x="550" y="184" on="0"/>
        <pt x="504" y="152" on="0"/>
        <pt x="443" y="134" on="0"/>
      </contour>
    </TTGlyph>
    <TTGlyph name="currency" xMin="10" yMin="45" xMax="618" yMax="653">
      <contour>
        <pt x="314" y="107" on="1"/>
        <pt x="276" y="107" on="0"/>
        <pt x="208" y="123" on="0"/>
        <pt x="182" y="137" on="1"/>
        <pt x="91" y="45" on="1"/>
        <pt x="10" y="125" on="1"/>
        <pt x="101" y="216" on="1"/>
        <pt x="69" y="271" on="0"/>
        <pt x="69" y="349" on="1"/>
        <pt x="69" y="427" on="0"/>
        <pt x="101" y="482" on="1"/>
        <pt x="10" y="573" on="1"/>
        <pt x="91" y="653" on="1"/>
        <pt x="182" y="561" on="1"/>
        <pt x="208" y="575" on="0"/>
        <pt x="276" y="591" on="0"/>
        <pt x="314" y="591" on="1"/>
        <pt x="352" y="591" on="0"/>
        <pt x="420" y="575" on="0"/>
        <pt x="446" y="561" on="1"/>
        <pt x="537" y="653" on="1"/>
        <pt x="618" y="573" on="1"/>
        <pt x="527" y="482" on="1"/>
        <pt x="559" y="427" on="0"/>
        <pt x="559" y="349" on="1"/>
        <pt x="559" y="271" on="0"/>
        <pt x="527" y="216" on="1"/>
        <pt x="618" y="125" on="1"/>
        <pt x="537" y="45" on="1"/>
        <pt x="446" y="137" on="1"/>
        <pt x="420" y="123" on="0"/>
        <pt x="352" y="107" on="0"/>
      </contour>
      <contour>
        <pt x="314" y="214" on="1"/>
        <pt x="360" y="214" on="0"/>
        <pt x="411" y="270" on="0"/>
        <pt x="411" y="321" on="1"/>
        <pt x="411" y="377" on="1"/>
        <pt x="411" y="428" on="0"/>
        <pt x="360" y="484" on="0"/>
        <pt x="314" y="484" on="1"/>
        <pt x="268" y="484" on="0"/>
        <pt x="217" y="428" on="0"/>
        <pt x="217" y="377" on="1"/>
        <pt x="217" y="321" on="1"/>
        <pt x="217" y="270" on="0"/>
        <pt x="268" y="214" on="0"/>
      </contour>
    </TTGlyph>
    <TTGlyph name="d" xMin="43" yMin="-12" xMax="539" yMax="740">
      <contour>
        <pt x="391" y="88" on="1"/>
        <pt x="386" y="88" on="1"/>
        <pt x="380" y="67" on="0"/>
        <pt x="354" y="30" on="0"/>
        <pt x="317" y="3" on="0"/>
        <pt x="270" y="-12" on="0"/>
        <pt x="245" y="-12" on="1"/>
        <pt x="145" y="-12" on="0"/>
        <pt x="43" y="129" on="0"/>
        <pt x="43" y="263" on="1"/>
        <pt x="43" y="397" on="0"/>
        <pt x="145" y="537" on="0"/>
        <pt x="245" y="537" on="1"/>
        <pt x="296" y="537" on="0"/>
        <pt x="375" y="481" on="0"/>
        <pt x="386" y="437" on="1"/>
        <pt x="391" y="437" on="1"/>
        <pt x="391" y="740" on="1"/>
        <pt x="539" y="740" on="1"/>
        <pt x="539" y="0" on="1"/>
        <pt x="391" y="0" on="1"/>
      </contour>
      <contour>
        <pt x="294" y="108" on="1"/>
        <pt x="336" y="108" on="0"/>
        <pt x="391" y="149" on="0"/>
        <pt x="391" y="185" on="1"/>
        <pt x="391" y="340" on="1"/>
        <pt x="391" y="376" on="0"/>
        <pt x="336" y="417" on="0"/>
        <pt x="294" y="417" on="1"/>
        <pt x="252" y="417" on="0"/>
        <pt x="197" y="358" on="0"/>
        <pt x="197" y="308" on="1"/>
        <pt x="197" y="217" on="1"/>
        <pt x="197" y="167" on="0"/>
        <pt x="252" y="108" on="0"/>
      </contour>
    </TTGlyph>
    <TTGlyph name="dagger" xMin="26" yMin="-200" xMax="496" yMax="740">
      <contour>
        <pt x="198" y="-200" on="1"/>
        <pt x="198" y="408" on="1"/>
        <pt x="26" y="408" on="1"/>
        <pt x="26" y="516" on="1"/>
        <pt x="198" y="516" on="1"/>
        <pt x="198" y="740" on="1"/>
        <pt x="324" y="740" on="1"/>
        <pt x="324" y="516" on="1"/>
        <pt x="496" y="516" on="1"/>
        <pt x="496" y="408" on="1"/>
        <pt x="324" y="408" on="1"/>
        <pt x="324" y="-200" on="1"/>
      </contour>
    </TTGlyph>
    <TTGlyph name="daggerdbl" xMin="36" yMin="-200" xMax="506" yMax="740">
      <contour>
        <pt x="208" y="-200" on="1"/>
        <pt x="208" y="24" on="1"/>
        <pt x="36" y="24" on="1"/>
        <pt x="36" y="132" on="1"/>
        <pt x="208" y="132" on="1"/>
        <pt x="208" y="408" on="1"/>
        <pt x="36" y="408" on="1"/>
        <pt x="36" y="516" on="1"/>
        <pt x="208" y="516" on="1"/>
        <pt x="208" y="740" on="1"/>
        <pt x="334" y="740" on="1"/>
        <pt x="334" y="516" on="1"/>
        <pt x="506" y="516" on="1"/>
        <pt x="506" y="408" on="1"/>
        <pt x="334" y="408" on="1"/>
        <pt x="334" y="132" on="1"/>
        <pt x="506" y="132" on="1"/>
        <pt x="506" y="24" on="1"/>
        <pt x="334" y="24" on="1"/>
        <pt x="334" y="-200" on="1"/>
      </contour>
    </TTGlyph>
    <TTGlyph name="dcaron" xMin="43" yMin="-12" xMax="765" yMax="740">
      <component glyphName="d" x="0" y="0" flags="0x4"/>
      <component glyphName="uni02BC" x="465" y="0" flags="0x4"/>
    </TTGlyph>
    <TTGlyph name="dcroat" xMin="43" yMin="-12" xMax="600" yMax="740">
      <contour>
        <pt x="391" y="88" on="1"/>
        <pt x="386" y="88" on="1"/>
        <pt x="380" y="67" on="0"/>
        <pt x="354" y="30" on="0"/>
        <pt x="317" y="3" on="0"/>
        <pt x="270" y="-12" on="0"/>
        <pt x="245" y="-12" on="1"/>
        <pt x="145" y="-12" on="0"/>
        <pt x="43" y="129" on="0"/>
        <pt x="43" y="263" on="1"/>
        <pt x="43" y="397" on="0"/>
        <pt x="145" y="537" on="0"/>
        <pt x="245" y="537" on="1"/>
        <pt x="296" y="537" on="0"/>
        <pt x="375" y="481" on="0"/>
        <pt x="386" y="437" on="1"/>
        <pt x="391" y="437" on="1"/>
        <pt x="391" y="590" on="1"/>
        <pt x="250" y="590" on="1"/>
        <pt x="250" y="690" on="1"/>
        <pt x="391" y="690" on="1"/>
        <pt x="391" y="740" on="1"/>
        <pt x="539" y="740" on="1"/>
        <pt x="539" y="690" on="1"/>
        <pt x="600" y="690" on="1"/>
        <pt x="600" y="590" on="1"/>
        <pt x="539" y="590" on="1"/>
        <pt x="539" y="0" on="1"/>
        <pt x="391" y="0" on="1"/>
      </contour>
      <contour>
        <pt x="294" y="108" on="1"/>
        <pt x="336" y="108" on="0"/>
        <pt x="391" y="149" on="0"/>
        <pt x="391" y="185" on="1"/>
        <pt x="391" y="340" on="1"/>
        <pt x="391" y="376" on="0"/>
        <pt x="336" y="417" on="0"/>
        <pt x="294" y="417" on="1"/>
        <pt x="252" y="417" on="0"/>
        <pt x="197" y="358" on="0"/>
        <pt x="197" y="308" on="1"/>
        <pt x="197" y="217" on="1"/>
        <pt x="197" y="167" on="0"/>
        <pt x="252" y="108" on="0"/>
      </contour>
    </TTGlyph>
    <TTGlyph name="degree" xMin="50" yMin="334" xMax="420" yMax="710">
      <contour>
        <pt x="235" y="334" on="1"/>
        <pt x="196" y="334" on="0"/>
        <pt x="128" y="362" on="0"/>
        <pt x="78" y="413" on="0"/>
        <pt x="50" y="481" on="0"/>
        <pt x="50" y="522" on="1"/>
        <pt x="50" y="562" on="0"/>
        <pt x="78" y="631" on="0"/>
        <pt x="128" y="682" on="0"/>
        <pt x="196" y="710" on="0"/>
        <pt x="235" y="710" on="1"/>
        <pt x="274" y="710" on="0"/>
        <pt x="342" y="682" on="0"/>
        <pt x="392" y="631" on="0"/>
        <pt x="420" y="562" on="0"/>
        <pt x="420" y="522" on="1"/>
        <pt x="420" y="481" on="0"/>
        <pt x="392" y="413" on="0"/>
        <pt x="342" y="362" on="0"/>
        <pt x="274" y="334" on="0"/>
      </contour>
      <contour>
        <pt x="235" y="429" on="1"/>
        <pt x="273" y="429" on="0"/>
        <pt x="319" y="482" on="0"/>
        <pt x="319" y="522" on="1"/>
        <pt x="319" y="562" on="0"/>
        <pt x="273" y="615" on="0"/>
        <pt x="235" y="615" on="1"/>
        <pt x="197" y="615" on="0"/>
        <pt x="151" y="562" on="0"/>
        <pt x="151" y="522" on="1"/>
        <pt x="151" y="482" on="0"/>
        <pt x="197" y="429" on="0"/>
      </contour>
    </TTGlyph>
    <TTGlyph name="delta" xMin="36" yMin="-12" xMax="528" yMax="740">
      <contour>
        <pt x="323" y="625" on="1"/>
        <pt x="230" y="636" on="1"/>
        <pt x="230" y="632" on="1"/>
        <pt x="335" y="568" on="1"/>
        <pt x="388" y="535" on="0"/>
        <pt x="462" y="466" on="0"/>
        <pt x="508" y="390" on="0"/>
        <pt x="528" y="308" on="0"/>
        <pt x="528" y="263" on="1"/>
        <pt x="528" y="199" on="0"/>
        <pt x="494" y="97" on="0"/>
        <pt x="431" y="26" on="0"/>
        <pt x="340" y="-12" on="0"/>
        <pt x="282" y="-12" on="1"/>
        <pt x="224" y="-12" on="0"/>
        <pt x="133" y="27" on="0"/>
        <pt x="70" y="97" on="0"/>
        <pt x="36" y="193" on="0"/>
        <pt x="36" y="250" on="1"/>
        <pt x="36" y="308" on="0"/>
        <pt x="66" y="399" on="0"/>
        <pt x="117" y="460" on="0"/>
        <pt x="184" y="492" on="0"/>
        <pt x="221" y="492" on="1"/>
        <pt x="221" y="498" on="1"/>
        <pt x="90" y="600" on="1"/>
        <pt x="90" y="740" on="1"/>
        <pt x="481" y="740" on="1"/>
        <pt x="481" y="625" on="1"/>
      </contour>
      <contour>
        <pt x="374" y="250" on="1"/>
        <pt x="374" y="281" on="0"/>
        <pt x="367" y="332" on="0"/>
        <pt x="348" y="377" on="0"/>
        <pt x="316" y="419" on="0"/>
        <pt x="292" y="441" on="1"/>
        <pt x="241" y="433" on="0"/>
        <pt x="190" y="360" on="0"/>
        <pt x="190" y="303" on="1"/>
        <pt x="190" y="209" on="1"/>
        <pt x="190" y="159" on="0"/>
        <pt x="238" y="105" on="0"/>
        <pt x="282" y="105" on="1"/>
        <pt x="326" y="105" on="0"/>
        <pt x="374" y="159" on="0"/>
        <pt x="374" y="209" on="1"/>
      </contour>
    </TTGlyph>
    <TTGlyph name="dieresis" xMin="110" yMin="600" xMax="490" yMax="751">
      <contour>
        <pt x="190" y="600" on="1"/>
        <pt x="145" y="600" on="0"/>
        <pt x="110" y="637" on="0"/>
        <pt x="110" y="663" on="1"/>
        <pt x="110" y="688" on="1"/>
        <pt x="110" y="714" on="0"/>
        <pt x="145" y="751" on="0"/>
        <pt x="190" y="751" on="1"/>
        <pt x="235" y="751" on="0"/>
        <pt x="270" y="714" on="0"/>
        <pt x="270" y="688" on="1"/>
        <pt x="270" y="663" on="1"/>
        <pt x="270" y="637" on="0"/>
        <pt x="235" y="600" on="0"/>
      </contour>
      <contour>
        <pt x="410" y="600" on="1"/>
        <pt x="365" y="600" on="0"/>
        <pt x="330" y="637" on="0"/>
        <pt x="330" y="663" on="1"/>
        <pt x="330" y="688" on="1"/>
        <pt x="330" y="714" on="0"/>
        <pt x="365" y="751" on="0"/>
        <pt x="410" y="751" on="1"/>
        <pt x="455" y="751" on="0"/>
        <pt x="490" y="714" on="0"/>
        <pt x="490" y="688" on="1"/>
        <pt x="490" y="663" on="1"/>
        <pt x="490" y="637" on="0"/>
        <pt x="455" y="600" on="0"/>
      </contour>
    </TTGlyph>
    <TTGlyph name="dieresis.case" xMin="110" yMin="761" xMax="490" yMax="912">
      <contour>
        <pt x="190" y="761" on="1"/>
        <pt x="145" y="761" on="0"/>
        <pt x="110" y="798" on="0"/>
        <pt x="110" y="824" on="1"/>
        <pt x="110" y="849" on="1"/>
        <pt x="110" y="875" on="0"/>
        <pt x="145" y="912" on="0"/>
        <pt x="190" y="912" on="1"/>
        <pt x="235" y="912" on="0"/>
        <pt x="270" y="875" on="0"/>
        <pt x="270" y="849" on="1"/>
        <pt x="270" y="824" on="1"/>
        <pt x="270" y="798" on="0"/>
        <pt x="235" y="761" on="0"/>
      </contour>
      <contour>
        <pt x="410" y="761" on="1"/>
        <pt x="365" y="761" on="0"/>
        <pt x="330" y="798" on="0"/>
        <pt x="330" y="824" on="1"/>
        <pt x="330" y="849" on="1"/>
        <pt x="330" y="875" on="0"/>
        <pt x="365" y="912" on="0"/>
        <pt x="410" y="912" on="1"/>
        <pt x="455" y="912" on="0"/>
        <pt x="490" y="875" on="0"/>
        <pt x="490" y="849" on="1"/>
        <pt x="490" y="824" on="1"/>
        <pt x="490" y="798" on="0"/>
        <pt x="455" y="761" on="0"/>
      </contour>
    </TTGlyph>
    <TTGlyph name="dieresisacute" xMin="-190" yMin="587" xMax="190" yMax="966">
      <contour>
        <pt x="10" y="733" on="1"/>
        <pt x="-69" y="772" on="1"/>
        <pt x="30" y="966" on="1"/>
        <pt x="144" y="909" on="1"/>
      </contour>
      <contour>
        <pt x="-110" y="587" on="1"/>
        <pt x="-155" y="587" on="0"/>
        <pt x="-190" y="624" on="0"/>
        <pt x="-190" y="650" on="1"/>
        <pt x="-190" y="675" on="1"/>
        <pt x="-190" y="701" on="0"/>
        <pt x="-155" y="738" on="0"/>
        <pt x="-110" y="738" on="1"/>
        <pt x="-65" y="738" on="0"/>
        <pt x="-30" y="701" on="0"/>
        <pt x="-30" y="675" on="1"/>
        <pt x="-30" y="650" on="1"/>
        <pt x="-30" y="624" on="0"/>
        <pt x="-65" y="587" on="0"/>
      </contour>
      <contour>
        <pt x="110" y="587" on="1"/>
        <pt x="65" y="587" on="0"/>
        <pt x="30" y="624" on="0"/>
        <pt x="30" y="650" on="1"/>
        <pt x="30" y="675" on="1"/>
        <pt x="30" y="701" on="0"/>
        <pt x="65" y="738" on="0"/>
        <pt x="110" y="738" on="1"/>
        <pt x="155" y="738" on="0"/>
        <pt x="190" y="701" on="0"/>
        <pt x="190" y="675" on="1"/>
        <pt x="190" y="650" on="1"/>
        <pt x="190" y="624" on="0"/>
        <pt x="155" y="587" on="0"/>
      </contour>
    </TTGlyph>
    <TTGlyph name="dieresisacute.case" xMin="-190" yMin="748" xMax="190" yMax="1127">
      <contour>
        <pt x="10" y="894" on="1"/>
        <pt x="-69" y="933" on="1"/>
        <pt x="30" y="1127" on="1"/>
        <pt x="144" y="1070" on="1"/>
      </contour>
      <contour>
        <pt x="-110" y="748" on="1"/>
        <pt x="-155" y="748" on="0"/>
        <pt x="-190" y="785" on="0"/>
        <pt x="-190" y="811" on="1"/>
        <pt x="-190" y="836" on="1"/>
        <pt x="-190" y="862" on="0"/>
        <pt x="-155" y="899" on="0"/>
        <pt x="-110" y="899" on="1"/>
        <pt x="-65" y="899" on="0"/>
        <pt x="-30" y="862" on="0"/>
        <pt x="-30" y="836" on="1"/>
        <pt x="-30" y="811" on="1"/>
        <pt x="-30" y="785" on="0"/>
        <pt x="-65" y="748" on="0"/>
      </contour>
      <contour>
        <pt x="110" y="748" on="1"/>
        <pt x="65" y="748" on="0"/>
        <pt x="30" y="785" on="0"/>
        <pt x="30" y="811" on="1"/>
        <pt x="30" y="836" on="1"/>
        <pt x="30" y="862" on="0"/>
        <pt x="65" y="899" on="0"/>
        <pt x="110" y="899" on="1"/>
        <pt x="155" y="899" on="0"/>
        <pt x="190" y="862" on="0"/>
        <pt x="190" y="836" on="1"/>
        <pt x="190" y="811" on="1"/>
        <pt x="190" y="785" on="0"/>
        <pt x="155" y="748" on="0"/>
      </contour>
    </TTGlyph>
    <TTGlyph name="dieresiscaron" xMin="-192" yMin="587" xMax="192" yMax="968">
      <contour>
        <pt x="-47" y="757" on="1"/>
        <pt x="-192" y="904" on="1"/>
        <pt x="-124" y="968" on="1"/>
        <pt x="0" y="864" on="1"/>
        <pt x="124" y="968" on="1"/>
        <pt x="192" y="904" on="1"/>
        <pt x="47" y="757" on="1"/>
      </contour>
      <contour>
        <pt x="-110" y="587" on="1"/>
        <pt x="-155" y="587" on="0"/>
        <pt x="-190" y="624" on="0"/>
        <pt x="-190" y="650" on="1"/>
        <pt x="-190" y="675" on="1"/>
        <pt x="-190" y="701" on="0"/>
        <pt x="-155" y="738" on="0"/>
        <pt x="-110" y="738" on="1"/>
        <pt x="-65" y="738" on="0"/>
        <pt x="-30" y="701" on="0"/>
        <pt x="-30" y="675" on="1"/>
        <pt x="-30" y="650" on="1"/>
        <pt x="-30" y="624" on="0"/>
        <pt x="-65" y="587" on="0"/>
      </contour>
      <contour>
        <pt x="110" y="587" on="1"/>
        <pt x="65" y="587" on="0"/>
        <pt x="30" y="624" on="0"/>
        <pt x="30" y="650" on="1"/>
        <pt x="30" y="675" on="1"/>
        <pt x="30" y="701" on="0"/>
        <pt x="65" y="738" on="0"/>
        <pt x="110" y="738" on="1"/>
        <pt x="155" y="738" on="0"/>
        <pt x="190" y="701" on="0"/>
        <pt x="190" y="675" on="1"/>
        <pt x="190" y="650" on="1"/>
        <pt x="190" y="624" on="0"/>
        <pt x="155" y="587" on="0"/>
      </contour>
    </TTGlyph>
    <TTGlyph name="dieresiscaron.case" xMin="-192" yMin="748" xMax="192" yMax="1129">
      <contour>
        <pt x="-47" y="918" on="1"/>
        <pt x="-192" y="1065" on="1"/>
        <pt x="-124" y="1129" on="1"/>
        <pt x="0" y="1025" on="1"/>
        <pt x="124" y="1129" on="1"/>
        <pt x="192" y="1065" on="1"/>
        <pt x="47" y="918" on="1"/>
      </contour>
      <contour>
        <pt x="-110" y="748" on="1"/>
        <pt x="-155" y="748" on="0"/>
        <pt x="-190" y="785" on="0"/>
        <pt x="-190" y="811" on="1"/>
        <pt x="-190" y="836" on="1"/>
        <pt x="-190" y="862" on="0"/>
        <pt x="-155" y="899" on="0"/>
        <pt x="-110" y="899" on="1"/>
        <pt x="-65" y="899" on="0"/>
        <pt x="-30" y="862" on="0"/>
        <pt x="-30" y="836" on="1"/>
        <pt x="-30" y="811" on="1"/>
        <pt x="-30" y="785" on="0"/>
        <pt x="-65" y="748" on="0"/>
      </contour>
      <contour>
        <pt x="110" y="748" on="1"/>
        <pt x="65" y="748" on="0"/>
        <pt x="30" y="785" on="0"/>
        <pt x="30" y="811" on="1"/>
        <pt x="30" y="836" on="1"/>
        <pt x="30" y="862" on="0"/>
        <pt x="65" y="899" on="0"/>
        <pt x="110" y="899" on="1"/>
        <pt x="155" y="899" on="0"/>
        <pt x="190" y="862" on="0"/>
        <pt x="190" y="836" on="1"/>
        <pt x="190" y="811" on="1"/>
        <pt x="190" y="785" on="0"/>
        <pt x="155" y="748" on="0"/>
      </contour>
    </TTGlyph>
    <TTGlyph name="dieresisgrave" xMin="-190" yMin="587" xMax="190" yMax="966">
      <contour>
        <pt x="-144" y="909" on="1"/>
        <pt x="-30" y="966" on="1"/>
        <pt x="69" y="772" on="1"/>
        <pt x="-10" y="733" on="1"/>
      </contour>
      <contour>
        <pt x="-110" y="587" on="1"/>
        <pt x="-155" y="587" on="0"/>
        <pt x="-190" y="624" on="0"/>
        <pt x="-190" y="650" on="1"/>
        <pt x="-190" y="675" on="1"/>
        <pt x="-190" y="701" on="0"/>
        <pt x="-155" y="738" on="0"/>
        <pt x="-110" y="738" on="1"/>
        <pt x="-65" y="738" on="0"/>
        <pt x="-30" y="701" on="0"/>
        <pt x="-30" y="675" on="1"/>
        <pt x="-30" y="650" on="1"/>
        <pt x="-30" y="624" on="0"/>
        <pt x="-65" y="587" on="0"/>
      </contour>
      <contour>
        <pt x="110" y="587" on="1"/>
        <pt x="65" y="587" on="0"/>
        <pt x="30" y="624" on="0"/>
        <pt x="30" y="650" on="1"/>
        <pt x="30" y="675" on="1"/>
        <pt x="30" y="701" on="0"/>
        <pt x="65" y="738" on="0"/>
        <pt x="110" y="738" on="1"/>
        <pt x="155" y="738" on="0"/>
        <pt x="190" y="701" on="0"/>
        <pt x="190" y="675" on="1"/>
        <pt x="190" y="650" on="1"/>
        <pt x="190" y="624" on="0"/>
        <pt x="155" y="587" on="0"/>
      </contour>
    </TTGlyph>
    <TTGlyph name="dieresisgrave.case" xMin="-190" yMin="748" xMax="190" yMax="1127">
      <contour>
        <pt x="-144" y="1070" on="1"/>
        <pt x="-30" y="1127" on="1"/>
        <pt x="69" y="933" on="1"/>
        <pt x="-10" y="894" on="1"/>
      </contour>
      <contour>
        <pt x="-110" y="748" on="1"/>
        <pt x="-155" y="748" on="0"/>
        <pt x="-190" y="785" on="0"/>
        <pt x="-190" y="811" on="1"/>
        <pt x="-190" y="836" on="1"/>
        <pt x="-190" y="862" on="0"/>
        <pt x="-155" y="899" on="0"/>
        <pt x="-110" y="899" on="1"/>
        <pt x="-65" y="899" on="0"/>
        <pt x="-30" y="862" on="0"/>
        <pt x="-30" y="836" on="1"/>
        <pt x="-30" y="811" on="1"/>
        <pt x="-30" y="785" on="0"/>
        <pt x="-65" y="748" on="0"/>
      </contour>
      <contour>
        <pt x="110" y="748" on="1"/>
        <pt x="65" y="748" on="0"/>
        <pt x="30" y="785" on="0"/>
        <pt x="30" y="811" on="1"/>
        <pt x="30" y="836" on="1"/>
        <pt x="30" y="862" on="0"/>
        <pt x="65" y="899" on="0"/>
        <pt x="110" y="899" on="1"/>
        <pt x="155" y="899" on="0"/>
        <pt x="190" y="862" on="0"/>
        <pt x="190" y="836" on="1"/>
        <pt x="190" y="811" on="1"/>
        <pt x="190" y="785" on="0"/>
        <pt x="155" y="748" on="0"/>
      </contour>
    </TTGlyph>
    <TTGlyph name="dieresismacron" xMin="-190" yMin="587" xMax="190" yMax="889">
      <contour>
        <pt x="-153" y="889" on="1"/>
        <pt x="153" y="889" on="1"/>
        <pt x="153" y="786" on="1"/>
        <pt x="-153" y="786" on="1"/>
      </contour>
      <contour>
        <pt x="-110" y="587" on="1"/>
        <pt x="-155" y="587" on="0"/>
        <pt x="-190" y="624" on="0"/>
        <pt x="-190" y="650" on="1"/>
        <pt x="-190" y="675" on="1"/>
        <pt x="-190" y="701" on="0"/>
        <pt x="-155" y="738" on="0"/>
        <pt x="-110" y="738" on="1"/>
        <pt x="-65" y="738" on="0"/>
        <pt x="-30" y="701" on="0"/>
        <pt x="-30" y="675" on="1"/>
        <pt x="-30" y="650" on="1"/>
        <pt x="-30" y="624" on="0"/>
        <pt x="-65" y="587" on="0"/>
      </contour>
      <contour>
        <pt x="110" y="587" on="1"/>
        <pt x="65" y="587" on="0"/>
        <pt x="30" y="624" on="0"/>
        <pt x="30" y="650" on="1"/>
        <pt x="30" y="675" on="1"/>
        <pt x="30" y="701" on="0"/>
        <pt x="65" y="738" on="0"/>
        <pt x="110" y="738" on="1"/>
        <pt x="155" y="738" on="0"/>
        <pt x="190" y="701" on="0"/>
        <pt x="190" y="675" on="1"/>
        <pt x="190" y="650" on="1"/>
        <pt x="190" y="624" on="0"/>
        <pt x="155" y="587" on="0"/>
      </contour>
    </TTGlyph>
    <TTGlyph name="dieresismacron.case" xMin="-190" yMin="748" xMax="190" yMax="1050">
      <contour>
        <pt x="-153" y="1050" on="1"/>
        <pt x="153" y="1050" on="1"/>
        <pt x="153" y="947" on="1"/>
        <pt x="-153" y="947" on="1"/>
      </contour>
      <contour>
        <pt x="-110" y="748" on="1"/>
        <pt x="-155" y="748" on="0"/>
        <pt x="-190" y="785" on="0"/>
        <pt x="-190" y="811" on="1"/>
        <pt x="-190" y="836" on="1"/>
        <pt x="-190" y="862" on="0"/>
        <pt x="-155" y="899" on="0"/>
        <pt x="-110" y="899" on="1"/>
        <pt x="-65" y="899" on="0"/>
        <pt x="-30" y="862" on="0"/>
        <pt x="-30" y="836" on="1"/>
        <pt x="-30" y="811" on="1"/>
        <pt x="-30" y="785" on="0"/>
        <pt x="-65" y="748" on="0"/>
      </contour>
      <contour>
        <pt x="110" y="748" on="1"/>
        <pt x="65" y="748" on="0"/>
        <pt x="30" y="785" on="0"/>
        <pt x="30" y="811" on="1"/>
        <pt x="30" y="836" on="1"/>
        <pt x="30" y="862" on="0"/>
        <pt x="65" y="899" on="0"/>
        <pt x="110" y="899" on="1"/>
        <pt x="155" y="899" on="0"/>
        <pt x="190" y="862" on="0"/>
        <pt x="190" y="836" on="1"/>
        <pt x="190" y="811" on="1"/>
        <pt x="190" y="785" on="0"/>
        <pt x="155" y="748" on="0"/>
      </contour>
    </TTGlyph>
    <TTGlyph name="dieresistonos" xMin="119" yMin="579" xMax="541" yMax="816">
      <contour>
        <pt x="183" y="605" on="1"/>
        <pt x="119" y="605" on="0"/>
        <pt x="119" y="663" on="1"/>
        <pt x="119" y="687" on="1"/>
        <pt x="119" y="746" on="0"/>
        <pt x="183" y="746" on="1"/>
        <pt x="247" y="746" on="0"/>
        <pt x="247" y="688" on="1"/>
        <pt x="247" y="664" on="1"/>
        <pt x="247" y="605" on="0"/>
      </contour>
      <contour>
        <pt x="338" y="579" on="1"/>
        <pt x="275" y="590" on="1"/>
        <pt x="310" y="816" on="1"/>
        <pt x="411" y="799" on="1"/>
      </contour>
      <contour>
        <pt x="477" y="605" on="1"/>
        <pt x="413" y="605" on="0"/>
        <pt x="413" y="663" on="1"/>
        <pt x="413" y="687" on="1"/>
        <pt x="413" y="746" on="0"/>
        <pt x="477" y="746" on="1"/>
        <pt x="541" y="746" on="0"/>
        <pt x="541" y="688" on="1"/>
        <pt x="541" y="664" on="1"/>
        <pt x="541" y="605" on="0"/>
      </contour>
    </TTGlyph>
    <TTGlyph name="divide" xMin="67" yMin="28" xMax="532" yMax="582">
      <contour>
        <pt x="67" y="247" on="1"/>
        <pt x="67" y="365" on="1"/>
        <pt x="532" y="365" on="1"/>
        <pt x="532" y="247" on="1"/>
      </contour>
      <contour>
        <pt x="300" y="28" on="1"/>
        <pt x="253" y="28" on="0"/>
        <pt x="213" y="69" on="0"/>
        <pt x="213" y="97" on="1"/>
        <pt x="213" y="121" on="1"/>
        <pt x="213" y="149" on="0"/>
        <pt x="253" y="190" on="0"/>
        <pt x="300" y="190" on="1"/>
        <pt x="347" y="190" on="0"/>
        <pt x="387" y="149" on="0"/>
        <pt x="387" y="121" on="1"/>
        <pt x="387" y="97" on="1"/>
        <pt x="387" y="69" on="0"/>
        <pt x="347" y="28" on="0"/>
      </contour>
      <contour>
        <pt x="300" y="420" on="1"/>
        <pt x="253" y="420" on="0"/>
        <pt x="213" y="461" on="0"/>
        <pt x="213" y="489" on="1"/>
        <pt x="213" y="513" on="1"/>
        <pt x="213" y="541" on="0"/>
        <pt x="253" y="582" on="0"/>
        <pt x="300" y="582" on="1"/>
        <pt x="347" y="582" on="0"/>
        <pt x="387" y="541" on="0"/>
        <pt x="387" y="513" on="1"/>
        <pt x="387" y="489" on="1"/>
        <pt x="387" y="461" on="0"/>
        <pt x="347" y="420" on="0"/>
      </contour>
    </TTGlyph>
    <TTGlyph name="dollar" xMin="32" yMin="-82" xMax="559" yMax="780">
      <contour>
        <pt x="250" y="-82" on="1"/>
        <pt x="250" y="10" on="1"/>
        <pt x="174" y="17" on="0"/>
        <pt x="70" y="73" on="0"/>
        <pt x="32" y="115" on="1"/>
        <pt x="122" y="197" on="1"/>
        <pt x="151" y="167" on="0"/>
        <pt x="221" y="128" on="0"/>
        <pt x="263" y="122" on="1"/>
        <pt x="263" y="302" on="1"/>
        <pt x="150" y="325" on="0"/>
        <pt x="52" y="423" on="0"/>
        <pt x="52" y="496" on="1"/>
        <pt x="52" y="575" on="0"/>
        <pt x="153" y="675" on="0"/>
        <pt x="250" y="686" on="1"/>
        <pt x="250" y="780" on="1"/>
        <pt x="364" y="780" on="1"/>
        <pt x="364" y="686" on="1"/>
        <pt x="424" y="679" on="0"/>
        <pt x="514" y="634" on="0"/>
        <pt x="547" y="596" on="1"/>
        <pt x="456" y="514" on="1"/>
        <pt x="438" y="534" on="0"/>
        <pt x="388" y="566" on="0"/>
        <pt x="352" y="574" on="1"/>
        <pt x="352" y="408" on="1"/>
        <pt x="458" y="384" on="0"/>
        <pt x="559" y="294" on="0"/>
        <pt x="559" y="217" on="1"/>
        <pt x="559" y="143" on="0"/>
        <pt x="464" y="31" on="0"/>
        <pt x="364" y="14" on="1"/>
        <pt x="364" y="-82" on="1"/>
      </contour>
      <contour>
        <pt x="190" y="500" on="1"/>
        <pt x="190" y="471" on="0"/>
        <pt x="225" y="439" on="0"/>
        <pt x="263" y="428" on="1"/>
        <pt x="263" y="576" on="1"/>
        <pt x="225" y="568" on="0"/>
        <pt x="190" y="529" on="0"/>
      </contour>
      <contour>
        <pt x="421" y="206" on="1"/>
        <pt x="421" y="228" on="0"/>
        <pt x="395" y="269" on="0"/>
        <pt x="352" y="282" on="1"/>
        <pt x="352" y="124" on="1"/>
        <pt x="387" y="134" on="0"/>
        <pt x="421" y="177" on="0"/>
      </contour>
    </TTGlyph>
    <TTGlyph name="dotaccent" xMin="211" yMin="591" xMax="389" yMax="760">
      <contour>
        <pt x="300" y="591" on="1"/>
        <pt x="250" y="591" on="0"/>
        <pt x="211" y="632" on="0"/>
        <pt x="211" y="661" on="1"/>
        <pt x="211" y="690" on="1"/>
        <pt x="211" y="719" on="0"/>
        <pt x="250" y="760" on="0"/>
        <pt x="300" y="760" on="1"/>
        <pt x="350" y="760" on="0"/>
        <pt x="389" y="719" on="0"/>
        <pt x="389" y="690" on="1"/>
        <pt x="389" y="661" on="1"/>
        <pt x="389" y="632" on="0"/>
        <pt x="350" y="591" on="0"/>
      </contour>
    </TTGlyph>
    <TTGlyph name="dotaccent.case" xMin="211" yMin="752" xMax="389" yMax="921">
      <contour>
        <pt x="300" y="752" on="1"/>
        <pt x="250" y="752" on="0"/>
        <pt x="211" y="793" on="0"/>
        <pt x="211" y="822" on="1"/>
        <pt x="211" y="851" on="1"/>
        <pt x="211" y="880" on="0"/>
        <pt x="250" y="921" on="0"/>
        <pt x="300" y="921" on="1"/>
        <pt x="350" y="921" on="0"/>
        <pt x="389" y="880" on="0"/>
        <pt x="389" y="851" on="1"/>
        <pt x="389" y="822" on="1"/>
        <pt x="389" y="793" on="0"/>
        <pt x="350" y="752" on="0"/>
      </contour>
    </TTGlyph>
    <TTGlyph name="dotlessi" xMin="69" yMin="0" xMax="217" yMax="525">
      <contour>
        <pt x="69" y="0" on="1"/>
        <pt x="69" y="525" on="1"/>
        <pt x="217" y="525" on="1"/>
        <pt x="217" y="0" on="1"/>
      </contour>
    </TTGlyph>
    <TTGlyph name="e" xMin="36" yMin="-12" xMax="526" yMax="537">
      <contour>
        <pt x="288" y="-12" on="1"/>
        <pt x="228" y="-12" on="0"/>
        <pt x="134" y="27" on="0"/>
        <pt x="69" y="98" on="0"/>
        <pt x="36" y="200" on="0"/>
        <pt x="36" y="263" on="1"/>
        <pt x="36" y="325" on="0"/>
        <pt x="68" y="426" on="0"/>
        <pt x="131" y="498" on="0"/>
        <pt x="223" y="537" on="0"/>
        <pt x="282" y="537" on="1"/>
        <pt x="347" y="537" on="0"/>
        <pt x="440" y="493" on="0"/>
        <pt x="499" y="419" on="0"/>
        <pt x="526" y="322" on="0"/>
        <pt x="526" y="269" on="1"/>
        <pt x="526" y="225" on="1"/>
        <pt x="189" y="225" on="1"/>
        <pt x="189" y="217" on="1"/>
        <pt x="189" y="165" on="0"/>
        <pt x="245" y="104" on="0"/>
        <pt x="305" y="104" on="1"/>
        <pt x="351" y="104" on="0"/>
        <pt x="409" y="141" on="0"/>
        <pt x="434" y="167" on="1"/>
        <pt x="508" y="75" on="1"/>
        <pt x="473" y="34" on="0"/>
        <pt x="360" y="-12" on="0"/>
      </contour>
      <contour>
        <pt x="285" y="428" on="1"/>
        <pt x="240" y="428" on="0"/>
        <pt x="189" y="369" on="0"/>
        <pt x="189" y="320" on="1"/>
        <pt x="189" y="312" on="1"/>
        <pt x="373" y="312" on="1"/>
        <pt x="373" y="321" on="1"/>
        <pt x="373" y="369" on="0"/>
        <pt x="330" y="428" on="0"/>
      </contour>
    </TTGlyph>
    <TTGlyph name="eacute" xMin="36" yMin="-12" xMax="526" yMax="816">
      <component glyphName="e" x="0" y="0" flags="0x204"/>
      <component glyphName="acute" x="-12" y="0" flags="0x4"/>
    </TTGlyph>
    <TTGlyph name="ebreve" xMin="36" yMin="-12" xMax="526" yMax="791">
      <component glyphName="e" x="0" y="0" flags="0x204"/>
      <component glyphName="breve" x="-12" y="0" flags="0x4"/>
    </TTGlyph>
    <TTGlyph name="ecaron" xMin="36" yMin="-12" xMax="526" yMax="804">
      <component glyphName="e" x="0" y="0" flags="0x204"/>
      <component glyphName="caron" x="-12" y="0" flags="0x4"/>
    </TTGlyph>
    <TTGlyph name="ecircumflex" xMin="36" yMin="-12" xMax="526" yMax="795">
      <component glyphName="e" x="0" y="0" flags="0x204"/>
      <component glyphName="circumflex" x="-12" y="0" flags="0x4"/>
    </TTGlyph>
    <TTGlyph name="edieresis" xMin="36" yMin="-12" xMax="526" yMax="751">
      <component glyphName="e" x="0" y="0" flags="0x204"/>
      <component glyphName="dieresis" x="-12" y="0" flags="0x4"/>
    </TTGlyph>
    <TTGlyph name="edotaccent" xMin="36" yMin="-12" xMax="526" yMax="760">
      <component glyphName="e" x="0" y="0" flags="0x204"/>
      <component glyphName="dotaccent" x="-12" y="0" flags="0x4"/>
    </TTGlyph>
    <TTGlyph name="egrave" xMin="36" yMin="-12" xMax="526" yMax="816">
      <component glyphName="e" x="0" y="0" flags="0x204"/>
      <component glyphName="grave" x="-12" y="0" flags="0x4"/>
    </TTGlyph>
    <TTGlyph name="eight" xMin="40" yMin="-12" xMax="560" yMax="710">
      <contour>
        <pt x="300" y="-12" on="1"/>
        <pt x="238" y="-12" on="0"/>
        <pt x="141" y="19" on="0"/>
        <pt x="75" y="73" on="0"/>
        <pt x="40" y="147" on="0"/>
        <pt x="40" y="191" on="1"/>
        <pt x="40" y="258" on="0"/>
        <pt x="114" y="343" on="0"/>
        <pt x="177" y="360" on="1"/>
        <pt x="177" y="368" on="1"/>
        <pt x="126" y="387" on="0"/>
        <pt x="61" y="465" on="0"/>
        <pt x="61" y="526" on="1"/>
        <pt x="61" y="566" on="0"/>
        <pt x="92" y="634" on="0"/>
        <pt x="153" y="683" on="0"/>
        <pt x="242" y="710" on="0"/>
        <pt x="300" y="710" on="1"/>
        <pt x="358" y="710" on="0"/>
        <pt x="447" y="683" on="0"/>
        <pt x="508" y="634" on="0"/>
        <pt x="539" y="566" on="0"/>
        <pt x="539" y="526" on="1"/>
        <pt x="539" y="465" on="0"/>
        <pt x="474" y="387" on="0"/>
        <pt x="423" y="368" on="1"/>
        <pt x="423" y="360" on="1"/>
        <pt x="486" y="343" on="0"/>
        <pt x="560" y="258" on="0"/>
        <pt x="560" y="191" on="1"/>
        <pt x="560" y="147" on="0"/>
        <pt x="525" y="73" on="0"/>
        <pt x="459" y="19" on="0"/>
        <pt x="362" y="-12" on="0"/>
      </contour>
      <contour>
        <pt x="300" y="103" on="1"/>
        <pt x="350" y="103" on="0"/>
        <pt x="403" y="150" on="0"/>
        <pt x="403" y="192" on="1"/>
        <pt x="403" y="212" on="1"/>
        <pt x="403" y="254" on="0"/>
        <pt x="350" y="301" on="0"/>
        <pt x="300" y="301" on="1"/>
        <pt x="250" y="301" on="0"/>
        <pt x="197" y="254" on="0"/>
        <pt x="197" y="212" on="1"/>
        <pt x="197" y="192" on="1"/>
        <pt x="197" y="150" on="0"/>
        <pt x="250" y="103" on="0"/>
      </contour>
      <contour>
        <pt x="300" y="411" on="1"/>
        <pt x="348" y="411" on="0"/>
        <pt x="398" y="456" on="0"/>
        <pt x="398" y="495" on="1"/>
        <pt x="398" y="511" on="1"/>
        <pt x="398" y="550" on="0"/>
        <pt x="348" y="595" on="0"/>
        <pt x="300" y="595" on="1"/>
        <pt x="252" y="595" on="0"/>
        <pt x="202" y="550" on="0"/>
        <pt x="202" y="511" on="1"/>
        <pt x="202" y="495" on="1"/>
        <pt x="202" y="456" on="0"/>
        <pt x="252" y="411" on="0"/>
      </contour>
    </TTGlyph>
    <TTGlyph name="ellipsis" xMin="67" yMin="-11" xMax="830" yMax="169">
      <component glyphName="period" x="0" y="0" flags="0x4"/>
      <component glyphName="period" x="293" y="0" flags="0x4"/>
      <component glyphName="period" x="587" y="0" flags="0x4"/>
    </TTGlyph>
    <TTGlyph name="emacron" xMin="36" yMin="-12" xMax="526" yMax="727">
      <component glyphName="e" x="0" y="0" flags="0x204"/>
      <component glyphName="macron" x="-12" y="0" flags="0x4"/>
    </TTGlyph>
    <TTGlyph name="emdash" xMin="36" yMin="244" xMax="744" yMax="364">
      <contour>
        <pt x="36" y="244" on="1"/>
        <pt x="36" y="364" on="1"/>
        <pt x="744" y="364" on="1"/>
        <pt x="744" y="244" on="1"/>
      </contour>
    </TTGlyph>
    <TTGlyph name="endash" xMin="36" yMin="244" xMax="552" yMax="364">
      <contour>
        <pt x="36" y="244" on="1"/>
        <pt x="36" y="364" on="1"/>
        <pt x="552" y="364" on="1"/>
        <pt x="552" y="244" on="1"/>
      </contour>
    </TTGlyph>
    <TTGlyph name="eng" xMin="69" yMin="-200" xMax="533" yMax="537">
      <contour>
        <pt x="307" y="-85" on="1"/>
        <pt x="385" y="-85" on="1"/>
        <pt x="385" y="317" on="1"/>
        <pt x="385" y="368" on="0"/>
        <pt x="353" y="417" on="0"/>
        <pt x="312" y="417" on="1"/>
        <pt x="294" y="417" on="0"/>
        <pt x="260" y="408" on="0"/>
        <pt x="233" y="389" on="0"/>
        <pt x="217" y="360" on="0"/>
        <pt x="217" y="340" on="1"/>
        <pt x="217" y="0" on="1"/>
        <pt x="69" y="0" on="1"/>
        <pt x="69" y="525" on="1"/>
        <pt x="217" y="525" on="1"/>
        <pt x="217" y="436" on="1"/>
        <pt x="223" y="436" on="1"/>
        <pt x="237" y="477" on="0"/>
        <pt x="307" y="537" on="0"/>
        <pt x="369" y="537" on="1"/>
        <pt x="450" y="537" on="0"/>
        <pt x="533" y="429" on="0"/>
        <pt x="533" y="329" on="1"/>
        <pt x="533" y="-56" on="1"/>
        <pt x="533" y="-126" on="0"/>
        <pt x="463" y="-200" on="0"/>
        <pt x="386" y="-200" on="1"/>
        <pt x="307" y="-200" on="1"/>
      </contour>
    </TTGlyph>
    <TTGlyph name="eogonek" xMin="36" yMin="-212" xMax="526" yMax="537">
      <contour>
        <pt x="336" y="-212" on="1"/>
        <pt x="312" y="-212" on="0"/>
        <pt x="268" y="-203" on="0"/>
        <pt x="234" y="-184" on="0"/>
        <pt x="214" y="-152" on="0"/>
        <pt x="214" y="-128" on="1"/>
        <pt x="214" y="-86" on="0"/>
        <pt x="276" y="-35" on="0"/>
        <pt x="328" y="-12" on="1"/>
        <pt x="327" y="-8" on="1"/>
        <pt x="313" y="-11" on="0"/>
        <pt x="292" y="-12" on="0"/>
        <pt x="283" y="-12" on="1"/>
        <pt x="224" y="-12" on="0"/>
        <pt x="132" y="27" on="0"/>
        <pt x="69" y="98" on="0"/>
        <pt x="36" y="200" on="0"/>
        <pt x="36" y="263" on="1"/>
        <pt x="36" y="325" on="0"/>
        <pt x="68" y="426" on="0"/>
        <pt x="131" y="498" on="0"/>
        <pt x="223" y="537" on="0"/>
        <pt x="282" y="537" on="1"/>
        <pt x="347" y="537" on="0"/>
        <pt x="440" y="493" on="0"/>
        <pt x="499" y="419" on="0"/>
        <pt x="526" y="322" on="0"/>
        <pt x="526" y="269" on="1"/>
        <pt x="526" y="225" on="1"/>
        <pt x="189" y="225" on="1"/>
        <pt x="189" y="217" on="1"/>
        <pt x="189" y="165" on="0"/>
        <pt x="246" y="104" on="0"/>
        <pt x="307" y="104" on="1"/>
        <pt x="351" y="104" on="0"/>
        <pt x="413" y="144" on="0"/>
        <pt x="435" y="167" on="1"/>
        <pt x="509" y="75" on="1"/>
        <pt x="498" y="62" on="0"/>
        <pt x="447" y="23" on="0"/>
        <pt x="402" y="-10" on="1"/>
        <pt x="358" y="-42" on="0"/>
        <pt x="313" y="-84" on="0"/>
        <pt x="313" y="-106" on="1"/>
        <pt x="313" y="-123" on="0"/>
        <pt x="336" y="-138" on="0"/>
        <pt x="351" y="-138" on="1"/>
        <pt x="368" y="-138" on="0"/>
        <pt x="394" y="-122" on="0"/>
        <pt x="405" y="-110" on="1"/>
        <pt x="457" y="-161" on="1"/>
        <pt x="444" y="-185" on="0"/>
        <pt x="384" y="-212" on="0"/>
      </contour>
      <contour>
        <pt x="373" y="312" on="1"/>
        <pt x="373" y="321" on="1"/>
        <pt x="373" y="369" on="0"/>
        <pt x="330" y="428" on="0"/>
        <pt x="285" y="428" on="1"/>
        <pt x="240" y="428" on="0"/>
        <pt x="189" y="369" on="0"/>
        <pt x="189" y="320" on="1"/>
        <pt x="189" y="312" on="1"/>
      </contour>
    </TTGlyph>
    <TTGlyph name="epsilon" xMin="40" yMin="-12" xMax="505" yMax="537">
      <contour>
        <pt x="505" y="75" on="1"/>
        <pt x="467" y="34" on="0"/>
        <pt x="349" y="-12" on="0"/>
        <pt x="270" y="-12" on="1"/>
        <pt x="217" y="-12" on="0"/>
        <pt x="132" y="11" on="0"/>
        <pt x="72" y="53" on="0"/>
        <pt x="40" y="112" on="0"/>
        <pt x="40" y="148" on="1"/>
        <pt x="40" y="204" on="0"/>
        <pt x="107" y="265" on="0"/>
        <pt x="164" y="273" on="1"/>
        <pt x="164" y="278" on="1"/>
        <pt x="107" y="286" on="0"/>
        <pt x="53" y="341" on="0"/>
        <pt x="53" y="388" on="1"/>
        <pt x="53" y="420" on="0"/>
        <pt x="81" y="474" on="0"/>
        <pt x="137" y="514" on="0"/>
        <pt x="218" y="537" on="0"/>
        <pt x="271" y="537" on="1"/>
        <pt x="347" y="537" on="0"/>
        <pt x="454" y="496" on="0"/>
        <pt x="496" y="455" on="1"/>
        <pt x="411" y="368" on="1"/>
        <pt x="385" y="394" on="0"/>
        <pt x="321" y="421" on="0"/>
        <pt x="282" y="421" on="1"/>
        <pt x="242" y="421" on="0"/>
        <pt x="202" y="394" on="0"/>
        <pt x="202" y="371" on="1"/>
        <pt x="202" y="361" on="1"/>
        <pt x="202" y="316" on="0"/>
        <pt x="261" y="316" on="1"/>
        <pt x="364" y="316" on="1"/>
        <pt x="364" y="218" on="1"/>
        <pt x="248" y="218" on="1"/>
        <pt x="189" y="218" on="0"/>
        <pt x="189" y="173" on="1"/>
        <pt x="189" y="162" on="1"/>
        <pt x="189" y="133" on="0"/>
        <pt x="234" y="104" on="0"/>
        <pt x="288" y="104" on="1"/>
        <pt x="334" y="104" on="0"/>
        <pt x="402" y="137" on="0"/>
        <pt x="431" y="167" on="1"/>
      </contour>
    </TTGlyph>
    <TTGlyph name="epsilontonos" xMin="40" yMin="-12" xMax="505" yMax="816">
      <component glyphName="epsilon" x="0" y="0" flags="0x204"/>
      <component glyphName="tonos" x="-30" y="0" flags="0x4"/>
    </TTGlyph>
    <TTGlyph name="equal" xMin="67" yMin="130" xMax="533" yMax="480">
      <contour>
        <pt x="67" y="362" on="1"/>
        <pt x="67" y="480" on="1"/>
        <pt x="533" y="480" on="1"/>
        <pt x="533" y="362" on="1"/>
      </contour>
      <contour>
        <pt x="67" y="130" on="1"/>
        <pt x="67" y="248" on="1"/>
        <pt x="533" y="248" on="1"/>
        <pt x="533" y="130" on="1"/>
      </contour>
    </TTGlyph>
    <TTGlyph name="eta" xMin="34" yMin="-200" xMax="547" yMax="537">
      <contour>
        <pt x="83" y="0" on="1"/>
        <pt x="83" y="410" on="1"/>
        <pt x="34" y="410" on="1"/>
        <pt x="34" y="525" on="1"/>
        <pt x="116" y="525" on="1"/>
        <pt x="217" y="525" on="0"/>
        <pt x="229" y="431" on="1"/>
        <pt x="235" y="431" on="1"/>
        <pt x="250" y="476" on="0"/>
        <pt x="320" y="537" on="0"/>
        <pt x="383" y="537" on="1"/>
        <pt x="464" y="537" on="0"/>
        <pt x="547" y="429" on="0"/>
        <pt x="547" y="329" on="1"/>
        <pt x="547" y="-200" on="1"/>
        <pt x="399" y="-200" on="1"/>
        <pt x="399" y="317" on="1"/>
        <pt x="399" y="368" on="0"/>
        <pt x="367" y="417" on="0"/>
        <pt x="326" y="417" on="1"/>
        <pt x="308" y="417" on="0"/>
        <pt x="274" y="408" on="0"/>
        <pt x="247" y="388" on="0"/>
        <pt x="231" y="359" on="0"/>
        <pt x="231" y="340" on="1"/>
        <pt x="231" y="0" on="1"/>
      </contour>
    </TTGlyph>
    <TTGlyph name="etatonos" xMin="34" yMin="-200" xMax="547" yMax="816">
      <component glyphName="eta" x="0" y="0" flags="0x204"/>
      <component glyphName="tonos" x="5" y="0" flags="0x4"/>
    </TTGlyph>
</ttFont>
